<svg width="32" height="34" viewBox="0 0 32 34" fill="none" xmlns="http://www.w3.org/2000/svg">
<path d="M0 21.3333C0 24.576 2.624 27.2 5.86667 27.2H26.1333C29.376 27.2 32 24.576 32 21.3333V5.86667C32 2.624 29.376 0 26.1333 0H5.86667C2.62933 0 0 2.624 0 5.86667V21.3333ZM26.1333 24H5.86667C4.39467 24 3.2 22.8053 3.2 21.3333V9.81333L11.2 15.5307C14.0693 17.584 17.9307 17.584 20.8 15.5307L28.8 9.81333V21.3333C28.8 22.8053 27.6053 24 26.1333 24ZM5.86667 3.2H26.1333C27.6053 3.2 28.8 4.39467 28.8 5.86667L18.9387 12.9227C17.184 14.1707 14.8267 14.1707 13.072 12.9227L3.2 5.86667C3.2 4.39467 4.39467 3.2 5.86667 3.2Z" fill="#A8692C"/>
<path d="M30.4 29.8672H1.60001V33.0672H30.4V29.8672Z" fill="#A8692C"/>
</svg>
