<svg width="351" height="400" viewBox="0 0 351 400" fill="none" xmlns="http://www.w3.org/2000/svg">
<rect width="351" height="400" fill="#A8692C"/>
<path d="M243.342 269.851L212.373 261.742L202.357 258.411V244.954C216.063 236.056 224.321 220.889 224.321 204.583H228.714C238.379 204.627 246.242 196.869 246.286 187.225C246.286 182.93 244.748 178.765 241.893 175.566V130.067C241.893 115.558 230.076 103.767 215.536 103.767H211.143C208.551 103.767 205.959 104.556 203.807 106.002C199.897 99.208 192.649 95 184.786 95H149.643C127.81 95 110.151 112.665 110.107 134.45V175.566C103.694 182.798 104.396 193.8 111.601 200.2C114.807 203.049 118.981 204.627 123.286 204.583H127.679C127.679 220.889 135.937 236.056 149.643 244.954V258.411L139.627 261.742L108.658 269.851C75.8868 278.486 53 308.074 53 341.913V353.617C53 356.027 54.9768 358 57.3929 358H294.607C297.023 358 299 356.027 299 353.617V341.913C299 308.074 276.113 278.486 243.342 269.851ZM205.915 268.843L199.59 293.916L182.897 282.782L199.15 266.564L205.915 268.843ZM176 277.303L158.429 259.77V249.469C169.718 253.896 182.282 253.896 193.571 249.469V259.77L176 277.303ZM181.842 298.825L180.173 299.395C177.45 300.271 174.55 300.271 171.827 299.395L170.158 298.825L171.08 292.031L176 288.743L180.92 292.031L181.842 298.825ZM237.5 187.05C237.5 191.872 233.546 195.817 228.714 195.817H224.321V178.283H228.714C233.546 178.283 237.5 182.228 237.5 187.05ZM127.679 195.817H123.286C118.454 195.817 114.5 191.872 114.5 187.05C114.5 182.228 118.454 178.283 123.286 178.283H127.679V195.817ZM127.679 160.75V169.517H123.286C121.792 169.517 120.342 169.736 118.893 170.13V134.45C118.893 117.53 132.686 103.767 149.643 103.767H184.786C192.034 103.767 197.964 109.684 197.964 116.917C197.964 119.327 199.941 121.3 202.357 121.3C204.773 121.3 206.75 119.327 206.75 116.917C206.75 114.506 208.727 112.533 211.143 112.533H215.536C225.244 112.533 233.107 120.379 233.107 130.067V170.13C231.658 169.736 230.208 169.561 228.714 169.517H224.321V160.75C224.321 153.517 218.391 147.6 211.143 147.6H140.857C133.609 147.6 127.679 153.517 127.679 160.75ZM136.464 204.583V160.75C136.464 158.339 138.441 156.367 140.857 156.367H211.143C213.559 156.367 215.536 158.339 215.536 160.75V204.583C215.536 226.368 197.833 244.033 176 244.033C154.167 244.033 136.464 226.368 136.464 204.583ZM152.85 266.564L169.103 282.782L152.41 293.916L146.085 268.843L152.85 266.564ZM154.563 349.233H118.893V327.317C118.893 324.906 116.916 322.933 114.5 322.933C112.084 322.933 110.107 324.906 110.107 327.317V349.233H61.7857V341.913C61.7857 312.063 81.9929 285.982 110.898 278.355L137.694 271.298L145.382 302.069C145.733 303.471 146.744 304.567 148.061 305.093C148.545 305.312 149.116 305.4 149.643 305.4C150.521 305.4 151.356 305.137 152.059 304.655L161.372 298.474L154.563 349.233ZM163.436 349.233L169.015 307.679H169.059C173.584 309.17 178.416 309.17 182.941 307.679L188.52 349.189H163.392L163.436 349.233ZM290.214 349.233H241.893V327.317C241.893 324.906 239.916 322.933 237.5 322.933C235.084 322.933 233.107 324.906 233.107 327.317V349.233H197.437L190.628 298.474L199.941 304.655C200.644 305.137 201.479 305.4 202.357 305.4C202.884 305.4 203.455 305.312 203.939 305.093C205.256 304.567 206.267 303.471 206.618 302.069L214.306 271.298L241.102 278.355C270.007 285.982 290.17 312.063 290.214 341.913V349.233ZM193.571 191.433C195.988 191.433 197.964 189.461 197.964 187.05V182.667C197.964 180.256 195.988 178.283 193.571 178.283C191.155 178.283 189.179 180.256 189.179 182.667V187.05C189.179 189.461 191.155 191.433 193.571 191.433ZM194.45 222.555C196.383 221.108 196.778 218.347 195.329 216.418C193.879 214.49 191.111 214.095 189.179 215.542C181.359 221.328 170.641 221.328 162.821 215.542C160.889 214.095 158.121 214.49 156.671 216.418C155.222 218.347 155.617 221.108 157.55 222.555C168.488 230.664 183.512 230.664 194.45 222.555ZM162.821 187.05V182.667C162.821 180.256 160.845 178.283 158.429 178.283C156.012 178.283 154.036 180.256 154.036 182.667V187.05C154.036 189.461 156.012 191.433 158.429 191.433C160.845 191.433 162.821 189.461 162.821 187.05Z" fill="white"/>
</svg>
