<svg width="66" height="66" viewBox="0 0 66 66" fill="none" xmlns="http://www.w3.org/2000/svg">
<path d="M35.0641 15.4512H21.6462V50.5486H27.8411V38.1641H35.0641C39.1185 38.1641 42.8671 35.9972 44.8969 32.4859C46.9267 28.9745 46.9267 24.646 44.8969 21.1294C42.8671 17.6181 39.1185 15.4512 35.0641 15.4512ZM35.0641 31.9692H27.8411V21.6461H35.0641C36.9094 21.6461 38.6124 22.632 39.535 24.2242C40.4577 25.8217 40.4577 27.7883 39.535 29.3858C38.6124 30.9833 36.9094 31.9639 35.0641 31.9639V31.9692Z" fill="#A8692C" stroke="white"/>
<path d="M53.6435 1H12.3565C9.34599 1 6.45679 2.1968 4.3268 4.3268C2.1968 6.45679 1 9.34599 1 12.3565V53.6435C1 56.654 2.1968 59.5432 4.3268 61.6732C6.45679 63.8032 9.34599 65 12.3565 65H53.6435C56.654 65 59.5432 63.8032 61.6732 61.6732C63.8032 59.5432 65 56.654 65 53.6435V12.3565C65 9.34599 63.8032 6.45679 61.6732 4.3268C59.5432 2.1968 56.654 1 53.6435 1ZM58.8051 53.6435C58.8051 55.0143 58.262 56.3271 57.2919 57.2919C56.3218 58.262 55.0091 58.8051 53.6435 58.8051H12.3565C10.9857 58.8051 9.67287 58.262 8.70805 57.2919C7.73795 56.3218 7.19491 55.0091 7.19491 53.6435V12.3565C7.19491 10.9857 7.73795 9.67287 8.70805 8.70805C9.67814 7.73795 10.9909 7.19491 12.3565 7.19491H53.6435C55.0143 7.19491 56.3271 7.73795 57.2919 8.70805C58.262 9.67814 58.8051 10.9909 58.8051 12.3565V53.6435Z" fill="#A8692C" stroke="white"/>
</svg>
