<svg width="66" height="66" viewBox="0 0 66 66" fill="none" xmlns="http://www.w3.org/2000/svg">
<path d="M2.32917 59.6703H63.661C64.4023 59.6703 64.9901 59.0692 64.9901 58.3412C64.9901 57.6132 64.399 57.0021 63.671 57.0021H59.6704V25.0004C61.8811 25.0004 63.671 23.2105 63.671 20.9998C63.671 18.7891 61.8811 16.9992 59.6704 16.9992H56.5313C52.731 7.40167 43.4007 1 32.9917 1C22.5828 1 13.2725 7.40167 9.46217 16.9992H6.32979C4.1191 16.9992 2.32917 18.7891 2.32917 20.9998C2.32917 23.2105 4.1191 25.0004 6.32979 25.0004V57.0021H2.33251C1.60117 57.0021 1.00342 57.6032 1.00342 58.3312C1.00342 59.0592 1.60451 59.6703 2.33251 59.6703H2.32917ZM26.8004 4.53979C25.0406 6.77052 23.5612 9.98972 22.5293 14.0004C22.349 14.7117 22.7798 15.4397 23.4877 15.62C24.199 15.8003 24.927 15.3695 25.1074 14.6616C26.8171 7.98273 29.9061 3.66152 32.9784 3.66152C36.0506 3.66152 39.1596 7.98273 40.8694 14.6616C41.0197 15.2627 41.5707 15.6601 42.1584 15.6601C42.2686 15.6601 42.3788 15.65 42.489 15.62C43.2003 15.4397 43.6278 14.7083 43.4475 14.0004C42.4189 9.9797 40.9462 6.77052 39.1763 4.53979C45.5279 6.34975 50.8777 10.8713 53.636 16.9992H12.3408C15.1125 10.868 20.4622 6.34975 26.8004 4.53979ZM9.00133 47.6717H13.002V57.0021H9.00133V47.6717ZM15.6702 47.6717H19.6708V57.0021H15.6702V47.6717ZM43.6712 25.0004V57.0021H22.329V25.0004H43.6712ZM57.0022 47.6717V57.0021H53.0015V47.6717H57.0022ZM50.3333 57.0021H46.3327V47.6717H50.3333V57.0021ZM57.0022 45.0002H46.3327V25.0004H57.0022V45.0002ZM5.0007 20.9998C5.0007 20.2584 5.6018 19.6707 6.32979 19.6707H59.6637C60.405 19.6707 60.9928 20.2718 60.9928 20.9998C60.9928 21.7278 60.3917 22.3289 59.6637 22.3289H6.32979C5.59846 22.3289 5.0007 21.7378 5.0007 20.9998ZM19.6708 25.0004V45.0002H9.00133V25.0004H19.6708Z" fill="#A8692C" stroke="#A8692C"/>
<path d="M63.6709 62.3318H2.32909C1.59776 62.3318 1 62.9329 1 63.6709C1 64.4089 1.6011 65 2.32909 65H63.6609C64.4022 65 65 64.3989 65 63.6709C65 62.9429 64.3989 62.3318 63.6709 62.3318Z" fill="#A8692C" stroke="#A8692C"/>
</svg>
