<svg width="66" height="57" viewBox="0 0 66 57" fill="none" xmlns="http://www.w3.org/2000/svg">
<path d="M54.3992 42.9684L34.523 38.0001V54.334C34.523 55.1754 33.8414 55.857 33 55.857C32.1586 55.857 31.477 55.1754 31.477 54.334V37.2386L12.0743 32.3872L15.9816 38.2511C16.147 38.5021 16.2383 38.7958 16.2383 39.0953V45.1902C16.2383 46.0316 15.5566 46.7132 14.7153 46.7132C13.8739 46.7132 13.1923 46.0316 13.1923 45.1902V39.5573L7.67919 31.2891L2.1547 29.9087C1.33901 29.7034 0.842742 28.8763 1.04524 28.0606C1.25059 27.2449 2.0777 26.7486 2.89339 26.9511L7.80183 28.1775L13.3491 17.0801C13.9566 15.8651 15.7278 15.9906 16.1584 17.2797L18.8594 25.3796H23.8562C24.6976 25.3796 25.3792 26.0613 25.3792 26.9026C25.3792 27.744 24.6976 28.4256 23.8562 28.4256H17.7613C17.1053 28.4256 16.5235 28.0064 16.3153 27.3846L14.4301 21.7318L10.8307 28.9333L33.3394 34.5605C33.3622 34.5662 33.3822 34.5719 33.405 34.5776L55.8595 40.1905V32.4157L51.9692 34.3608C51.5414 34.5747 51.0337 34.5747 50.6059 34.3608L44.511 31.312C43.7581 30.9355 43.4529 30.02 43.8294 29.267C44.2058 28.5141 45.1214 28.2089 45.8743 28.5854L51.2876 31.292L56.7008 28.5854C57.7133 28.0777 58.9055 28.8164 58.9055 29.9487V40.9492L63.8453 42.1841C64.661 42.3895 65.1573 43.2166 64.9548 44.0323C64.7523 44.848 63.9223 45.3442 63.1066 45.1417L57.8474 43.8269L52.8077 48.8665V54.3311C52.8077 55.1725 52.1261 55.8541 51.2847 55.8541C50.4434 55.8541 49.7617 55.1725 49.7617 54.3311V48.2362C49.7617 47.8312 49.9214 47.4434 50.2066 47.1581L54.3992 42.9656V42.9684ZM25.3792 8.61792C25.3792 6.09382 23.3314 4.04603 20.8073 4.04603C18.2832 4.04603 16.2354 6.09382 16.2354 8.61792C16.2354 11.142 18.2832 13.1898 20.8073 13.1898C23.3314 13.1898 25.3792 11.142 25.3792 8.61792ZM28.4281 8.61792C28.4281 12.8247 25.0142 16.2387 20.8102 16.2387C16.6062 16.2387 13.1923 12.8247 13.1923 8.61792C13.1923 4.41109 16.6005 1 20.8073 1C25.0142 1 28.4253 4.41395 28.4253 8.61792H28.4281ZM49.7617 17.7617C49.7617 13.5549 53.1756 10.1438 57.3796 10.1438C61.5836 10.1438 64.9975 13.5577 64.9975 17.7617C64.9975 21.9657 61.5836 25.3825 57.3796 25.3825C53.1756 25.3825 49.7617 21.9685 49.7617 17.7617ZM52.8106 17.7617C52.8106 20.2858 54.8584 22.3336 57.3825 22.3336C59.9066 22.3336 61.9544 20.2858 61.9544 17.7617C61.9544 15.2376 59.9066 13.1898 57.3825 13.1898C54.8584 13.1898 52.8106 15.2376 52.8106 17.7617Z" fill="#A8692C" stroke="#A8692C" stroke-linecap="round" stroke-linejoin="round"/>
</svg>
