<svg width="66" height="75" viewBox="0 0 66 75" fill="none" xmlns="http://www.w3.org/2000/svg">
<path d="M29.6673 11.6802C30.0664 11.6802 30.4385 11.5074 30.6919 11.1996L37.3573 3.19232C37.8264 2.62539 37.7509 1.78308 37.1847 1.30793C36.6185 0.838186 35.7772 0.913777 35.3027 1.48071L28.6373 9.48802C28.4108 9.76338 28.303 10.1143 28.3353 10.4653C28.3677 10.8163 28.5403 11.1456 28.8099 11.3724C29.0472 11.5722 29.3546 11.6802 29.6619 11.6802H29.6673Z" fill="#A8692C" stroke="#A8692C"/>
<path d="M16.3313 11.6802C16.7303 11.6802 17.1024 11.5074 17.3559 11.1996L24.0212 3.19232C24.4904 2.62539 24.4149 1.78308 23.8486 1.30793C23.2824 0.838186 22.4411 0.913777 21.9666 1.48071L15.3013 9.48802C15.0748 9.76338 14.9669 10.1143 14.9993 10.4653C15.0316 10.8163 15.2042 11.1456 15.4738 11.3724C15.7111 11.5722 16.0185 11.6802 16.3259 11.6802H16.3313Z" fill="#A8692C" stroke="#A8692C"/>
<path d="M42.998 11.6802C43.3971 11.6802 43.7692 11.5074 44.0226 11.1996L50.6879 3.19232C51.1571 2.62539 51.0816 1.78308 50.5154 1.30793C49.9491 0.838186 49.1079 0.913777 48.6333 1.48071L41.968 9.48802C41.7415 9.76338 41.6337 10.1143 41.666 10.4653C41.6984 10.8163 41.871 11.1456 42.1406 11.3724C42.3779 11.5722 42.6852 11.6802 42.9926 11.6802H42.998Z" fill="#A8692C" stroke="#A8692C"/>
<path d="M53.0013 23.6938H12.9986C12.2598 23.6938 11.6666 24.2932 11.6666 25.0275C11.6666 25.7618 12.2652 26.3611 12.9986 26.3611H53.0013C53.7401 26.3611 54.3333 25.7618 54.3333 25.0275C54.3333 24.2932 53.7347 23.6938 53.0013 23.6938Z" fill="#A8692C" stroke="#A8692C"/>
<path d="M52.6131 67.3642C52.9906 66.9809 53.1038 66.4085 52.8989 65.9118C52.694 65.415 52.2086 65.0911 51.6694 65.0911C51.1301 65.0911 50.6448 65.415 50.4398 65.9118C50.2349 66.4085 50.3428 66.9809 50.7256 67.3642C50.9737 67.618 51.3188 67.7584 51.6694 67.7584C52.0199 67.7584 52.365 67.618 52.6131 67.3642Z" fill="#A8692C" stroke="#A8692C"/>
<path d="M65 18.3593V17.0256H1V18.3593C1.08089 24.6226 3.07078 30.7077 6.69464 35.8155C10.3185 40.918 15.4092 44.7947 21.2926 46.9275L9.78463 72.5476C9.48264 73.2171 9.78463 74.0054 10.4533 74.3078C10.6259 74.3888 10.8092 74.4266 10.998 74.4266C11.5211 74.4266 11.9956 74.1188 12.2113 73.6383L19.664 57.0729H46.3306L47.4631 59.6107C45.2575 60.9821 43.85 63.3362 43.6936 65.9333C43.5372 68.5304 44.6427 71.0358 46.6704 72.6664C48.6926 74.297 51.3836 74.8369 53.8804 74.1242C56.3772 73.4115 58.3724 71.5271 59.2299 69.0758C60.0873 66.6245 59.7044 63.9032 58.2053 61.7866C56.7007 59.6646 54.2632 58.412 51.6694 58.412C51.0924 58.412 50.5153 58.4768 49.9491 58.601L44.7075 46.9329C50.5908 44.8001 55.6815 40.9233 59.3054 35.8209C62.9292 30.7185 64.9191 24.628 65 18.3647V18.3593ZM51.6694 61.0793C53.0822 61.0793 54.4412 61.6408 55.4388 62.6451C56.4365 63.6494 57.0027 65.0046 57.0027 66.4193C57.0027 67.8339 56.4419 69.1946 55.4388 70.1935C54.4358 71.1923 53.0822 71.7593 51.6694 71.7593C50.2565 71.7593 48.8975 71.1977 47.8999 70.1935C46.9023 69.1892 46.336 67.8339 46.336 66.4193C46.336 65.0046 46.8969 63.644 47.8999 62.6451C48.9029 61.6462 50.2565 61.0793 51.6694 61.0793ZM45.1389 54.4056H20.8665L23.8379 47.732C26.8146 48.6013 29.8992 49.0494 33 49.0656C36.1008 49.0548 39.1854 48.6067 42.1621 47.732L45.1335 54.4056H45.1389ZM33.0054 46.3983C17.302 46.3983 4.43512 34.5467 3.67476 19.6983H62.3306C61.5703 34.5413 48.7034 46.3983 33 46.3983H33.0054Z" fill="#A8692C" stroke="#A8692C"/>
</svg>
