<svg width="64" height="62" viewBox="0 0 64 62" fill="none" xmlns="http://www.w3.org/2000/svg">
<g opacity="0.8">
<path d="M5.48751 52.6935C6.10041 55.3347 7.58525 57.6978 9.70826 59.3848C11.8313 61.0718 14.4661 61.9943 17.1767 61.9943H46.8104C49.5211 61.9943 52.1559 61.0718 54.2789 59.3848C56.4019 57.6978 57.8868 55.341 58.4997 52.6935L63.7882 29.7953C64.3379 27.4196 63.7693 24.9237 62.2528 23.0156C60.7364 21.1074 58.4302 19.9953 55.9912 19.9953H51.5051L44.7253 2.54998C44.2072 1.21677 43.0194 0.262682 41.604 0.0478531C40.1887 -0.173294 38.767 0.382733 37.8761 1.49479C36.9789 2.60684 36.7514 4.11696 37.2695 5.45016L42.9309 19.9953H21.0626L26.724 5.45016C27.2421 4.11696 27.0083 2.61316 26.1174 1.49479C25.2202 0.382733 23.7985 -0.173294 22.3895 0.0478531C20.9741 0.262682 19.7863 1.22309 19.2681 2.54998L12.4884 19.9953H8.00227C5.56333 19.9953 3.25708 21.1074 1.74065 23.0156C0.224209 24.9237 -0.344456 27.4196 0.205253 29.7953L5.49383 52.6935H5.48751ZM55.9849 28.0009L53.9061 36.9984L52.0548 44.9976L50.6963 50.8991C50.4941 51.7837 49.995 52.5672 49.2873 53.1295C48.5796 53.6918 47.7014 54.0014 46.7978 54.0014H17.1767C16.2732 54.0014 15.3949 53.6982 14.6872 53.1295C13.9796 52.5672 13.4804 51.7837 13.2782 50.8991L11.9197 44.9976L10.0684 36.9984L8.00227 28.0009H55.9849Z" fill="#A8692C"/>
<path d="M25.991 36.9981C25.991 39.2096 24.2029 40.9977 21.9914 40.9977C19.78 40.9977 17.9918 39.2096 17.9918 36.9981C17.9918 34.7867 19.78 32.9985 21.9914 32.9985C24.2029 32.9985 25.991 34.7867 25.991 36.9981Z" fill="#A8692C"/>
<path d="M45.989 36.9981C45.989 39.2096 44.2009 40.9977 41.9894 40.9977C39.7779 40.9977 37.9898 39.2096 37.9898 36.9981C37.9898 34.7867 39.7779 32.9985 41.9894 32.9985C44.2009 32.9985 45.989 34.7867 45.989 36.9981Z" fill="#A8692C"/>
</g>
</svg>
