<svg width="131" height="150" viewBox="0 0 131 150" fill="none" xmlns="http://www.w3.org/2000/svg">
<path d="M58.7826 22.5272C59.5869 22.5272 60.3369 22.179 60.8478 21.5586L74.2826 5.4189C75.2282 4.27617 75.076 2.5784 73.9347 1.62068C72.7934 0.673843 71.0978 0.826208 70.1413 1.96894L56.7065 18.1087C56.25 18.6637 56.0326 19.3711 56.0978 20.0785C56.163 20.7859 56.5108 21.4498 57.0543 21.9069C57.5326 22.3096 58.1521 22.5272 58.7717 22.5272H58.7826Z" fill="#A8692C" stroke="#A8692C"/>
<path d="M31.9022 22.5272C32.7065 22.5272 33.4565 22.179 33.9674 21.5586L47.4022 5.4189C48.3478 4.27617 48.1957 2.5784 47.0544 1.62068C45.9131 0.673843 44.2174 0.826208 43.2609 1.96894L29.8261 18.1087C29.3696 18.6637 29.1522 19.3711 29.2174 20.0785C29.2826 20.7859 29.6305 21.4498 30.1739 21.9069C30.6522 22.3096 31.2718 22.5272 31.8913 22.5272H31.9022Z" fill="#A8692C" stroke="#A8692C"/>
<path d="M85.6522 22.5272C86.4565 22.5272 87.2065 22.179 87.7174 21.5586L101.152 5.4189C102.098 4.27617 101.946 2.5784 100.804 1.62068C99.6631 0.673843 97.9674 0.826208 97.0109 1.96894L83.5761 18.1087C83.1196 18.6637 82.9022 19.3711 82.9674 20.0785C83.0326 20.7859 83.3805 21.4498 83.9239 21.9069C84.4022 22.3096 85.0218 22.5272 85.6413 22.5272H85.6522Z" fill="#A8692C" stroke="#A8692C"/>
<path d="M105.815 46.7422H25.1848C23.6957 46.7422 22.5 47.9502 22.5 49.4303C22.5 50.9104 23.7065 52.1185 25.1848 52.1185H105.815C107.304 52.1185 108.5 50.9104 108.5 49.4303C108.5 47.9502 107.293 46.7422 105.815 46.7422Z" fill="#A8692C" stroke="#A8692C"/>
<path d="M105.033 134.765C105.793 133.992 106.022 132.839 105.609 131.838C105.196 130.836 104.217 130.183 103.13 130.183C102.043 130.183 101.065 130.836 100.652 131.838C100.239 132.839 100.457 133.992 101.228 134.765C101.728 135.277 102.424 135.56 103.13 135.56C103.837 135.56 104.533 135.277 105.033 134.765Z" fill="#A8692C" stroke="#A8692C"/>
<path d="M130 35.9897V33.3015H1V35.9897C1.16304 48.6141 5.17391 60.8794 12.4783 71.1749C19.7826 81.4595 30.0435 89.2736 41.9022 93.5724L18.7065 145.213C18.0978 146.562 18.7065 148.151 20.0543 148.761C20.4022 148.924 20.7717 149 21.1522 149C22.2065 149 23.163 148.38 23.5978 147.411L38.6196 114.022H92.3696L94.6522 119.137C90.2065 121.901 87.3696 126.646 87.0543 131.881C86.7391 137.116 88.9674 142.166 93.0544 145.452C97.1304 148.739 102.554 149.827 107.587 148.391C112.62 146.954 116.641 143.156 118.37 138.215C120.098 133.274 119.326 127.789 116.304 123.523C113.272 119.246 108.359 116.721 103.13 116.721C101.967 116.721 100.804 116.851 99.663 117.102L89.0978 93.5833C100.957 89.2845 111.217 81.4703 118.522 71.1858C125.826 60.9012 129.837 48.625 130 36.0005V35.9897ZM103.13 122.097C105.978 122.097 108.717 123.229 110.728 125.253C112.739 127.278 113.88 130.009 113.88 132.861C113.88 135.712 112.75 138.455 110.728 140.468C108.707 142.481 105.978 143.624 103.13 143.624C100.283 143.624 97.5435 142.492 95.5326 140.468C93.5217 138.444 92.3804 135.712 92.3804 132.861C92.3804 130.009 93.5109 127.267 95.5326 125.253C97.5543 123.24 100.283 122.097 103.13 122.097ZM89.9674 108.646H41.0435L47.0326 95.194C53.0326 96.9462 59.25 97.8495 65.5 97.8821C71.75 97.8604 77.9674 96.9571 83.9674 95.194L89.9565 108.646H89.9674ZM65.5109 92.5059C33.8587 92.5059 7.92391 68.6173 6.3913 38.6887H124.62C123.087 68.6065 97.1522 92.5059 65.5 92.5059H65.5109Z" fill="#A8692C" stroke="#A8692C"/>
</svg>
