<svg width="193" height="180" viewBox="0 0 193 180" fill="none" xmlns="http://www.w3.org/2000/svg">
<g clip-path="url(#clip0_6_290)">
<path d="M107.354 68.614C108.998 67.9505 109.795 66.0857 109.137 64.4374C107.158 59.5483 104.436 54.9946 101.072 50.9227C107.165 49.8262 112.656 46.5645 116.539 41.7453H154.406C157.847 41.8431 161.177 40.523 163.612 38.0925C166.046 35.662 167.368 32.3374 167.27 28.9011C167.396 25.9887 166.473 23.1321 164.675 20.8412C162.87 18.5504 160.303 16.9789 157.442 16.4201C156.595 9.54757 152.615 0 141.541 0C130.467 0 126.626 9.21931 125.689 16.057H120.274C116.902 7.81546 109.494 1.90672 100.701 0.440012C91.9004 -1.01971 82.9741 2.17911 77.1189 8.88406C71.2636 15.589 69.2978 24.8572 71.9421 33.3641C57.3285 30.291 42.0992 33.7273 30.2207 42.765C18.3423 51.8027 10.997 65.5618 10.0876 80.4385H0V86.864H10.0666C10.4024 92.3677 11.6266 97.7875 13.6833 102.9C14.3479 104.541 16.2227 105.338 17.8666 104.674L59.609 87.8488L74.9502 126.36C65.5972 127.527 56.8528 131.641 49.9971 138.101H0V144.478H51.4102C52.4036 144.471 53.334 144.01 53.9426 143.235C54.3064 142.767 63.1697 131.787 86.7517 131.787C94.2929 131.648 101.785 133.086 108.739 136.006L107.193 139.91C93.5374 144.066 93.2716 153.522 93.2716 154.032L99.7075 154.109C99.7284 153.711 100.449 144.401 122.226 144.401C144.003 144.401 144.724 153.711 144.745 154.032H151.181C150.887 150.379 149.124 146.992 146.284 144.666H173.699V151.092H180.135V144.666H193V138.241H134.419L136.672 134.874C137.176 134.12 137.336 133.184 137.106 132.304C136.882 131.424 136.294 130.677 135.49 130.258L129.802 127.261L141.779 104.52L147.473 107.517L150.467 101.838L133.391 92.8426L130.39 98.5279L136.084 101.517L124.094 124.251L118.407 121.262C117.595 120.843 116.644 120.787 115.797 121.108C114.937 121.422 114.258 122.093 113.922 122.938L111.138 130.006C103.415 126.835 95.1184 125.278 86.7657 125.438C84.9469 125.438 83.226 125.515 81.554 125.634L66.1358 86.864H192.993V80.4385H78.0003L107.354 68.607V68.614ZM118.588 128.644L129.341 134.295L126.766 138.15C125.332 138.059 123.835 137.996 122.226 137.996C119.715 137.996 117.203 138.15 114.713 138.443L118.595 128.644H118.588ZM42.2181 44.7975L57.2235 81.9052L37.0204 90.0489C30.9483 72.7208 32.956 55.7209 42.2111 44.7975H42.2181ZM48.1853 42.3948C62.4632 43.8546 75.7127 54.6873 83.3868 71.3588L63.1907 79.4816L48.1853 42.3879V42.3948ZM128.669 22.4756C129.522 22.4756 130.341 22.1403 130.943 21.5327C131.544 20.932 131.887 20.1149 131.887 19.2628C131.887 18.7389 131.999 6.41859 141.534 6.41859C151.069 6.41859 151.181 18.7529 151.181 19.2628C151.181 20.1149 151.516 20.932 152.125 21.5327C152.727 22.1333 153.545 22.4756 154.399 22.4756C156.14 22.3638 157.84 23.0064 159.072 24.2356C160.303 25.4648 160.946 27.162 160.835 28.9011C160.946 30.6332 160.303 32.3374 159.072 33.5667C157.84 34.7959 156.14 35.4385 154.399 35.3267H144.675V28.9011H138.393V35.3267H115.804C114.062 35.4385 112.362 34.7959 111.131 33.5667C109.9 32.3374 109.256 30.6332 109.368 28.9011C109.256 27.162 109.9 25.4648 111.131 24.2356C112.362 23.0064 114.062 22.3638 115.804 22.4756H128.669ZM77.2028 25.6883C77.1888 19.9612 79.7352 14.5274 84.1494 10.8606C88.5636 7.20084 94.3769 5.69222 100.015 6.74686C105.654 7.80149 110.53 11.3146 113.307 16.3224C110.334 16.7763 107.626 18.3129 105.717 20.6247C103.8 22.9435 102.813 25.8909 102.939 28.8872C102.827 31.1641 103.366 33.427 104.499 35.4105C105.633 37.3941 107.305 39.0074 109.326 40.0691C105.794 43.205 101.232 44.9441 96.5035 44.9441C96.0488 44.9441 95.6011 44.9022 95.1464 44.8673C91.0819 41.3402 86.4929 38.4697 81.533 36.3604C81.0853 36.1718 80.6236 36.0391 80.1689 35.8645C78.2311 32.8193 77.2028 29.2853 77.1958 25.6744L77.2028 25.6883ZM79.0146 42.2901C89.0043 46.4946 97.1191 54.1774 101.855 63.9066L89.3471 68.9492C83.7296 55.5044 73.1874 44.7067 59.8748 38.756C60.3855 38.756 60.8962 38.6792 61.4139 38.6792C67.465 38.6862 73.4532 39.9154 79.0216 42.2831L79.0146 42.2901ZM19.9653 66.0927C22.5326 60.0722 26.3802 54.6942 31.2561 50.3221C25.8135 63.8228 25.7506 78.8949 31.0602 92.4445L18.5522 97.4872C15.1943 87.1993 15.698 76.0453 19.9583 66.0927H19.9653Z" fill="#A8692C"/>
<path d="M9.65384 144.673H16.0897V151.099H9.65384V144.673Z" fill="#A8692C"/>
<path d="M41.8193 151.099H48.2552V157.524H41.8193V151.099Z" fill="#A8692C"/>
<path d="M128.669 157.524H135.105V163.95H128.669V157.524Z" fill="#A8692C"/>
<path d="M151.188 167.156H157.624V173.581H151.188V167.156Z" fill="#A8692C"/>
<path d="M106.15 173.581H112.586V180.007H106.15V173.581Z" fill="#A8692C"/>
<path d="M19.3007 167.156H25.7366V173.581H19.3007V167.156Z" fill="#A8692C"/>
<path d="M83.6387 160.737H90.0746V167.163H83.6387V160.737Z" fill="#A8692C"/>
<path d="M77.2028 141.468H83.6387V147.893H77.2028V141.468Z" fill="#A8692C"/>
<path d="M61.1201 167.156H67.556V173.581H61.1201V167.156Z" fill="#A8692C"/>
</g>
<defs>
<clipPath id="clip0_6_290">
<rect width="193" height="180" fill="white"/>
</clipPath>
</defs>
</svg>
