<svg width="64" height="64" viewBox="0 0 64 64" fill="none" xmlns="http://www.w3.org/2000/svg">
<path d="M26.9963 59.5001C26.9963 61.9838 24.9803 63.9998 22.4967 63.9998C20.013 63.9998 17.997 61.9838 17.997 59.5001C17.997 57.0165 20.013 55.0005 22.4967 55.0005C24.9803 55.0005 26.9963 57.0165 26.9963 59.5001Z" fill="#A8692C"/>
<path d="M55.9977 59.5001C55.9977 61.9838 53.9817 63.9998 51.498 63.9998C49.0143 63.9998 46.9984 61.9838 46.9984 59.5001C46.9984 57.0165 49.0143 55.0005 51.498 55.0005C53.9817 55.0005 55.9977 57.0165 55.9977 59.5001Z" fill="#A8692C"/>
<path d="M7.56947 9.37217L17.3777 38.8032C18.174 41.1921 19.7034 43.2713 21.751 44.7438C23.7986 46.2163 26.2506 47.0062 28.7722 47.0062H46.3031C48.7994 47.0062 51.2325 46.2289 53.2612 44.7817C55.2961 43.3345 56.8255 41.2932 57.6408 38.9359L63.6382 21.6072C64.327 19.6291 64.0174 17.4362 62.804 15.7298C61.5906 14.0235 59.6252 13.006 57.527 13.006H17.2197L15.1721 6.84428C14.5085 4.85356 13.232 3.12195 11.5319 1.8896C9.82561 0.657253 7.77802 0 5.67987 0H3.99881C2.57055 0 1.24973 0.764689 0.535598 1.99704C-0.178533 3.22939 -0.178533 4.76508 0.535598 5.99743C1.24973 7.2361 2.57055 8.00079 3.99881 8.00079H5.67987C6.53935 8.00079 7.29772 8.55693 7.56947 9.37217ZM55.3783 21.0005L50.076 36.3132C49.8043 37.0969 49.2924 37.7794 48.6162 38.266C47.94 38.7526 47.131 39.0054 46.2968 39.0054H28.7659C27.9317 39.0054 27.1164 38.7337 26.4402 38.2471C25.764 37.7604 25.2584 37.0716 24.993 36.2753L19.874 21.0068H55.372L55.3783 21.0005Z" fill="#A8692C"/>
</svg>
