<svg width="36" height="36" viewBox="0 0 36 36" fill="none" xmlns="http://www.w3.org/2000/svg">
<path d="M18 13.5C16.8065 13.5 15.6619 13.9741 14.818 14.818C13.9741 15.6619 13.5 16.8065 13.5 18C13.5 19.1935 13.9741 20.3381 14.818 21.182C15.6619 22.0259 16.8065 22.5 18 22.5C19.1935 22.5 20.3381 22.0259 21.182 21.182C22.0259 20.3381 22.5 19.1935 22.5 18C22.5 16.8065 22.0259 15.6619 21.182 14.818C20.3381 13.9741 19.1935 13.5 18 13.5ZM18 10.5C19.9891 10.5 21.8968 11.2902 23.3033 12.6967C24.7098 14.1032 25.5 16.0109 25.5 18C25.5 19.9891 24.7098 21.8968 23.3033 23.3033C21.8968 24.7098 19.9891 25.5 18 25.5C16.0109 25.5 14.1032 24.7098 12.6967 23.3033C11.2902 21.8968 10.5 19.9891 10.5 18C10.5 16.0109 11.2902 14.1032 12.6967 12.6967C14.1032 11.2902 16.0109 10.5 18 10.5ZM27.75 10.125C27.75 10.6223 27.5525 11.0992 27.2008 11.4508C26.8492 11.8025 26.3723 12 25.875 12C25.3777 12 24.9008 11.8025 24.5492 11.4508C24.1975 11.0992 24 10.6223 24 10.125C24 9.62772 24.1975 9.15081 24.5492 8.79917C24.9008 8.44754 25.3777 8.25 25.875 8.25C26.3723 8.25 26.8492 8.44754 27.2008 8.79917C27.5525 9.15081 27.75 9.62772 27.75 10.125ZM18 6C14.289 6 13.683 6.0105 11.9565 6.087C10.7805 6.1425 9.9915 6.3 9.2595 6.585C8.6085 6.837 8.139 7.1385 7.6395 7.6395C7.17001 8.0931 6.80903 8.64688 6.5835 9.2595C6.2985 9.9945 6.141 10.782 6.087 11.9565C6.009 13.6125 6 14.1915 6 18C6 21.711 6.0105 22.317 6.087 24.0435C6.1425 25.218 6.3 26.0085 6.5835 26.739C6.8385 27.3915 7.1385 27.861 7.6365 28.359C8.142 28.863 8.6115 29.1645 9.2565 29.4135C9.9975 29.7 10.7865 29.859 11.9565 29.913C13.6125 29.991 14.1915 30 18 30C21.711 30 22.317 29.9895 24.0435 29.913C25.2165 29.8575 26.007 29.7 26.739 29.4165C27.3885 29.163 27.861 28.8615 28.359 28.3635C28.8645 27.858 29.166 27.3885 29.415 26.7435C29.7 26.004 29.859 25.2135 29.913 24.0435C29.991 22.3875 30 21.8085 30 18C30 14.289 29.9895 13.683 29.913 11.9565C29.8575 10.7835 29.7 9.9915 29.415 9.2595C29.1889 8.6475 28.8286 8.09394 28.3605 7.6395C27.9071 7.16977 27.3533 6.80875 26.7405 6.5835C26.0055 6.2985 25.2165 6.141 24.0435 6.087C22.3875 6.009 21.8085 6 18 6ZM18 3C22.0755 3 22.584 3.015 24.183 3.09C25.7805 3.165 26.868 3.4155 27.825 3.7875C28.815 4.1685 29.649 4.6845 30.483 5.517C31.2457 6.26684 31.8359 7.17388 32.2125 8.175C32.583 9.1305 32.835 10.2195 32.91 11.817C32.9805 13.416 33 13.9245 33 18C33 22.0755 32.985 22.584 32.91 24.183C32.835 25.7805 32.583 26.868 32.2125 27.825C31.837 28.8267 31.2467 29.7339 30.483 30.483C29.7329 31.2455 28.826 31.8356 27.825 32.2125C26.8695 32.583 25.7805 32.835 24.183 32.91C22.584 32.9805 22.0755 33 18 33C13.9245 33 13.416 32.985 11.817 32.91C10.2195 32.835 9.132 32.583 8.175 32.2125C7.17349 31.8367 6.26629 31.2464 5.517 30.483C4.75411 29.7333 4.1639 28.8262 3.7875 27.825C3.4155 26.8695 3.165 25.7805 3.09 24.183C3.0195 22.584 3 22.0755 3 18C3 13.9245 3.015 13.416 3.09 11.817C3.165 10.218 3.4155 9.132 3.7875 8.175C4.16285 7.17327 4.75321 6.26598 5.517 5.517C6.26651 4.75385 7.17364 4.16359 8.175 3.7875C9.132 3.4155 10.218 3.165 11.817 3.09C13.416 3.0195 13.9245 3 18 3Z" fill="#A8692C"/>
</svg>
