<svg width="251" height="48" viewBox="0 0 251 48" fill="none" xmlns="http://www.w3.org/2000/svg">
<g clip-path="url(#clip0_4_51)">
<path d="M14.068 7.00113C13.2983 7.7639 12.3469 8.14529 11.2031 8.14529C10.0592 8.14529 9.09714 7.7639 8.31143 7.00113C7.52572 6.23836 7.13019 5.26311 7.13019 4.08082C7.13019 2.89852 7.52572 1.92327 8.31143 1.1605C9.09714 0.397728 10.0539 0.0108948 11.1763 0.0108948C11.6253 0.0108948 12.0583 0.0653783 12.4698 0.185242C12.8814 0.299658 13.2555 0.479453 13.5923 0.730078C13.929 0.980702 14.2176 1.26402 14.4635 1.59092C14.704 1.91782 14.8911 2.28831 15.0247 2.70783C15.153 3.12735 15.2225 3.58502 15.2225 4.08082C15.2225 5.26311 14.8376 6.23836 14.0733 7.00113H14.068Z" fill="#A8692C"/>
<path d="M6.29104 48H0V14.558H6.34983L6.29638 48H6.29104Z" fill="#A8692C"/>
<path d="M25.2711 37.0652C21.6739 37.0652 18.9052 36.0245 16.9543 33.9433C15.0087 31.862 14.0306 29.0833 14.0306 25.6127V14.558H20.3804V25.4983C20.3804 26.6043 20.5675 27.5905 20.9416 28.4459C21.3158 29.3067 21.877 29.9714 22.6253 30.4509C23.3736 30.9303 24.2341 31.1646 25.2069 31.1646C25.9552 31.1646 26.6394 31.0229 27.2594 30.7342C27.8794 30.4454 28.3818 30.064 28.7774 29.59C29.1729 29.1106 29.4776 28.5221 29.702 27.8139C29.9265 27.1056 30.0388 26.3374 30.0388 25.4929V14.558H36.3886V25.6672C36.3886 29.067 35.4265 31.813 33.497 33.916C31.5674 36.0136 28.8255 37.0652 25.2657 37.0652H25.2711Z" fill="#A8692C"/>
<path d="M36.3886 4.93622H23.3575V9.8016H36.3886V4.93622Z" fill="#A8692C"/>
<path d="M47.736 14.558L49.1951 16.9607C51.2155 14.7105 54.1767 13.8334 58.0731 14.3292V20.1153C56.4269 19.8865 55.0319 20.0281 53.888 20.5457C52.7442 21.0633 51.9104 21.8315 51.3866 22.8667C50.8628 23.8965 50.6009 25.1224 50.6009 26.5335V36.553H44.251V14.558H47.736Z" fill="#A8692C"/>
<path d="M81.9652 16.9662L83.4244 14.5634H86.4603V36.553H70.388C70.388 36.553 70.3613 36.553 70.3506 36.5476C69.7252 36.3187 69.1212 36.0354 68.5386 35.6976C66.7801 34.6679 65.4011 33.2622 64.407 31.486C63.4128 29.7099 62.9157 27.7539 62.9157 25.6182C62.9157 22.3328 64.0114 19.5759 66.2029 17.3421C68.3943 15.1083 71.1363 13.9914 74.4341 13.9914C77.4273 13.9914 79.9395 14.983 81.9599 16.9716L81.9652 16.9662ZM70.6713 29.7099C71.7563 30.7995 73.0979 31.3444 74.6907 31.3444C76.2835 31.3444 77.6197 30.7995 78.7101 29.7099C79.7951 28.6202 80.3403 27.2581 80.3403 25.6127C80.3403 23.9673 79.7951 22.6161 78.7101 21.5482C77.6251 20.4804 76.2835 19.9464 74.6907 19.9464C73.0979 19.9464 71.7616 20.4804 70.6713 21.5482C69.5862 22.6161 69.0411 23.9727 69.0411 25.6127C69.0411 27.2527 69.5809 28.6202 70.6713 29.7099Z" fill="#A8692C"/>
<path d="M103.137 36.8908C99.7639 36.929 96.3592 36.3405 92.9117 35.1146L94.7664 30.1893C97.5778 31.2572 100.272 31.7748 102.859 31.7367C105.141 31.6985 106.285 31.0883 106.285 29.906C106.285 29.4102 106.087 29.0397 105.697 28.7891C105.301 28.5439 104.617 28.3206 103.644 28.1299L100.384 27.4434C95.9262 26.5662 93.6974 24.4086 93.6974 20.9707C93.6974 18.8731 94.4831 17.2005 96.0545 15.9582C97.626 14.716 99.7639 14.0786 102.458 14.0404C105.563 14.0023 108.583 14.5199 111.502 15.5877L109.871 20.5131C107.402 19.7503 105.189 19.3853 103.244 19.4234C101.111 19.4234 100.042 19.9791 100.042 21.0851C100.042 21.4284 100.143 21.7171 100.352 21.946C100.555 22.1748 100.876 22.3655 101.309 22.5181C101.736 22.6706 102.33 22.8232 103.078 22.9757L105.718 23.5478C108.075 24.0055 109.802 24.741 110.887 25.7544C111.972 26.7678 112.517 28.1517 112.517 29.906C112.517 30.9739 112.303 31.9383 111.87 32.7991C111.437 33.6599 110.823 34.3955 110.016 35.0057C109.209 35.6159 108.225 36.0845 107.065 36.4114C105.905 36.7328 104.596 36.8963 103.131 36.8963L103.137 36.8908Z" fill="#A8692C"/>
<path d="M204.413 16.9498L205.872 14.5471H208.908V36.5367H192.836C192.836 36.5367 192.809 36.5367 192.799 36.5312C192.173 36.3024 191.569 36.0191 190.987 35.6813C189.228 34.6515 187.849 33.2459 186.855 31.4697C185.861 29.6935 185.364 27.7376 185.364 25.6018C185.364 22.3165 186.459 19.5596 188.651 17.3258C190.842 15.0919 193.584 13.975 196.882 13.975C199.875 13.975 202.387 14.9666 204.408 16.9553L204.413 16.9498ZM193.119 29.6935C194.204 30.7832 195.546 31.328 197.139 31.328C198.731 31.328 200.068 30.7832 201.158 29.6935C202.243 28.6039 202.788 27.2418 202.788 25.5964C202.788 23.951 202.243 22.5998 201.158 21.5319C200.073 20.464 198.731 19.9301 197.139 19.9301C195.546 19.9301 194.21 20.464 193.119 21.5319C192.034 22.5998 191.489 23.9564 191.489 25.5964C191.489 27.2363 192.029 28.6039 193.119 29.6935Z" fill="#A8692C"/>
<path d="M143.807 36.8799C140.434 36.9181 137.029 36.3296 133.582 35.1038L135.436 30.1784C138.248 31.2463 140.942 31.7639 143.529 31.7258C145.811 31.6876 146.955 31.0774 146.955 29.8951C146.955 29.3993 146.757 29.0288 146.367 28.7782C145.971 28.533 145.287 28.3097 144.314 28.119L141.054 27.4325C136.596 26.5553 134.367 24.3977 134.367 20.9598C134.367 18.8622 135.153 17.1896 136.724 15.9473C138.296 14.7051 140.434 14.0677 143.128 14.0295C146.233 13.9914 149.253 14.509 152.171 15.5769L150.541 20.5022C148.072 19.7394 145.859 19.3744 143.913 19.4125C141.781 19.4125 140.712 19.9682 140.712 21.0742C140.712 21.4175 140.813 21.7063 141.022 21.9351C141.225 22.1639 141.546 22.3546 141.979 22.5072C142.406 22.6597 142.999 22.8123 143.748 22.9648L146.388 23.5369C148.745 23.9946 150.472 24.7301 151.557 25.7435C152.642 26.7569 153.187 28.1408 153.187 29.8951C153.187 30.963 152.973 31.9274 152.54 32.7882C152.107 33.649 151.493 34.3846 150.686 34.9948C149.878 35.605 148.895 36.0736 147.735 36.4005C146.575 36.7219 145.266 36.8854 143.801 36.8854L143.807 36.8799Z" fill="#A8692C"/>
<path d="M172.301 25.1986L183.087 36.5367H174.882L165.951 26.6316V36.5367H159.66V7.38797H166.01L165.951 23.8801L174.545 14.5471H182.638L172.301 25.1986Z" fill="#A8692C"/>
<path d="M213.874 20.3278V14.5417H229.064V20.3278H213.874Z" fill="#A8692C"/>
<path d="M222.832 20.3278V24.9099C222.832 27.2799 223.27 28.9308 224.152 29.8624C225.034 30.7995 226.691 31.1918 229.123 31.0338V36.7056C224.703 36.9725 221.49 36.0953 219.486 34.074C217.482 32.0527 216.482 28.9961 216.482 24.9099V8.70647L222.832 7.38797V14.5471H229.07V20.3333H222.832V20.3278Z" fill="#A8692C"/>
<path d="M249.845 6.98479C249.076 7.74756 248.124 8.12894 246.981 8.12894C245.837 8.12894 244.875 7.74756 244.089 6.98479C243.303 6.22202 242.908 5.24676 242.908 4.06447C242.908 2.88218 243.303 1.90692 244.089 1.14415C244.875 0.381385 245.831 0 246.954 0C247.403 0 247.836 0.0544835 248.247 0.174347C248.659 0.288763 249.033 0.468558 249.37 0.719183C249.707 0.969807 249.995 1.25312 250.241 1.58002C250.482 1.90692 250.669 2.27741 250.802 2.69694C250.931 3.11646 251 3.57412 251 4.06992C251 5.25221 250.615 6.22747 249.851 6.99024L249.845 6.98479Z" fill="#A8692C"/>
<path d="M242.09 36.5367H235.799V14.5471H242.143L242.09 36.5367Z" fill="#A8692C"/>
</g>
<defs>
<clipPath id="clip0_4_51">
<rect width="251" height="48" fill="white"/>
</clipPath>
</defs>
</svg>
