<svg width="397" height="76" viewBox="0 0 397 76" fill="none" xmlns="http://www.w3.org/2000/svg">
<g clip-path="url(#clip0_17_1274)">
<path d="M22.2509 11.0851C21.0335 12.2928 19.5287 12.8967 17.7195 12.8967C15.9104 12.8967 14.3887 12.2928 13.1459 11.0851C11.9032 9.8774 11.2776 8.33325 11.2776 6.46128C11.2776 4.58932 11.9032 3.04517 13.1459 1.83745C14.3887 0.629728 15.9019 0.0172424 17.6773 0.0172424C18.3874 0.0172424 19.0722 0.103508 19.7231 0.293292C20.3741 0.47445 20.9659 0.759127 21.4985 1.15595C22.0311 1.55277 22.4876 2.00135 22.8765 2.51895C23.2569 3.03654 23.5528 3.62314 23.7642 4.28739C23.967 4.95164 24.0769 5.67627 24.0769 6.46128C24.0769 8.33325 23.4683 9.8774 22.2593 11.0851H22.2509Z" fill="#A8692C"/>
<path d="M9.95036 76H0V23.0502H10.0434L9.95882 76H9.95036Z" fill="#A8692C"/>
<path d="M39.9704 58.6865C34.2809 58.6865 29.9017 57.0388 26.816 53.7435C23.7387 50.4481 22.1917 46.0486 22.1917 40.5535V23.0502H32.235V40.3723C32.235 42.1235 32.5309 43.6849 33.1227 45.0393C33.7145 46.4023 34.6021 47.4547 35.7857 48.2138C36.9692 48.973 38.3303 49.3439 39.869 49.3439C41.0525 49.3439 42.1346 49.1196 43.1153 48.6624C44.096 48.2052 44.8906 47.6014 45.5162 46.8509C46.1418 46.0917 46.6237 45.16 46.9788 44.0386C47.3339 42.9171 47.5114 41.7008 47.5114 40.3637V23.0502H57.5547V40.6397C57.5547 46.0227 56.033 50.3705 52.9811 53.7003C49.9292 57.0216 45.5923 58.6865 39.962 58.6865H39.9704Z" fill="#A8692C"/>
<path d="M57.555 7.81564H36.9441V15.5192H57.555V7.81564Z" fill="#A8692C"/>
<path d="M75.5027 23.0501L77.8107 26.8545C81.0063 23.2917 85.6898 21.9028 91.8528 22.6878V31.8492C89.2489 31.4869 87.0424 31.7112 85.2333 32.5307C83.4241 33.3503 82.1053 34.5666 81.2768 36.2057C80.4483 37.8361 80.0341 39.777 80.0341 42.0113V57.8756H69.9907V23.0501H75.5027Z" fill="#A8692C"/>
<path d="M129.642 26.8631L131.95 23.0588H136.752V57.8756H111.331C111.331 57.8756 111.288 57.8756 111.271 57.867C110.282 57.5046 109.327 57.056 108.406 56.5212C105.624 54.8908 103.443 52.6651 101.871 49.8529C100.298 47.0406 99.512 43.9437 99.512 40.5621C99.512 35.3602 101.245 30.9952 104.711 27.4583C108.177 23.9214 112.514 22.153 117.73 22.153C122.465 22.153 126.438 23.723 129.634 26.8717L129.642 26.8631ZM111.779 47.0406C113.495 48.7659 115.617 49.6286 118.136 49.6286C120.655 49.6286 122.769 48.7659 124.494 47.0406C126.21 45.3153 127.072 43.1587 127.072 40.5534C127.072 37.9482 126.21 35.8088 124.494 34.118C122.777 32.4272 120.655 31.5818 118.136 31.5818C115.617 31.5818 113.503 32.4272 111.779 34.118C110.063 35.8088 109.2 37.9568 109.2 40.5534C109.2 43.15 110.054 45.3153 111.779 47.0406Z" fill="#A8692C"/>
<path d="M163.129 58.4104C157.794 58.4708 152.409 57.5392 146.956 55.5982L149.89 47.7998C154.336 49.4906 158.597 50.3101 162.689 50.2497C166.299 50.1893 168.108 49.2232 168.108 47.3512C168.108 46.5662 167.795 45.9796 167.178 45.5828C166.552 45.1946 165.47 44.8409 163.932 44.5389L158.775 43.452C151.724 42.0631 148.199 38.647 148.199 33.2036C148.199 29.8824 149.442 27.2341 151.927 25.2672C154.412 23.3003 157.794 22.291 162.055 22.2306C166.967 22.1703 171.743 22.9898 176.359 24.6806L173.781 32.479C169.875 31.2713 166.375 30.6933 163.298 30.7537C159.924 30.7537 158.234 31.6336 158.234 33.3848C158.234 33.9283 158.394 34.3855 158.724 34.7478C159.045 35.1101 159.553 35.412 160.237 35.6536C160.914 35.8951 161.852 36.1367 163.036 36.3782L167.212 37.284C170.94 38.0086 173.671 39.1732 175.387 40.7778C177.103 42.3823 177.965 44.5734 177.965 47.3512C177.965 49.042 177.627 50.5689 176.942 51.9319C176.258 53.2949 175.285 54.4595 174.009 55.4257C172.732 56.3918 171.177 57.1337 169.342 57.6513C167.508 58.1603 165.437 58.4191 163.12 58.4191L163.129 58.4104Z" fill="#A8692C"/>
<path d="M323.315 26.8372L325.623 23.0329H330.425V57.8497H305.004C305.004 57.8497 304.961 57.8497 304.944 57.8411C303.955 57.4788 303 57.0302 302.078 56.4954C299.297 54.8649 297.116 52.6393 295.543 49.827C293.971 47.0148 293.185 43.9178 293.185 40.5362C293.185 35.3344 294.918 30.9694 298.384 27.4325C301.85 23.8956 306.187 22.1271 311.403 22.1271C316.137 22.1271 320.111 23.6972 323.306 26.8459L323.315 26.8372ZM305.452 47.0148C307.168 48.7401 309.29 49.6027 311.809 49.6027C314.328 49.6027 316.442 48.7401 318.166 47.0148C319.883 45.2895 320.745 43.1328 320.745 40.5276C320.745 37.9224 319.883 35.783 318.166 34.0922C316.45 32.4014 314.328 31.556 311.809 31.556C309.29 31.556 307.176 32.4014 305.452 34.0922C303.735 35.783 302.873 37.931 302.873 40.5276C302.873 43.1242 303.727 45.2895 305.452 47.0148Z" fill="#A8692C"/>
<path d="M227.455 58.3932C222.12 58.4536 216.735 57.5219 211.282 55.5809L214.216 47.7825C218.663 49.4733 222.924 50.2929 227.015 50.2325C230.625 50.1721 232.434 49.2059 232.434 47.334C232.434 46.5489 232.122 45.9623 231.504 45.5655C230.879 45.1773 229.797 44.8236 228.258 44.5217L223.101 43.4347C216.051 42.0459 212.525 38.6298 212.525 33.1864C212.525 29.8652 213.768 27.2168 216.253 25.25C218.739 23.2831 222.121 22.2738 226.381 22.2134C231.293 22.153 236.07 22.9725 240.686 24.6633L238.107 32.4618C234.201 31.254 230.701 30.6761 227.624 30.7364C224.251 30.7364 222.56 31.6164 222.56 33.3675C222.56 33.911 222.721 34.3682 223.05 34.7305C223.372 35.0929 223.879 35.3948 224.564 35.6363C225.24 35.8779 226.178 36.1194 227.362 36.361L231.538 37.2668C235.266 37.9914 237.997 39.156 239.713 40.7605C241.429 42.3651 242.292 44.5562 242.292 47.334C242.292 49.0248 241.954 50.5517 241.269 51.9147C240.584 53.2777 239.612 54.4422 238.335 55.4084C237.059 56.3746 235.503 57.1165 233.669 57.6341C231.834 58.143 229.763 58.4018 227.447 58.4018L227.455 58.3932Z" fill="#A8692C"/>
<path d="M272.523 39.8979L289.583 57.8497H276.607L262.48 42.1666V57.8497H252.53V11.6976H262.573L262.48 37.8102L276.074 23.0329H288.873L272.523 39.8979Z" fill="#A8692C"/>
<path d="M338.279 32.1857V23.0243H362.305V32.1857H338.279Z" fill="#A8692C"/>
<path d="M352.447 32.1857V39.4407C352.447 43.1932 353.141 45.8071 354.536 47.2822C355.93 48.766 358.551 49.3871 362.398 49.1369V58.1172C355.406 58.5399 350.325 57.151 347.155 53.9505C343.985 50.7501 342.404 45.9106 342.404 39.4407V13.7853L352.447 11.6976V23.0329H362.313V32.1943H352.447V32.1857Z" fill="#A8692C"/>
<path d="M395.174 11.0593C393.957 12.267 392.452 12.8708 390.643 12.8708C388.833 12.8708 387.312 12.267 386.069 11.0593C384.826 9.85153 384.201 8.30738 384.201 6.43541C384.201 4.56345 384.826 3.0193 386.069 1.81158C387.312 0.603859 388.825 0 390.6 0C391.311 0 391.995 0.0862656 392.646 0.27605C393.297 0.457208 393.889 0.741884 394.422 1.13871C394.954 1.53553 395.411 1.98411 395.8 2.5017C396.18 3.0193 396.476 3.6059 396.687 4.27015C396.89 4.93439 397 5.65902 397 6.44404C397 8.316 396.391 9.86016 395.182 11.0679L395.174 11.0593Z" fill="#A8692C"/>
<path d="M382.907 57.8497H372.957V23.0329H382.992L382.907 57.8497Z" fill="#A8692C"/>
</g>
<defs>
<clipPath id="clip0_17_1274">
<rect width="397" height="76" fill="white"/>
</clipPath>
</defs>
</svg>
