<svg width="64" height="74" viewBox="0 0 64 74" fill="none" xmlns="http://www.w3.org/2000/svg">
<path d="M0.000131352 43.8054C-0.014314 48.0524 1.16298 52.2198 3.39478 55.8384C5.62658 59.4497 8.83345 62.3677 12.6398 64.2528L31.9965 73.9312L51.3533 64.2528C55.1596 62.3677 58.3665 59.4497 60.5983 55.8384C62.8301 52.2271 64.0074 48.0596 63.9929 43.8054V10.6606L32.0037 0L0.000131352 10.6751V43.8054ZM9.14402 17.2549L32.0037 9.63503L54.8635 17.2549V43.8054C54.8707 46.355 54.1701 48.8541 52.8267 51.0209C51.4905 53.1877 49.5693 54.9356 47.2869 56.0695L32.0037 63.7183L16.7206 56.0695C14.4382 54.9356 12.517 53.1877 11.1808 51.0209C9.84462 48.8541 9.1368 46.355 9.14402 43.8054V17.2549Z" fill="#A8692C"/>
<path d="M27.4316 51.6855H36.5754V41.4004H46.8605V32.2565H36.5754V21.9714H27.4316V32.2565H17.1465V41.4004H27.4316V51.6855Z" fill="#A8692C"/>
</svg>
