<svg width="1440" height="790" viewBox="0 0 1440 790" fill="none" xmlns="http://www.w3.org/2000/svg">
<g id="building selector">
<g id="apartments" style="mix-blend-mode:hard-light">
<path d="M972 382L913 373V363L929.5 354.5L930 180H937.5V166H960.5V155H988L990.5 154V138L1077 137L1106.5 140V167H1115V179.5H1121.5V207L1341 213L1347 223.5L1345.5 509.5L1033.5 458.5V424.5L991 417.5V400.5V398H989.5V400L972 397.5V382Z" fill="#99B3D2" fill-opacity="0.8"/>
</g>
<g id="lofts" style="mix-blend-mode:hard-light">
<path d="M972 382L913 373V366L899.5 364.5L896.5 366V371L838.5 400.5L731.5 385.5V372L709.5 369.5V344L661 338L658.5 339V345.5L470.5 399V407L431.5 418V431L262.5 484L229.5 475.5L148.5 499.5V550.5L250 588.5L196 610.5L195.5 686L341.5 756.5L477 675L480 676L552 629.5V561L468.5 537L519 512.5L914 614.5L1033.5 484V424.5L991 417.5V400.5V398H989.5V400L972 397.5V382Z" fill="#99B3D2" fill-opacity="0.8"/>
</g>
</g>
</svg>
