<svg width="64" height="60" viewBox="0 0 64 60" fill="none" xmlns="http://www.w3.org/2000/svg">
<path d="M11.9995 59.7503L11.9204 59.7504C8.83247 59.7295 5.87653 58.4941 3.69183 56.3089L3.69178 56.3088C1.48763 54.1054 0.25 51.1165 0.25 48.0006V8.00025C0.25 5.94454 1.06619 3.97334 2.51982 2.51984C3.97348 1.06632 5.94456 0.25 8.00025 0.25H52.3158L63.75 23.1199V47.9996C63.7385 51.7159 61.9688 55.2082 58.9785 57.4158C55.9881 59.6226 52.1298 60.2852 48.5747 59.2019C45.0189 58.118 42.1865 55.416 40.9352 51.9161L40.8759 51.7503H40.6998H23.3H23.1233L23.0643 51.9169C22.2549 54.2057 20.7564 56.1878 18.7757 57.59L18.9202 57.7941L18.7757 57.59C16.7943 58.9929 14.4269 59.7476 11.9995 59.7503ZM48.9946 51.0056L48.9948 51.0058C49.7922 51.8024 50.8728 52.2501 52.0001 52.2501C53.1274 52.2501 54.208 51.8024 55.0054 51.0058L55.0055 51.0056C55.8022 50.2082 56.2499 49.1276 56.2499 48.0003C56.2499 46.873 55.8022 45.7917 55.0055 44.9949L55.0054 44.9948C54.2081 44.1983 53.1275 43.7498 52.0001 43.7498C50.8726 43.7498 49.7921 44.1983 48.9948 44.9948L48.9947 44.9949C48.1979 45.7917 47.7503 46.8731 47.7503 48.0003C47.7503 49.1276 48.198 50.2082 48.9946 51.0056ZM42 7.74971H41.75V7.99971V21V21.25H42H53.9999H54.4036L54.2237 20.8886L47.754 7.88833L47.6851 7.74971H47.5302H42ZM25 7.74971H24.75V7.99971V21V21.25H25H33.9998H34.2498V21V7.99971V7.74971H33.9998H25ZM8.00007 7.74971H7.75007V7.99971V21V21.25H8.00007H16.9998H17.2498V21V7.99971V7.74971H16.9998H8.00007ZM8.00007 28.7497H7.75007V28.9997V31.9999L7.75043 36.7L7.75045 37.0552L8.0848 36.9353C11.0181 35.8836 14.2504 36.0475 17.0628 37.3895L17.1665 37.1723L17.0629 37.3895C19.8759 38.7315 22.036 41.1409 23.0646 44.0823L23.1231 44.2498H23.3006H40.7003H40.8778L40.9363 44.0823C41.9649 41.1409 44.125 38.7315 46.938 37.3895L46.8372 37.1781L46.9381 37.3895C49.7505 36.0475 52.983 35.8836 55.9161 36.9353L56.2505 37.0552V36.7V28.9997V28.7497H56.0005H8.00007ZM15.0051 44.9949L15.005 44.9949C14.2077 44.1983 13.1271 43.7498 11.9997 43.7498C10.8723 43.7498 9.79178 44.1983 8.99445 44.9949L8.99438 44.9949C8.19758 45.7917 7.74996 46.8731 7.74996 48.0003C7.74996 49.1276 8.19763 50.2082 8.99429 51.0056L8.99445 51.0058C9.79184 51.8024 10.8724 52.2501 11.9997 52.2501C13.1271 52.2501 14.2076 51.8024 15.005 51.0058L15.0052 51.0056C15.8019 50.2082 16.2495 49.1276 16.2495 48.0003C16.2495 46.8731 15.8019 45.7917 15.0051 44.9949Z" fill="#A8692C" stroke="white" stroke-width="0.5"/>
</svg>
