<svg width="64" height="60" viewBox="0 0 64 60" fill="none" xmlns="http://www.w3.org/2000/svg">
<path d="M11.3548 59.8688C13.8239 59.8659 16.2251 59.0588 18.1937 57.5684C20.1631 56.0779 21.5924 53.9869 22.2655 51.6116H41.7343C42.751 55.1419 45.4136 57.9623 48.8799 59.1805C52.3462 60.3981 56.1882 59.8638 59.1901 57.7462C62.1927 55.6287 63.9849 52.1884 64 48.5147C64 48.1641 64 47.8228 63.9482 47.4822H64V26.642C63.9993 24.0644 63.1223 21.5636 61.5123 19.5504L49.2904 4.26259C47.1355 1.569 43.8728 0 40.4233 0H8.25808C6.06771 0 3.96748 0.869806 2.41931 2.41857C0.870526 3.96735 0 6.06771 0 8.25735V47.4824H0.0518423C0.0518423 47.8229 0 48.1635 0 48.5149C0 51.5261 1.19669 54.4141 3.32583 56.544C5.45574 58.6732 8.34361 59.8688 11.3548 59.8688ZM57.8055 26.8372V38.4088C54.7806 36.8686 51.2259 36.7628 48.1153 38.1193C45.0041 39.4759 42.6633 42.1537 41.7337 45.4176H22.265C21.3354 42.1537 18.9946 39.476 15.8834 38.1193C12.7728 36.7628 9.21806 36.8686 6.19324 38.4088V26.8372H57.8055ZM11.3548 53.6754C9.98601 53.6754 8.67337 53.1318 7.70491 52.1633C6.73719 51.1956 6.19357 49.883 6.19357 48.5142C6.19357 47.1454 6.73719 45.8328 7.70491 44.8643C8.67336 43.8966 9.98597 43.353 11.3548 43.353C12.7236 43.353 14.0362 43.8966 15.0047 44.8643C15.9724 45.8327 16.516 47.1454 16.516 48.5142C16.516 49.883 15.9724 51.1956 15.0047 52.1633C14.0362 53.1318 12.7236 53.6754 11.3548 53.6754ZM52.6443 53.6754C51.2755 53.6754 49.9629 53.1318 48.9944 52.1633C48.0267 51.1956 47.4831 49.883 47.4831 48.5142C47.4831 47.1454 48.0267 45.8328 48.9944 44.8643C49.9628 43.8966 51.2755 43.353 52.6443 43.353C54.0131 43.353 55.3257 43.8966 56.2942 44.8643C57.2619 45.8327 57.8055 47.1454 57.8055 48.5142C57.8055 49.883 57.2619 51.1956 56.2942 52.1633C55.3257 53.1318 54.0131 53.6754 52.6443 53.6754ZM44.4481 8.13344L54.4608 20.6447H30.9664V6.19302H40.4219C41.9886 6.19518 43.4703 6.90944 44.4481 8.13344ZM8.25716 6.19302H24.7733V20.6447H6.19305V8.25731C6.19305 7.1175 7.11739 6.19302 8.25716 6.19302Z" fill="#A8692C"/>
</svg>
