<svg width="64" height="65" viewBox="0 0 64 65" fill="none" xmlns="http://www.w3.org/2000/svg">
<path d="M10.4776 53.5521L19.0842 62.1587C20.2946 63.3707 21.9374 64.052 23.6506 64.052C25.3638 64.052 27.0073 63.3707 28.2176 62.1587L30.369 60.0073C31.9261 58.4465 32.5797 56.199 32.1009 54.0476L30.7352 47.9151L36.5547 42.3102L43.6761 56.2418H43.6768C44.6171 58.0781 46.379 59.3538 48.4165 59.675C50.4545 59.9962 52.5228 59.3238 53.9832 57.8665L58.286 53.5637V53.5629C59.7846 52.0936 60.475 49.9864 60.1365 47.9153L56.3822 25.3235L60.8577 20.848L60.8569 20.8488C63.7055 17.6235 64.7029 13.1645 63.4984 9.03342C62.2947 4.90312 59.0575 1.67784 54.9226 0.488501C50.7878 -0.700161 46.3317 0.312904 43.117 3.17358L38.6415 7.6491L16.115 3.89398C14.0573 3.55255 11.9622 4.22568 10.4884 5.70175L6.18556 10.0046C4.70873 11.4806 4.03703 13.5803 4.38381 15.6394C4.72975 17.6986 6.05049 19.4628 7.92799 20.3753L21.1279 26.8305L15.824 33.2856L10.0037 31.9949L10.0045 31.9942C7.85228 31.5154 5.60559 32.169 4.04472 33.7261L1.89331 35.8775C0.681384 37.088 0 38.7313 0 40.4445C0 42.1577 0.681384 43.8004 1.89331 45.0109L10.4776 53.5521ZM8.5843 38.2331L18.2661 40.3845L31.3046 24.5597L10.7357 14.565L15.0385 10.2622L40.8577 14.565L47.6783 7.74441H47.679C48.8062 6.53999 50.3745 5.8436 52.0239 5.81584C53.6741 5.78883 55.2642 6.43193 56.4311 7.59882C57.5979 8.76572 58.2411 10.3559 58.214 12.006C58.1863 13.6554 57.4899 15.2237 56.2855 16.3508L49.4649 23.1714L53.7677 48.9906L49.4649 53.2934L38.3947 31.6487L23.6453 45.7634L25.7967 55.4452L23.6453 57.5966L6.43215 40.3834L8.5843 38.2331Z" fill="#A8692C"/>
</svg>
