<svg width="64" height="69" viewBox="0 0 64 69" fill="none" xmlns="http://www.w3.org/2000/svg">
<path d="M32.0026 6.85992C32.0972 6.85992 32.1866 6.88621 32.2655 6.93877L57.0085 24.9638C57.0926 25.0216 57.1452 25.1215 57.1452 25.2266V59.337C57.1452 59.9415 56.9034 60.525 56.4776 60.9561C56.0518 61.3819 55.4683 61.6237 54.8638 61.6237H9.14673C7.88513 61.6237 6.86009 60.5986 6.86009 59.337V25.2266C6.86009 25.1215 6.91265 25.0216 6.99676 24.9638L31.7398 6.93877C31.8186 6.88621 31.908 6.85992 32.0026 6.85992ZM32.0026 0C30.5518 0 29.1378 0.431045 27.934 1.23531L27.7079 1.39301L3.00697 19.3392C1.10406 20.6954 -0.0156056 22.8874 0.000164388 25.2266V59.337C0.000164388 61.7656 0.962131 64.089 2.6758 65.8027C4.38946 67.5164 6.71816 68.4783 9.14147 68.4783H54.8585C57.2818 68.4783 59.6105 67.5164 61.3242 65.8027C63.0379 64.089 63.9998 61.7603 63.9998 59.337V25.2266C64.0156 22.8927 62.8959 20.6954 60.993 19.3392L36.2973 1.39301L36.0713 1.23531C34.8675 0.431045 33.4482 0 32.0026 0V0Z" fill="#A8692C"/>
</svg>
