<svg width="64" height="64" viewBox="0 0 64 64" fill="none" xmlns="http://www.w3.org/2000/svg">
<path d="M50.4239 6.78767V0H44.6061V6.78767H34.9092V0H29.0907V6.78767H19.3938V0H13.576V6.78767C11.7755 6.78767 10.0493 7.5033 8.77623 8.77623C7.50323 10.0492 6.78767 11.7753 6.78767 13.576H0V19.3945H6.78767V29.0907H0V34.9092H6.78767V44.6061H0V50.4246H6.78767V50.424C6.78767 52.2245 7.5033 53.9507 8.77623 55.2238C10.0492 56.4968 11.7753 57.2123 13.576 57.2123V64H19.3945L19.3938 57.2123H29.0908V64H34.9092V57.2123H44.6062V64H50.4247L50.424 57.2123C52.2245 57.2123 53.9507 56.4967 55.2238 55.2238C56.4968 53.9508 57.2123 52.2246 57.2123 50.424H64V44.6062H57.2123V34.9093H64V29.0908H57.2123V19.3938H64V13.576H57.2123C57.2123 11.7755 56.4967 10.0493 55.2238 8.77624C53.9508 7.50325 52.2247 6.78768 50.424 6.78768L50.4239 6.78767ZM51.3939 29.0906V50.4238C51.3939 50.6815 51.2918 50.9277 51.1098 51.1096C50.9279 51.2916 50.6817 51.3937 50.424 51.3937H13.5757C13.04 51.3937 12.6057 50.9595 12.6057 50.4238V13.5755C12.6057 13.0398 13.04 12.6055 13.5757 12.6055H50.424C50.6817 12.6055 50.9279 12.7077 51.1098 12.8896C51.2918 13.0716 51.3939 13.3178 51.3939 13.5755V29.0906Z" fill="#A8692C"/>
<path d="M17.4545 26.5607V45.5753H46.5452V26.5607L31.9998 16.8638L17.4545 26.5607ZM40.7271 39.758H34.9093V32.9703H29.0908V39.758H23.273V29.6829L31.9998 23.8644L40.7267 29.6829L40.7271 39.758Z" fill="#A8692C"/>
</svg>
