<svg width="64" height="52" viewBox="0 0 64 52" fill="none" xmlns="http://www.w3.org/2000/svg">
<path d="M23.1779 51.1735V29.1675C23.1779 24.2845 27.0846 20.3779 31.9676 20.3779C36.8506 20.3779 40.7572 24.2845 40.7572 29.1675V51.1735H23.1779ZM31.9676 16.016C36.3946 16.016 39.9756 12.435 39.9756 8.00799C39.9756 3.58051 36.3946 0 31.9676 0C27.5405 0 23.9596 3.58051 23.9596 8.00799C23.9596 12.435 27.5405 16.016 31.9676 16.016ZM64 51.1735V38.8033C64 33.9203 60.0934 30.0137 55.2104 30.0137C50.3274 30.0137 46.4208 33.9203 46.4208 38.8033V51.1735H64ZM55.2108 25.6518C59.6379 25.6518 63.2188 22.0708 63.2188 17.6438C63.2188 13.2168 59.6379 9.63577 55.2108 9.63577C50.7838 9.63577 47.2029 13.2168 47.2029 17.6438C47.2024 22.0712 50.7834 25.6518 55.2108 25.6518ZM17.5792 51.1735V38.8033C17.5792 33.9203 13.6726 30.0137 8.78962 30.0137C3.90663 30.0137 0 33.9203 0 38.8033V51.1735H17.5792ZM16.7332 17.6437C16.7332 13.2166 13.1522 9.63566 8.72518 9.63566C4.2977 9.63566 0.782174 13.2815 0.782174 17.6437C0.782174 22.0058 4.36315 25.6516 8.79017 25.6516C13.2172 25.6516 16.7332 22.0711 16.7332 17.6437Z" fill="#A8692C"/>
</svg>
