<svg width="351" height="400" viewBox="0 0 351 400" fill="none" xmlns="http://www.w3.org/2000/svg">
<rect width="351" height="400" fill="#A8692C"/>
<path d="M238.788 275.645C239.8 272.883 240.108 269.947 239.712 267.054L239.536 265.915C238.788 260.83 242.22 256.053 247.324 255.22L248.116 255.133C258.104 253.73 265.1 244.482 263.648 234.533C263.472 233.437 263.252 232.341 262.9 231.289L257.972 216.519C256.74 212.837 257.928 208.805 260.92 206.307L267.212 201.091C275 194.56 276.012 183.033 269.456 175.276C268.796 174.487 268.004 173.742 267.212 173.04L260.128 167.167C257.356 164.932 256.124 161.338 256.96 157.875L260.568 141.659C262.68 131.797 256.388 122.067 246.488 119.963C245.872 119.832 245.3 119.744 244.684 119.656L230.912 118.122C228.844 117.859 226.952 116.983 225.412 115.58C223.916 114.134 222.948 112.293 222.64 110.233C220.924 100.284 211.464 93.6216 201.476 95.2871C200.552 95.4624 199.628 95.6815 198.748 95.9884L179.036 102.563C177.056 103.176 174.988 103.176 173.008 102.563L153.208 95.9884C143.748 92.745 133.408 97.7415 130.108 107.209C129.756 108.217 129.492 109.225 129.36 110.277C128.656 114.44 125.312 117.64 121.088 118.122L107.316 119.656C97.24 120.796 89.98 129.825 91.124 139.861C91.212 140.475 91.3 141.089 91.432 141.702L95.04 157.875C95.876 161.338 94.644 164.932 91.872 167.167L84.788 173.04C77 179.571 75.988 191.098 82.544 198.856C83.204 199.645 83.996 200.39 84.788 201.091L91.08 206.307C94.072 208.805 95.26 212.837 94.028 216.519L89.1 231.289C87.384 236.417 88 242.028 90.86 246.63C93.764 251.319 98.648 254.475 104.148 255.176H104.412C109.604 255.922 113.212 260.699 112.464 265.871L112.288 267.054C111.892 269.947 112.2 272.883 113.212 275.645C84.744 286.909 66.044 314.302 66 344.851V353.617C66 356.028 67.98 358 70.4 358H281.6C284.02 358 286 356.028 286 353.617V344.851C285.956 314.346 267.256 286.909 238.788 275.645ZM105.38 246.454H105.116C99.924 245.709 96.316 240.888 97.064 235.672C97.152 235.146 97.284 234.577 97.46 234.095L102.388 219.324C104.72 212.18 102.476 204.378 96.712 199.557L90.42 194.385C88.264 192.544 87.032 189.871 87.032 187.066C87.032 184.261 88.264 181.587 90.42 179.79L97.504 173.917C102.784 169.578 105.16 162.609 103.664 155.947L100.056 139.818C98.912 134.733 102.124 129.649 107.228 128.51C107.58 128.422 107.932 128.378 108.284 128.334L122.056 126.8C130.196 125.924 136.752 119.744 138.072 111.723C138.732 106.683 143.396 103.133 148.456 103.834C149.116 103.921 149.776 104.097 150.436 104.316L170.236 110.89C173.976 112.118 178.068 112.118 181.808 110.89L201.564 104.316C204.204 103.439 207.108 103.746 209.484 105.149C211.86 106.551 213.444 108.918 213.928 111.635C215.204 119.7 221.804 125.924 229.944 126.8L243.716 128.334C246.4 128.641 248.82 130.044 250.404 132.235C251.988 134.427 252.56 137.144 251.944 139.774L248.336 155.947C246.84 162.609 249.216 169.578 254.496 173.917L261.58 179.746C263.736 181.587 264.968 184.261 264.968 187.066C264.968 189.871 263.736 192.544 261.58 194.341L255.288 199.557C249.524 204.378 247.28 212.18 249.612 219.324L254.54 234.095C256.168 239.047 253.484 244.438 248.468 246.06C248.028 246.191 247.588 246.323 247.148 246.411L246.356 246.498C236.324 247.945 229.372 257.193 230.824 267.142L231 268.325C231.22 269.859 231 271.437 230.472 272.883C224.18 271.174 217.712 270.341 211.2 270.298H206.8C204.38 270.298 202.4 268.325 202.4 265.915V249.084C216.216 239.749 224.444 224.189 224.4 207.578V185.488C224.4 171.506 214.852 159.278 201.212 155.903C192.236 153.712 182.908 153.186 173.756 154.369C174.812 152.572 175.78 150.731 176.572 148.803C177.496 146.567 176.484 144.025 174.24 143.061C171.996 142.141 169.444 143.193 168.476 145.384C162.316 160.023 147.928 169.534 132 169.49H123.2C120.78 169.49 118.8 171.462 118.8 173.873C118.8 176.284 120.78 178.256 123.2 178.256H127.6V208.937C127.6 221.735 132.66 234.007 141.768 243.036C144.144 245.359 146.784 247.462 149.6 249.303V265.915C149.6 268.325 147.62 270.298 145.2 270.298H140.8C134.288 270.298 127.82 271.174 121.528 272.883C121 271.437 120.78 269.859 121 268.325L121.176 267.098C122.584 257.105 115.588 247.813 105.512 246.411C105.468 246.411 105.424 246.411 105.38 246.411V246.454ZM158.4 265.958V253.862C163.988 256.053 169.928 257.193 175.956 257.193C177.144 257.193 178.288 257.193 179.476 257.061C184.316 256.71 189.068 255.615 193.6 253.818V265.958C193.6 273.234 199.496 279.107 206.8 279.107L176 312.111L145.2 279.107C152.504 279.107 158.4 273.234 158.4 265.958ZM148.016 236.856C140.58 229.492 136.4 219.456 136.4 208.98V178.081C147.444 177.073 157.784 172.339 165.704 164.669L170.148 163.792C179.74 161.908 189.596 162.127 199.1 164.45C203.808 165.633 207.988 168.351 210.98 172.208C214.016 175.977 215.644 180.71 215.6 185.532V207.622C215.952 228.66 199.892 246.411 178.86 248.295C167.376 249.172 156.112 244.964 148.016 236.856ZM277.2 349.234H237.6V346.999C237.6 338.847 234.388 331.045 228.58 325.303L227.524 324.208C225.808 322.498 222.992 322.498 221.276 324.208C219.56 325.917 219.56 328.722 221.276 330.431L222.376 331.483C226.512 335.603 228.844 341.17 228.8 346.999V349.234H123.42C123.86 344.194 126.06 339.46 129.668 335.866L130.724 334.814C132.44 333.105 132.44 330.3 130.724 328.591C129.008 326.881 126.192 326.881 124.476 328.591L123.42 329.686C118.14 334.902 114.972 341.871 114.488 349.234H74.8V344.851C74.8 311.322 100.144 283.227 133.584 279.502L172.788 321.534C174.416 323.287 177.188 323.419 178.948 321.797C179.036 321.709 179.124 321.622 179.212 321.534L218.416 279.502C251.856 283.227 277.156 311.322 277.2 344.851V349.234ZM193.6 200.214C196.02 200.214 198 198.242 198 195.832V191.449C198 189.038 196.02 187.066 193.6 187.066C191.18 187.066 189.2 189.038 189.2 191.449V195.832C189.2 198.242 191.18 200.214 193.6 200.214ZM158.4 200.214C160.82 200.214 162.8 198.242 162.8 195.832V191.449C162.8 189.038 160.82 187.066 158.4 187.066C155.98 187.066 154 189.038 154 191.449V195.832C154 198.242 155.98 200.214 158.4 200.214ZM156.64 220.814C155.188 222.743 155.584 225.504 157.52 226.95C168.476 235.059 183.524 235.059 194.48 226.95C196.416 225.504 196.812 222.743 195.36 220.814C193.908 218.886 191.136 218.491 189.2 219.938C181.368 225.767 170.632 225.767 162.8 219.938C160.864 218.491 158.092 218.886 156.64 220.814Z" fill="white"/>
</svg>
