<svg width="32" height="39" viewBox="0 0 32 39" fill="none" xmlns="http://www.w3.org/2000/svg">
<path d="M25.2308 0H11.6923C7.95077 0 4.92308 3.02769 4.92308 6.76923V16.6154H8.61539V6.76923C8.61539 5.07077 9.99385 3.69231 11.6923 3.69231H13.8462L14.8738 5.74769C15.1877 6.37538 15.8215 6.76923 16.5231 6.76923H20.3938C21.0954 6.76923 21.7292 6.37538 22.0431 5.74769L23.0769 3.69231H25.2308C26.9292 3.69231 28.3077 5.07077 28.3077 6.76923V31.3846C28.3077 33.0831 26.9292 34.4615 25.2308 34.4615H8.92308C6.03692 34.4615 3.69231 32.1169 3.69231 29.2308C3.69231 26.3446 6.03692 24 8.92308 24H17.0831L13.3908 27.6923L16 30.3015L22.8431 23.4585C23.5631 22.7385 23.5631 21.5692 22.8431 20.8492L16 14.0062L13.3908 16.6154L17.0831 20.3077H8.92308C3.99385 20.3077 0 24.3015 0 29.2308C0 34.16 3.99385 38.1538 8.92308 38.1538H25.2308C28.9723 38.1538 32 35.1262 32 31.3846V6.76923C32 3.02769 28.9723 0 25.2308 0Z" fill="#A8692C"/>
</svg>
