<svg width="36" height="36" viewBox="0 0 36 36" fill="none" xmlns="http://www.w3.org/2000/svg">
<path d="M21 28.5H28.5V7.5H7.5V28.5H18V21H15V18H18V15.519C18 13.5135 18.21 12.786 18.6 12.0525C18.9842 11.3268 19.5779 10.7335 20.304 10.35C20.877 10.0425 21.5895 9.858 22.8345 9.7785C23.328 9.747 23.967 9.786 24.7515 9.8985V12.7485H24C22.6245 12.7485 22.056 12.813 21.717 12.9945C21.5147 13.0985 21.35 13.2632 21.246 13.4655C21.066 13.8045 21 14.1405 21 15.5175V18H24.75L24 21H21V28.5ZM6 4.5H30C30.3978 4.5 30.7794 4.65804 31.0607 4.93934C31.342 5.22064 31.5 5.60218 31.5 6V30C31.5 30.3978 31.342 30.7794 31.0607 31.0607C30.7794 31.342 30.3978 31.5 30 31.5H6C5.60218 31.5 5.22064 31.342 4.93934 31.0607C4.65804 30.7794 4.5 30.3978 4.5 30V6C4.5 5.60218 4.65804 5.22064 4.93934 4.93934C5.22064 4.65804 5.60218 4.5 6 4.5V4.5Z" fill="#A8692C"/>
</svg>
