<svg width="66" height="41" viewBox="0 0 66 41" fill="none" xmlns="http://www.w3.org/2000/svg">
<path d="M54.9754 40.2535C57.5677 40.2535 59.6749 38.1464 59.6749 35.5541L59.6749 29.6904L63.7213 29.6904C64.7012 29.6904 65.5 28.8916 65.5 27.9117L65.5 12.8418C65.5 11.8619 64.7012 11.0631 63.7213 11.0631L59.6881 11.0631L59.6881 5.19948C59.6881 2.60718 57.5809 0.5 54.9886 0.5L5.19948 0.499997C2.60718 0.499997 0.5 2.60718 0.5 5.19948L0.499998 35.5541C0.499998 38.1464 2.60718 40.2535 5.19948 40.2535L54.9754 40.2535ZM61.9393 14.6205L61.9393 26.1297L59.6881 26.1297L59.6881 14.6205L61.9393 14.6205ZM5.18626 36.6929C4.5564 36.6929 4.04744 36.1759 4.04744 35.5541L4.04744 5.19948C4.04744 4.56962 4.56437 4.06066 5.18626 4.06066L54.9754 4.06066C55.6053 4.06066 56.1142 4.57759 56.1142 5.19948L56.1142 35.5541C56.1142 36.1839 55.5973 36.6929 54.9754 36.6929L5.18626 36.6929Z" fill="#A8692C" stroke="#A8692C"/>
<path d="M29.9239 25.7428L29.7342 25.7428C26.8594 25.6425 24.5459 23.2696 24.5459 20.3682C24.5459 17.403 26.9587 14.9902 29.9239 14.9902L35.3018 14.9902L35.3018 25.7428L29.9239 25.7428ZM38.8592 27.5248L38.8592 25.745L43.3252 25.745C44.3051 25.745 45.1039 24.9462 45.1039 23.9663C45.1039 22.9864 44.3051 22.1877 43.3252 22.1877L38.8592 22.1877L38.8592 18.5421L43.3252 18.5421C44.3051 18.5421 45.1039 17.7434 45.1039 16.7634C45.1039 15.7835 44.3051 14.9848 43.3252 14.9848L38.8592 14.9848L38.8592 13.2049C38.8592 12.225 38.0604 11.4263 37.0805 11.4263L29.9239 11.4263C25.6073 11.4263 22.005 14.5086 21.1698 18.5829L16.8496 18.5829C15.8697 18.5829 15.0709 19.3817 15.0709 20.3616C15.0709 21.3415 15.8697 22.1403 16.8496 22.1403L21.1685 22.1403C21.992 26.2158 25.5958 29.2969 29.9239 29.2969L37.0762 29.2969C38.0637 29.3126 38.8592 28.5069 38.8592 27.5281L38.8592 27.5248Z" fill="#A8692C" stroke="#A8692C"/>
</svg>
