<svg width="66" height="42" viewBox="0 0 66 42" fill="none" xmlns="http://www.w3.org/2000/svg">
<path d="M53.3139 17.1986C52.4768 17.1986 51.6638 17.295 50.8681 17.4535L48.5399 9.89509L47.554 4.08675C47.253 2.30222 45.7101 1 43.8973 1H41.2612C40.7042 1 40.2407 1.45819 40.2407 2.01629C40.2407 2.57438 40.6904 3.03257 41.2612 3.03257H43.8973C44.7241 3.03257 45.4091 3.62167 45.5475 4.42092L46.3501 9.14063H28.0806L27.1258 5.60602H28.6272C29.1842 5.60602 29.6478 5.14783 29.6478 4.58973C29.6478 4.03163 29.1981 3.57344 28.6272 3.57344H22.9779C22.421 3.57344 21.9574 4.03163 21.9574 4.58973C21.9574 5.14783 22.4071 5.60602 22.9779 5.60602H25.0259L26.1295 9.69528L18.8474 18.9314C17.0554 17.8325 14.9658 17.1917 12.7137 17.1917C6.25492 17.1882 1 22.4213 1 28.86C1 35.2988 6.25492 40.5318 12.7206 40.5318C19.1864 40.5318 24.1507 35.5675 24.4171 29.363H26.8525C27.1847 31.1131 28.3643 32.5669 29.9522 33.2938L29.672 35.8362H27.752C27.195 35.8362 26.7315 36.2944 26.7315 36.8525C26.7315 37.4106 27.1812 37.8688 27.752 37.8688H30.5818C31.0973 37.8688 31.5366 37.4726 31.5885 36.9628L31.931 33.7692C32.0175 33.7692 32.104 33.7899 32.187 33.7899C35.2002 33.7899 37.6461 31.3439 37.6461 28.3536C37.6461 27.327 37.3451 26.3796 36.8435 25.5562L48.1109 15.4864L48.8928 18.0392C44.603 19.7686 41.5587 23.9646 41.5587 28.8566C41.5587 35.2954 46.8136 40.5284 53.2794 40.5284C59.7451 40.5284 65 35.2954 65 28.8566C65 22.4178 59.7797 17.2089 53.3139 17.2089V17.1986ZM26.7868 12.1481L29.8415 23.4892C28.309 24.2265 27.1708 25.6458 26.8387 27.3546H24.3202C23.9466 24.5021 22.5386 21.9734 20.4698 20.1475L26.7834 12.1516L26.7868 12.1481ZM22.2722 27.3511H14.8102L19.2279 21.746C20.8158 23.1895 21.9194 25.1532 22.2722 27.3511ZM12.7206 38.5199C7.3827 38.5199 3.03762 34.1964 3.03762 28.8773C3.03762 23.5581 7.37924 19.2346 12.7206 19.2346C14.5023 19.2346 16.1524 19.7272 17.5881 20.5575L11.9146 27.7542C11.6794 28.0642 11.624 28.4707 11.797 28.8221C11.9699 29.1735 12.3228 29.3871 12.7068 29.3871H22.3691C22.1131 34.4582 17.8891 38.5165 12.7206 38.5165V38.5199ZM32.2147 31.7814C30.3258 31.7814 28.7933 30.2656 28.7933 28.3846V28.3433C28.8037 26.4761 30.3362 24.9465 32.2147 24.9465C34.0932 24.9465 35.6361 26.4726 35.6361 28.3536C35.6361 30.2346 34.1036 31.7814 32.2147 31.7814ZM35.5047 24.0611C35.1829 23.8165 34.8301 23.5926 34.453 23.4203L34.7332 20.8262H36.6428C37.1998 20.8262 37.6634 20.368 37.6634 19.8099C37.6634 19.2518 37.2136 18.7936 36.6428 18.7936H33.813C33.2975 18.7936 32.8582 19.1898 32.8063 19.6997L32.4534 22.9449C32.3669 22.9449 32.2804 22.9242 32.1974 22.9242C32.059 22.9242 31.9414 22.9552 31.7996 22.9656L28.6169 11.1663H46.7929L47.4675 13.3539L35.5116 24.0542L35.5047 24.0611ZM53.3139 38.5199C47.976 38.5199 43.6309 34.1964 43.6309 28.8773C43.6309 24.8948 46.0664 21.4773 49.5293 20.0028L52.3488 29.1735C52.4871 29.6111 52.885 29.8901 53.3243 29.8901C53.4212 29.8901 53.5284 29.8798 53.6253 29.8488C54.1615 29.6868 54.4625 29.1219 54.2999 28.5775L51.4804 19.4068C52.0824 19.2897 52.6912 19.2243 53.3243 19.2243C58.6623 19.2243 63.0074 23.5478 63.0074 28.8669C63.0074 34.1861 58.6657 38.5199 53.3139 38.5199Z" fill="#A8692C" stroke="#A8692C" stroke-width="1.2" stroke-miterlimit="10"/>
</svg>
