<svg width="64" height="69" viewBox="0 0 64 69" fill="none" xmlns="http://www.w3.org/2000/svg">
<mask id="path-1-inside-1_202_607" fill="white">
<path d="M3.0968 43.3557C3.0968 45.5461 3.96734 47.6464 5.5154 49.1953C7.06419 50.7441 9.16458 51.6139 11.355 51.6139H52.6449C54.8353 51.6139 56.9355 50.744 58.4845 49.1953C60.0325 47.6465 60.903 45.5461 60.903 43.3557C60.9023 36.4067 58.3973 29.6893 53.8475 24.4361C49.2974 19.1827 43.0072 15.7446 36.1287 14.7516V8.25891H39.05C40.1012 8.27979 41.123 7.91042 41.918 7.22206C42.7129 6.53441 43.2248 5.57605 43.3552 4.53268C43.469 3.36982 43.0844 2.21271 42.2974 1.34875C41.5104 0.485424 40.3944 -0.00493022 39.2258 0.000839304H24.9503C23.8991 -0.0200416 22.8774 0.349334 22.0823 1.0377C21.2873 1.72606 20.7755 2.68371 20.6451 3.72707C20.5314 4.89065 20.9159 6.04705 21.7029 6.911C22.4899 7.77433 23.6059 8.26468 24.7746 8.25891H27.8715V14.7516C20.993 15.7445 14.7028 19.1827 10.1528 24.4361C5.60277 29.6887 3.09791 36.4061 3.09717 43.3557M32.0001 22.7107C37.4753 22.7107 42.7265 24.886 46.5981 28.7577C50.4698 32.6294 52.6451 37.8806 52.6451 43.3557H11.3552C11.3552 37.8806 13.5304 32.6294 17.4021 28.7577C21.2738 24.886 26.525 22.7107 32.0001 22.7107Z"/>
</mask>
<path d="M3.0968 43.3557C3.0968 45.5461 3.96734 47.6464 5.5154 49.1953C7.06419 50.7441 9.16458 51.6139 11.355 51.6139H52.6449C54.8353 51.6139 56.9355 50.744 58.4845 49.1953C60.0325 47.6465 60.903 45.5461 60.903 43.3557C60.9023 36.4067 58.3973 29.6893 53.8475 24.4361C49.2974 19.1827 43.0072 15.7446 36.1287 14.7516V8.25891H39.05C40.1012 8.27979 41.123 7.91042 41.918 7.22206C42.7129 6.53441 43.2248 5.57605 43.3552 4.53268C43.469 3.36982 43.0844 2.21271 42.2974 1.34875C41.5104 0.485424 40.3944 -0.00493022 39.2258 0.000839304H24.9503C23.8991 -0.0200416 22.8774 0.349334 22.0823 1.0377C21.2873 1.72606 20.7755 2.68371 20.6451 3.72707C20.5314 4.89065 20.9159 6.04705 21.7029 6.911C22.4899 7.77433 23.6059 8.26468 24.7746 8.25891H27.8715V14.7516C20.993 15.7445 14.7028 19.1827 10.1528 24.4361C5.60277 29.6887 3.09791 36.4061 3.09717 43.3557M32.0001 22.7107C37.4753 22.7107 42.7265 24.886 46.5981 28.7577C50.4698 32.6294 52.6451 37.8806 52.6451 43.3557H11.3552C11.3552 37.8806 13.5304 32.6294 17.4021 28.7577C21.2738 24.886 26.525 22.7107 32.0001 22.7107Z" fill="#A8692C"/>
<path d="M5.5154 49.1953L4.45444 50.2556L4.45474 50.2559L5.5154 49.1953ZM58.4845 49.1953L59.5451 50.256L59.5454 50.2557L58.4845 49.1953ZM60.903 43.3557H62.403V43.3555L60.903 43.3557ZM53.8475 24.4361L54.9813 23.454L54.9813 23.454L53.8475 24.4361ZM36.1287 14.7516H34.6287V16.0506L35.9144 16.2362L36.1287 14.7516ZM36.1287 8.25891V6.75891H34.6287V8.25891H36.1287ZM39.05 8.25891L39.0798 6.75921L39.0649 6.75891H39.05V8.25891ZM41.918 7.22206L40.9366 6.08761L40.9361 6.08806L41.918 7.22206ZM43.3552 4.53268L44.8436 4.71862L44.8461 4.69871L44.8481 4.67873L43.3552 4.53268ZM42.2974 1.34875L43.4063 0.338631L43.406 0.33823L42.2974 1.34875ZM39.2258 0.000839304V1.50086L39.2332 1.50082L39.2258 0.000839304ZM24.9503 0.000839304L24.9205 1.50054L24.9354 1.50084H24.9503V0.000839304ZM20.6451 3.72707L19.1567 3.54113L19.1542 3.56109L19.1523 3.58111L20.6451 3.72707ZM21.7029 6.911L20.594 7.92112L20.5944 7.92152L21.7029 6.911ZM24.7746 8.25891V6.7589L24.7672 6.75893L24.7746 8.25891ZM27.8715 8.25891H29.3715V6.75891H27.8715V8.25891ZM27.8715 14.7516L28.0858 16.2362L29.3715 16.0506V14.7516H27.8715ZM10.1528 24.4361L11.2865 25.4182L11.2866 25.4181L10.1528 24.4361ZM52.6451 43.3557V44.8557H54.1451V43.3557H52.6451ZM11.3552 43.3557H9.85515V44.8557H11.3552V43.3557ZM1.5968 43.3557C1.5968 45.9442 2.62553 48.4257 4.45444 50.2556L6.57635 48.1349C5.30915 46.867 4.5968 45.148 4.5968 43.3557H1.5968ZM4.45474 50.2559C6.28491 52.0861 8.76686 53.1139 11.355 53.1139V50.1139C9.5623 50.1139 7.84347 49.402 6.57606 48.1346L4.45474 50.2559ZM11.355 53.1139H52.6449V50.1139H11.355V53.1139ZM52.6449 53.1139C55.233 53.1139 57.7148 52.0861 59.5451 50.256L57.4238 48.1346C56.1562 49.402 54.4375 50.1139 52.6449 50.1139V53.1139ZM59.5454 50.2557C61.3744 48.4258 62.403 45.9441 62.403 43.3557H59.403C59.403 45.1481 58.6907 46.8671 57.4235 48.1349L59.5454 50.2557ZM62.403 43.3555C62.4023 36.0458 59.7672 28.9799 54.9813 23.454L52.7136 25.4181C57.0273 30.3987 59.4024 36.7675 59.403 43.3559L62.403 43.3555ZM54.9813 23.454C50.1952 17.928 43.5785 14.3115 36.3431 13.267L35.9144 16.2362C42.4359 17.1776 48.3997 20.4373 52.7136 25.4181L54.9813 23.454ZM37.6287 14.7516V8.25891H34.6287V14.7516H37.6287ZM36.1287 9.75891H39.05V6.75891H36.1287V9.75891ZM39.0202 9.75862C40.4423 9.78687 41.8245 9.28717 42.8998 8.35605L40.9361 6.08806C40.4215 6.53367 39.7601 6.77272 39.0798 6.75921L39.0202 9.75862ZM42.8993 8.3565C43.9751 7.42594 44.6674 6.12951 44.8436 4.71862L41.8668 4.34674C41.7823 5.02258 41.4507 5.64289 40.9366 6.08761L42.8993 8.3565ZM44.8481 4.67873C45.0032 3.09326 44.4789 1.51612 43.4063 0.338631L41.1885 2.35887C41.6899 2.90929 41.9347 3.64638 41.8623 4.38663L44.8481 4.67873ZM43.406 0.33823C42.3335 -0.838312 40.8122 -1.50701 39.2184 -1.49914L39.2332 1.50082C39.9767 1.49715 40.6874 1.80916 41.1889 2.35927L43.406 0.33823ZM39.2258 -1.49916H24.9503V1.50084H39.2258V-1.49916ZM24.9801 -1.49886C23.558 -1.52711 22.1759 -1.02741 21.1005 -0.096298L23.0642 2.17169C23.5789 1.72608 24.2402 1.48703 24.9205 1.50054L24.9801 -1.49886ZM21.1005 -0.096298C20.0254 0.834542 19.333 2.12985 19.1567 3.54113L22.1336 3.91301C22.218 3.23756 22.5492 2.61757 23.0642 2.17169L21.1005 -0.096298ZM19.1523 3.58111C18.9972 5.16731 19.5214 6.74369 20.594 7.92112L22.8118 5.90088C22.3103 5.35041 22.0656 4.61399 22.138 3.87303L19.1523 3.58111ZM20.5944 7.92152C21.6669 9.09807 23.1882 9.76676 24.782 9.75889L24.7672 6.75893C24.0236 6.7626 23.3129 6.45059 22.8114 5.90048L20.5944 7.92152ZM24.7746 9.75891H27.8715V6.75891H24.7746V9.75891ZM26.3715 8.25891V14.7516H29.3715V8.25891H26.3715ZM27.6572 13.267C20.4217 14.3114 13.805 17.928 9.01892 23.454L11.2866 25.4181C15.6005 20.4373 21.5643 17.1776 28.0858 16.2362L27.6572 13.267ZM9.01899 23.454C4.23278 28.9793 1.59795 36.0453 1.59717 43.3555L4.59717 43.3559C4.59787 36.7669 6.97276 30.3982 11.2865 25.4182L9.01899 23.454ZM32.0001 24.2107C37.0774 24.2107 41.9471 26.228 45.5375 29.8184L47.6588 27.697C43.5058 23.5441 37.8731 21.2107 32.0001 21.2107V24.2107ZM45.5375 29.8184C49.1278 33.4087 51.1451 38.2784 51.1451 43.3557H54.1451C54.1451 37.4827 51.8117 31.85 47.6588 27.697L45.5375 29.8184ZM52.6451 41.8557H11.3552V44.8557H52.6451V41.8557ZM12.8552 43.3557C12.8552 38.2784 14.8724 33.4087 18.4628 29.8184L16.3414 27.697C12.1885 31.85 9.85515 37.4827 9.85515 43.3557H12.8552ZM18.4628 29.8184C22.0531 26.228 26.9228 24.2107 32.0001 24.2107V21.2107C26.1271 21.2107 20.4944 23.5441 16.3414 27.697L18.4628 29.8184Z" fill="white" mask="url(#path-1-inside-1_202_607)"/>
<mask id="path-3-inside-2_202_607" fill="white">
<path d="M0 64.0006C0 65.0958 0.435627 66.1464 1.20967 66.9204C1.9837 67.6951 3.03424 68.1301 4.12945 68.1301H59.8708C61.3462 68.1301 62.7091 67.3431 63.4465 66.0657C64.1845 64.7877 64.1845 63.2136 63.4465 61.9364C62.7091 60.659 61.346 59.8721 59.8708 59.8721H4.12945C3.03428 59.8721 1.98367 60.307 1.20967 61.0817C0.435627 61.8558 0 62.9063 0 64.0008"/>
</mask>
<path d="M0 64.0006C0 65.0958 0.435627 66.1464 1.20967 66.9204C1.9837 67.6951 3.03424 68.1301 4.12945 68.1301H59.8708C61.3462 68.1301 62.7091 67.3431 63.4465 66.0657C64.1845 64.7877 64.1845 63.2136 63.4465 61.9364C62.7091 60.659 61.346 59.8721 59.8708 59.8721H4.12945C3.03428 59.8721 1.98367 60.307 1.20967 61.0817C0.435627 61.8558 0 62.9063 0 64.0008" fill="#A8692C"/>
<path d="M1.20967 66.9204L2.27082 65.8602L2.2703 65.8597L1.20967 66.9204ZM63.4465 66.0657L62.1475 65.3156L62.1474 65.3158L63.4465 66.0657ZM63.4465 61.9364L62.1474 62.6863L62.1477 62.6869L63.4465 61.9364ZM1.20967 61.0817L2.27033 62.1424L2.27084 62.1419L1.20967 61.0817ZM-1.5 64.0006C-1.5 65.4939 -0.906115 66.926 0.14903 67.9811L2.2703 65.8597C1.77737 65.3668 1.5 64.6976 1.5 64.0006H-1.5ZM0.148513 67.9806C1.20425 69.0373 2.63667 69.6301 4.12945 69.6301V66.6301C3.43181 66.6301 2.76316 66.353 2.27082 65.8602L0.148513 67.9806ZM4.12945 69.6301H59.8708V66.6301H4.12945V69.6301ZM59.8708 69.6301C61.882 69.6301 63.7403 68.5572 64.7456 66.8156L62.1474 65.3158C61.678 66.1289 60.8103 66.6301 59.8708 66.6301V69.6301ZM64.7454 66.8158C65.7514 65.0738 65.7517 62.9276 64.7452 61.1859L62.1477 62.6869C62.6173 63.4996 62.6176 64.5016 62.1475 65.3156L64.7454 66.8158ZM64.7456 61.1865C63.7403 59.4449 61.8818 58.3721 59.8708 58.3721V61.3721C60.8102 61.3721 61.678 61.8732 62.1474 62.6863L64.7456 61.1865ZM59.8708 58.3721H4.12945V61.3721H59.8708V58.3721ZM4.12945 58.3721C2.63673 58.3721 1.20422 58.9648 0.148488 60.0216L2.27084 62.1419C2.76312 61.6491 3.43182 61.3721 4.12945 61.3721V58.3721ZM0.149005 60.0211C-0.905996 61.0761 -1.5 62.508 -1.5 64.0008H1.5C1.5 63.3046 1.77725 62.6355 2.27033 62.1424L0.149005 60.0211Z" fill="white" mask="url(#path-3-inside-2_202_607)"/>
</svg>
