<svg width="66" height="66" viewBox="0 0 66 66" fill="none" xmlns="http://www.w3.org/2000/svg">
<path d="M19.2399 20.5763C18.8654 20.5763 18.5197 20.3781 18.3252 20.0573C18.1344 19.7366 18.1236 19.3366 18.3 19.0087C19.1895 17.3437 20.5112 15.9527 22.1317 14.9833C23.7486 14.0139 25.5996 13.5022 27.4866 13.5022C28.639 13.5022 29.7806 13.6896 30.8717 14.0536C31.4299 14.241 31.7324 14.8428 31.5487 15.405C31.3615 15.9635 30.7601 16.2662 30.1983 16.0788C29.3268 15.7869 28.4085 15.6356 27.4902 15.632C25.9885 15.632 24.5192 16.0392 23.23 16.8104C21.9444 17.5816 20.8893 18.6879 20.1834 20.0141C19.9962 20.36 19.6361 20.5763 19.2435 20.5727L19.2399 20.5763Z" fill="#A8692C" stroke="#A8692C" stroke-width="1.3" stroke-miterlimit="10"/>
<path d="M7.41372 28.5258C6.97078 28.5258 6.57465 28.2519 6.41619 27.8375C2.99148 18.767 3.3624 11.7434 7.3597 9.95595C10.9645 8.33068 15.8657 11.7758 20.1511 18.9616C21.1198 20.5977 21.9949 22.2878 22.7727 24.0248C23.2373 25.0627 23.6622 26.0861 24.0439 27.0771C24.1484 27.3402 24.1411 27.6357 24.0295 27.8952C23.9143 28.1546 23.7018 28.3564 23.4353 28.461C23.1724 28.5655 22.8771 28.5547 22.6179 28.4393C22.3586 28.324 22.1569 28.1078 22.0561 27.8411C21.6888 26.8825 21.2746 25.8951 20.8317 24.8969C20.0862 23.2356 19.2508 21.6175 18.3253 20.0499C14.8105 14.1507 10.6548 10.8028 8.23839 11.8947C5.87242 12.9542 5.17739 18.5111 8.41484 27.0771C8.53728 27.4051 8.49407 27.7726 8.2924 28.0609C8.09434 28.3492 7.76663 28.5222 7.41372 28.5222H7.41732L7.41372 28.5258Z" fill="#A8692C" stroke="#A8692C" stroke-width="1.3" stroke-miterlimit="10"/>
<path d="M58.8852 28.5258C58.7555 28.5258 58.6259 28.5006 58.5071 28.4573C57.9561 28.2483 57.6824 27.6321 57.8912 27.0807C59.4722 22.922 59.0724 19.1057 56.9189 17.8084C55.9682 17.3111 54.8555 17.2102 53.8291 17.5309C52.6515 17.8372 51.4091 17.7543 50.282 17.2931C49.1584 16.8354 48.2149 16.0246 47.5919 14.9867C47.0769 14.0389 46.2055 13.3362 45.1719 13.0335C42.2874 12.356 38.8555 15.8191 37.3142 20.9364C37.3142 20.958 37.307 20.976 37.2998 20.9941C37.2097 21.322 37.1161 21.6535 37.0333 22.0031C36.7092 23.3473 36.5471 24.7275 36.5399 26.1113C36.5399 26.5438 36.5615 26.9762 36.5903 27.3906C36.6191 27.6753 36.5291 27.96 36.3454 28.1798C36.1618 28.3997 35.8953 28.5366 35.6072 28.5582C35.3227 28.5799 35.0382 28.4826 34.8222 28.2952C34.6061 28.1042 34.4764 27.8339 34.462 27.5492C34.426 27.0879 34.4044 26.6014 34.4044 26.1185C34.4116 24.5725 34.5953 23.0302 34.9554 21.5238C35.0382 21.167 35.1319 20.8211 35.2291 20.4859C35.2363 20.4571 35.2399 20.4283 35.2507 20.3995C37.1341 14.0605 41.6176 10.0064 45.6581 10.9686C47.257 11.3902 48.6146 12.4461 49.4105 13.8948C49.7958 14.5434 50.3828 15.048 51.085 15.3362C51.7837 15.6209 52.5579 15.6714 53.2889 15.484C54.8699 15.0011 56.5804 15.1885 58.0173 15.9993C61.1143 17.866 61.8597 22.6337 59.8791 27.8555C59.7206 28.2699 59.3209 28.5402 58.878 28.5402L58.8852 28.5258Z" fill="#A8692C" stroke="#A8692C" stroke-width="1.3" stroke-miterlimit="10"/>
<path d="M50.6887 17.3764C50.6275 17.3764 50.5699 17.3728 50.5087 17.3619C50.2314 17.3151 49.9829 17.1565 49.8172 16.9295C49.6516 16.7025 49.5868 16.4142 49.6372 16.1331C50.0297 13.8303 52.1328 9.59597 57.1996 9.9131C57.7866 9.95274 58.2332 10.4609 58.1936 11.0519C58.1539 11.6393 57.6462 12.0861 57.0556 12.0465C52.6009 11.7005 51.7655 16.3025 51.7295 16.4971C51.643 17.0052 51.2037 17.3764 50.6887 17.38V17.3764Z" fill="#A8692C" stroke="#A8692C" stroke-width="1.3" stroke-miterlimit="10"/>
<path d="M53.5663 12.5363C53.4835 12.5363 53.4007 12.5291 53.3214 12.5075C50.2496 11.7831 48.1681 10.3597 47.131 8.26953C46.2235 6.15055 46.2163 3.75409 47.1094 1.63151C47.2282 1.36484 47.4479 1.15942 47.7216 1.06212C47.9953 0.964825 48.2978 0.982843 48.5571 1.10897C57.1567 5.37215 54.5746 11.8156 54.5494 11.8768C54.3874 12.2732 53.9984 12.5363 53.5663 12.5363ZM48.7191 3.62436C48.4094 4.86403 48.5247 6.17217 49.0468 7.33977C49.8607 8.74882 51.2147 9.76146 52.7921 10.1507C52.9577 8.74882 52.6732 5.99199 48.7191 3.62796V3.62436Z" fill="#A8692C" stroke="#A8692C" stroke-width="1.3" stroke-miterlimit="10" stroke-linejoin="round"/>
<path d="M62.1551 37.0125H3.84492C2.27481 37.0125 1.0036 35.7368 1 34.1692V29.2429C1 27.6717 2.27481 26.3996 3.84492 26.396H30.526C31.113 26.396 31.5919 26.8717 31.5919 27.4627C31.5919 28.0537 31.113 28.5294 30.526 28.5294H3.84492C3.4524 28.5294 3.13189 28.8501 3.13189 29.2429V34.1692C3.13189 34.562 3.4524 34.8827 3.84492 34.8827H62.1551C62.5476 34.8827 62.8681 34.5656 62.8681 34.1692V29.2429C62.8681 28.8501 62.5476 28.5294 62.1551 28.5294H35.474C34.887 28.5294 34.4081 28.0501 34.4081 27.4627C34.4081 26.8753 34.8834 26.396 35.474 26.396H62.1551C63.7252 26.396 64.9964 27.6717 65 29.2429V34.1692C65 35.7404 63.7252 37.0125 62.1551 37.0125Z" fill="#A8692C" stroke="#A8692C" stroke-width="1.3" stroke-miterlimit="10"/>
<path d="M51.8881 65.0099H14.1118C13.0423 65.0099 12.0087 64.6351 11.1913 63.9468C10.3738 63.2585 9.82284 62.3035 9.63918 61.2512L5.20974 36.1262C5.15572 35.8163 5.24215 35.4992 5.44381 35.2577C5.64548 35.0163 5.94437 34.8757 6.26128 34.8757H59.7495C60.0628 34.8757 60.3616 35.0163 60.5669 35.2577C60.7686 35.4992 60.855 35.8163 60.801 36.1262L56.3752 61.2512C56.1915 62.3035 55.6405 63.2585 54.8195 63.9468C54.002 64.6351 52.9648 65.0099 51.8953 65.0099H51.8881ZM7.52529 37.0091L11.7315 60.88C11.9367 62.0368 12.9378 62.8801 14.1118 62.8801H51.8881C53.0621 62.8801 54.0668 62.0404 54.2685 60.8836L58.4746 37.0127H7.52529V37.0091Z" fill="#A8692C" stroke="#A8692C" stroke-width="1.3" stroke-miterlimit="10"/>
<path d="M33 33.6718C32.0637 33.6718 31.1634 33.297 30.5008 32.634C29.8382 31.9709 29.4636 31.07 29.4636 30.133V8.05311C29.4528 7.1594 29.7697 6.29451 30.3531 5.61701C30.9365 4.93952 31.7504 4.50347 32.6363 4.38815C33.6338 4.28364 34.6241 4.60798 35.3696 5.27826C36.115 5.94855 36.5363 6.90353 36.5399 7.90536V30.1258C36.5399 31.0627 36.1654 31.9637 35.5028 32.6268C34.8402 33.2898 33.9399 33.6646 33.0036 33.6646L33 33.6718ZM33 6.50713C32.9496 6.50713 32.8992 6.51073 32.8487 6.51433C32.0997 6.63686 31.5631 7.29994 31.5919 8.05672V30.133C31.5919 30.9114 32.2221 31.5384 32.9964 31.5384C33.7706 31.5384 34.4008 30.9078 34.4008 30.133V7.91257C34.4008 7.51616 34.2316 7.13417 33.9363 6.8675C33.677 6.63326 33.3421 6.50352 32.9964 6.50352L33 6.50713Z" fill="#A8692C" stroke="#A8692C" stroke-width="1.3" stroke-miterlimit="10"/>
<path d="M21.4582 57.6797C20.8712 57.6797 20.3922 57.204 20.3922 56.613V44.2415C20.3922 43.6541 20.8676 43.1748 21.4582 43.1748C22.0487 43.1748 22.5241 43.6505 22.5241 44.2415V56.613C22.5241 56.8941 22.4125 57.168 22.2108 57.3662C22.0127 57.5644 21.739 57.6797 21.4582 57.6797Z" fill="#A8692C" stroke="#A8692C" stroke-width="1.3" stroke-miterlimit="10"/>
<path d="M29.154 57.6797C28.567 57.6797 28.088 57.204 28.088 56.613V44.2415C28.088 43.6541 28.5634 43.1748 29.154 43.1748C29.7446 43.1748 30.2199 43.6505 30.2199 44.2415V56.613C30.2199 56.8941 30.1083 57.168 29.9066 57.3662C29.7085 57.5644 29.4349 57.6797 29.154 57.6797Z" fill="#A8692C" stroke="#A8692C" stroke-width="1.3" stroke-miterlimit="10"/>
<path d="M36.846 57.6797C36.259 57.6797 35.78 57.204 35.78 56.613V44.2415C35.78 43.6541 36.259 43.1748 36.846 43.1748C37.433 43.1748 37.9119 43.6505 37.9119 44.2415V56.613C37.9119 56.8941 37.8003 57.168 37.5986 57.3662C37.4006 57.5644 37.1269 57.6797 36.846 57.6797Z" fill="#A8692C" stroke="#A8692C" stroke-width="1.3" stroke-miterlimit="10"/>
<path d="M44.5418 57.6797C43.9548 57.6797 43.4758 57.204 43.4758 56.613V44.2415C43.4758 43.6541 43.9548 43.1748 44.5418 43.1748C45.1288 43.1748 45.6077 43.6505 45.6077 44.2415V56.613C45.6077 56.8941 45.4961 57.168 45.2944 57.3662C45.0964 57.5644 44.8227 57.6797 44.5418 57.6797Z" fill="#A8692C" stroke="#A8692C" stroke-width="1.3" stroke-miterlimit="10"/>
</svg>
