<svg width="226" height="198" viewBox="0 0 226 198" fill="none" xmlns="http://www.w3.org/2000/svg">
<path d="M203.797 122.691L203.455 123.407H204.248H222.561C224.181 123.407 225.487 124.711 225.487 126.323C225.487 127.935 224.181 129.239 222.561 129.239H3.42652C1.80598 129.239 0.5 127.935 0.5 126.323C0.5 124.711 1.80598 123.407 3.42652 123.407H117.619H118.41L118.07 122.692C115.09 116.427 113.5 109.543 113.5 102.422C113.5 76.2967 134.737 55.1336 160.934 55.1336C187.13 55.1336 208.367 76.3092 208.367 102.422C208.367 109.543 206.79 116.427 203.797 122.691ZM196.542 123.407H196.83L196.974 123.158C200.596 116.913 202.539 109.819 202.539 102.422C202.539 79.5206 183.914 60.9535 160.946 60.9535C137.979 60.9535 119.353 79.5206 119.353 102.422C119.353 109.819 121.297 116.913 124.918 123.158L125.062 123.407H125.351H196.542ZM112.6 7.12021L112.999 7.65101L113.399 7.12098C116.434 3.0993 121.259 0.5 126.706 0.5H130.133C131.753 0.5 133.059 1.80421 133.059 3.41617C133.059 5.02812 131.753 6.33233 130.133 6.33233H126.706C120.758 6.33233 115.939 11.1351 115.939 17.0808C115.939 18.6928 114.633 19.997 113.013 19.997C111.392 19.997 110.086 18.6928 110.086 17.0808C110.086 11.148 105.268 6.33233 99.319 6.33233H95.8925C94.2719 6.33233 92.966 5.02813 92.966 3.41617C92.966 1.80301 94.2731 0.5 95.8799 0.5H99.3065C104.742 0.5 109.579 3.09956 112.6 7.12021ZM68.0937 68.5744L68.4928 69.1034L68.892 68.5744C71.9266 64.5526 76.7516 61.9535 82.1864 61.9535H85.6129C87.2335 61.9535 88.5394 63.2577 88.5394 64.8696C88.5394 66.4816 87.2335 67.7858 85.6129 67.7858H82.1864C76.2381 67.7858 71.4194 72.5885 71.4194 78.5343C71.4194 80.1462 70.1134 81.4505 68.4928 81.4505C66.8723 81.4505 65.5663 80.1462 65.5663 78.5343C65.5663 72.6014 60.748 67.7858 54.7993 67.7858H51.3728C49.7522 67.7858 48.4462 66.4816 48.4462 64.8696C48.4462 63.2577 49.7522 61.9535 51.3728 61.9535H54.7993C60.234 61.9535 65.059 64.5526 68.0937 68.5744ZM20.1475 24.1893L20.5466 24.7183L20.9457 24.1893C23.9804 20.1675 28.8054 17.5683 34.2401 17.5683H34.2527H37.6792C39.2998 17.5683 40.6057 18.8725 40.6057 20.4845C40.6057 22.0964 39.2998 23.4007 37.6792 23.4007H34.2527C28.3048 23.4007 23.4857 28.203 23.4857 34.1366C23.4857 35.7486 22.1797 37.0528 20.5591 37.0528C18.9386 37.0528 17.6326 35.7486 17.6326 34.1366C17.6326 28.203 12.8135 23.4007 6.8656 23.4007H3.42652C1.81853 23.4007 0.5 22.0839 0.5 20.4845C0.5 18.8838 1.80717 17.5683 3.42652 17.5683H6.85305C12.2878 17.5683 17.1128 20.1675 20.1475 24.1893ZM27.3996 163.363C25.7791 163.363 24.4731 162.059 24.4731 160.447C24.4731 158.835 25.7791 157.531 27.3996 157.531H47.9462C49.5668 157.531 50.8728 158.835 50.8728 160.447C50.8728 162.059 49.5668 163.363 47.9462 163.363H27.3996ZM65.0663 197.5C63.4458 197.5 62.1398 196.196 62.1398 194.584C62.1398 192.972 63.4458 191.668 65.0663 191.668H85.6129C87.2335 191.668 88.5394 192.972 88.5394 194.584C88.5394 196.196 87.2335 197.5 85.6129 197.5H65.0663ZM102.733 163.363C101.112 163.363 99.8065 162.059 99.8065 160.447C99.8065 158.835 101.112 157.531 102.733 157.531H123.28C124.9 157.531 126.206 158.835 126.206 160.447C126.206 162.059 124.9 163.363 123.28 163.363H102.733ZM140.4 197.5C138.779 197.5 137.473 196.196 137.473 194.584C137.473 192.972 138.779 191.668 140.4 191.668H160.946C162.567 191.668 163.873 192.972 163.873 194.584C163.873 196.196 162.567 197.5 160.946 197.5H140.4ZM178.066 163.363C176.446 163.363 175.14 162.059 175.14 160.447C175.14 158.835 176.446 157.531 178.066 157.531H198.613C200.233 157.531 201.539 158.835 201.539 160.447C201.539 162.059 200.233 163.363 198.613 163.363H178.066Z" fill="#A8692C" stroke="#A8692C"/>
</svg>
