<svg width="64" height="60" viewBox="0 0 64 60" fill="none" xmlns="http://www.w3.org/2000/svg">
<path d="M50.5878 33.0283C47.0847 33.0283 43.7251 34.3917 41.2135 36.8315C38.7085 39.2712 37.2473 42.5982 37.156 46.0948C37.0646 49.5914 38.3432 52.9901 40.7178 55.5603C43.0923 58.1306 46.3801 59.6701 49.8767 59.8528C53.3733 60.0354 56.7981 58.8416 59.4271 56.5323C62.056 54.223 63.6803 50.9743 63.9478 47.4843H64V8.2587C64 6.06682 63.1324 3.96627 61.5798 2.4202C60.0337 0.874144 57.9332 0 55.7413 0H26.8424C24.6505 0 22.5499 0.867621 21.0039 2.4202C19.4578 3.96627 18.5837 6.06682 18.5837 8.2587V34.0655C15.0153 32.5782 10.9773 32.7021 7.50681 34.4047C4.03633 36.1074 1.46608 39.2256 0.46147 42.957C-0.543143 46.6884 0.109203 50.6743 2.25542 53.8903C4.40164 57.1064 7.82646 59.2461 11.6623 59.7484C15.4915 60.2572 19.3599 59.083 22.2694 56.5389C25.1789 53.9882 26.8424 50.3155 26.8424 46.4471C26.8424 46.0948 26.8424 45.7556 26.7902 45.4164H26.8424V24.7696H55.7478V34.059C54.1104 33.374 52.3556 33.0218 50.5878 33.0283ZM50.5878 51.6071C49.2178 51.6071 47.9066 51.0657 46.9346 50.0937C45.9692 49.1282 45.4212 47.8105 45.4212 46.4471C45.4212 45.0837 45.9626 43.7659 46.9346 42.7939C47.9001 41.8284 49.2178 41.2805 50.5878 41.2805C51.9577 41.2805 53.2689 41.8219 54.2344 42.7939C55.1998 43.7594 55.7478 45.0771 55.7478 46.4471C55.7478 47.817 55.2064 49.1282 54.2344 50.0937C53.2689 51.0591 51.9512 51.6071 50.5878 51.6071ZM13.4301 51.6071C12.0602 51.6071 10.749 51.0657 9.7835 50.0937C8.81803 49.1282 8.27006 47.8105 8.27006 46.4471C8.27006 45.0837 8.8115 43.7659 9.7835 42.7939C10.749 41.8284 12.0667 41.2805 13.4301 41.2805C14.7935 41.2805 16.1113 41.8219 17.0833 42.7939C18.0487 43.7594 18.5967 45.0771 18.5967 46.4471C18.5967 47.817 18.0553 49.1282 17.0833 50.0937C16.1178 51.0591 14.8 51.6071 13.4301 51.6071ZM26.8424 16.5174V8.2587H55.7478V16.5174H26.8424Z" fill="#A8692C"/>
</svg>
