<svg width="64" height="65" viewBox="0 0 64 65" fill="none" xmlns="http://www.w3.org/2000/svg">
<g clip-path="url(#clip0_6_323)">
<path d="M15.9602 64.0505C20.1744 64.036 24.2078 62.359 27.2003 59.3882C30.1857 56.4173 31.8843 52.3911 31.9205 48.177C31.9566 43.9628 30.3302 39.9077 27.4027 36.8862V11.4351C27.4027 7.35111 25.2198 3.57067 21.6851 1.53227C18.1432 -0.51336 13.7845 -0.51336 10.2498 1.53227C6.70791 3.5779 4.53217 7.35111 4.53217 11.4351V36.8862C1.59022 39.9077 -0.0361625 43.97 -2.06358e-05 48.1842C0.0361212 52.3983 1.73479 56.4245 4.72011 59.3954C7.70542 62.3662 11.7461 64.036 15.9602 64.0577V64.0505ZM11.3847 40.1607V11.4351C11.3847 9.80153 12.2593 8.2908 13.6688 7.47399C15.0856 6.65718 16.8276 6.65718 18.2444 7.47399C19.6611 8.2908 20.5286 9.80153 20.5286 11.4351V40.1607C22.8705 41.5124 24.4969 43.8327 24.9668 46.5C25.4366 49.16 24.7066 51.8996 22.9645 53.9669C21.2225 56.0414 18.6636 57.2341 15.953 57.2341C13.2424 57.2341 10.6835 56.0342 8.94147 53.9669C7.19944 51.8923 6.46937 49.16 6.93922 46.5C7.40906 43.8327 9.03544 41.5196 11.3774 40.1607H11.3847Z" fill="#A8692C"/>
<path d="M47.9891 12.5844C47.9891 14.4782 46.4567 16.0178 44.5557 16.0178C42.6546 16.0178 41.1222 14.4782 41.1222 12.5844C41.1222 10.6905 42.6546 9.15088 44.5557 9.15088C46.4567 9.15088 47.9891 10.6905 47.9891 12.5844Z" fill="#A8692C"/>
<path d="M64 12.5844C64 14.4782 62.4604 16.0178 60.5665 16.0178C58.6727 16.0178 57.1331 14.4782 57.1331 12.5844C57.1331 10.6905 58.6727 9.15088 60.5665 9.15088C62.4604 9.15088 64 10.6905 64 12.5844Z" fill="#A8692C"/>
<path d="M47.9891 29.7377C47.9891 31.6315 46.4567 33.1712 44.5557 33.1712C42.6546 33.1712 41.1222 31.6315 41.1222 29.7377C41.1222 27.8438 42.6546 26.3042 44.5557 26.3042C46.4567 26.3042 47.9891 27.8438 47.9891 29.7377Z" fill="#A8692C"/>
<path d="M64 29.7377C64 31.6315 62.4604 33.1712 60.5665 33.1712C58.6727 33.1712 57.1331 31.6315 57.1331 29.7377C57.1331 27.8438 58.6727 26.3042 60.5665 26.3042C62.4604 26.3042 64 27.8438 64 29.7377Z" fill="#A8692C"/>
<path d="M47.9891 46.8978C47.9891 48.7917 46.4567 50.3313 44.5557 50.3313C42.6546 50.3313 41.1222 48.7917 41.1222 46.8978C41.1222 45.004 42.6546 43.4644 44.5557 43.4644C46.4567 43.4644 47.9891 45.004 47.9891 46.8978Z" fill="#A8692C"/>
<path d="M64 46.8978C64 48.7917 62.4604 50.3313 60.5665 50.3313C58.6727 50.3313 57.1331 48.7917 57.1331 46.8978C57.1331 45.004 58.6727 43.4644 60.5665 43.4644C62.4604 43.4644 64 45.004 64 46.8978Z" fill="#A8692C"/>
</g>
<defs>
<clipPath id="clip0_6_323">
<rect width="64" height="64.0506" fill="white"/>
</clipPath>
</defs>
</svg>
