<svg width="64" height="67" viewBox="0 0 64 67" fill="none" xmlns="http://www.w3.org/2000/svg">
<path d="M54.4009 0H10.6658C6.8572 0 3.33844 2.03576 1.43076 5.33207C-0.47692 8.63512 -0.47692 12.6999 1.43076 15.9962C3.33844 19.2993 6.8572 21.3283 10.6658 21.3283H14.9328V29.8623H0.00168527V45.8652C0.00168527 51.2175 2.38123 56.2934 6.47297 59.7313H0.00168527V66.1284H64V9.59907C64 7.051 62.9889 4.61079 61.189 2.81096C59.3892 1.01114 56.949 0 54.4009 0ZM6.39882 36.2662H29.8707V45.8652C29.8707 50.0581 27.6327 53.9274 24.0061 56.0238C20.3795 58.1202 15.9035 58.1202 12.2702 56.0238C8.63681 53.9274 6.40556 50.0513 6.40556 45.8652V36.2662H6.39882ZM57.5961 59.7313H29.7966C32.4727 57.4933 34.4411 54.5273 35.4724 51.1973H39.4698C43.2784 51.1973 46.8039 49.1615 48.7048 45.8652C50.6125 42.5622 50.6125 38.4974 48.7048 35.2011C46.7972 31.898 43.2784 29.869 39.4698 29.869H21.3367V21.335H57.6029V59.738L57.5961 59.7313ZM36.2611 44.8002V36.2662H39.463C40.9865 36.2662 42.3953 37.0818 43.1571 38.3963C43.9188 39.7175 43.9188 41.3421 43.1571 42.6633C42.3953 43.9845 40.9865 44.8002 39.463 44.8002H36.2611ZM44.7951 14.9311H10.6658C9.14237 14.9311 7.73352 14.1155 6.9718 12.801C6.21007 11.4798 6.21007 9.85523 6.9718 8.53401C7.73352 7.21279 9.14237 6.40388 10.6658 6.40388H54.4009C55.2503 6.40388 56.0659 6.74092 56.6659 7.34086C57.2658 7.94081 57.6029 8.75646 57.6029 9.60581V14.9379H44.8019L44.7951 14.9311Z" fill="#A8692C"/>
</svg>
