<svg width="171" height="120" viewBox="0 0 171 120" fill="none" xmlns="http://www.w3.org/2000/svg">
<path d="M168.131 74.2635H133.94V54.2791H156.734C158.312 54.2791 159.58 52.9961 159.58 51.4242V5.71087C159.58 4.12737 158.301 2.85595 156.734 2.85595H85.5058C83.927 2.85595 82.6594 4.13893 82.6594 5.71087V51.4242C82.6594 53.0077 83.9385 54.2791 85.5058 54.2791H111.146V65.7103H96.9027C95.3239 65.7103 94.0563 66.9933 94.0563 68.5653V74.252H81.1383C82.1293 72.5182 82.6594 70.5649 82.6594 68.5653V62.8554C82.6594 61.2719 81.3803 60.0005 79.8131 60.0005H76.6325L74.8003 45.3098C74.2356 40.8483 71.6197 36.9185 67.7362 34.6761L55.8668 27.8683C56.6389 26.3079 57.0307 24.5857 57.0307 22.8404V9.43266C57.0307 7.1441 56.201 4.93646 54.7029 3.21426C53.2049 1.49206 51.1191 0.38246 48.8604 0.0819428C46.6018 -0.218575 44.3086 0.31311 42.4072 1.58453L35.516 6.19632C34.7209 6.728 34.2484 7.618 34.2484 8.57734V22.8635H25.6978C18.8988 22.8635 12.3764 25.5797 7.57106 30.3995C2.74264 35.2194 0.0345711 41.7499 0.0230474 48.5693L0 88.5728C0 89.3356 0.299616 90.0754 0.841229 90.6071C1.38284 91.1388 2.10883 91.4508 2.8694 91.4508H9.49552L20.1665 118.208C20.6044 119.295 21.6415 120 22.8169 120H148.183C149.347 120 150.396 119.283 150.834 118.208L161.504 91.4508H168.131C168.891 91.4508 169.629 91.1503 170.159 90.6071C170.689 90.0638 171 89.3356 171 88.5728V77.1416C171 76.3787 170.7 75.639 170.159 75.1073C169.617 74.5756 168.891 74.2635 168.131 74.2635ZM116.85 74.2635V31.4282H128.247V74.2635H116.85ZM88.3636 48.5693V8.56578H153.899V48.5693H133.951V28.5618C133.951 26.9783 132.672 25.7068 131.105 25.7068H114.015C112.437 25.7068 111.169 26.9898 111.169 28.5618V48.5693H88.3752H88.3636ZM99.7606 71.4317H111.157V74.2635H99.7606V71.4317ZM31.8054 63.075L60.096 70.8191C60.338 72.0328 60.7759 73.2002 61.3982 74.2635H26.8271L21.7222 69.1432L31.7939 63.0866L31.8054 63.075ZM76.9667 68.5653C76.9667 69.9985 76.4251 71.3739 75.4686 72.4258C74.5006 73.4776 73.1869 74.1364 71.758 74.252H70.7785C69.3611 74.1248 68.0359 73.4776 67.0679 72.4258C66.0999 71.3739 65.5698 69.9985 65.5698 68.5653V65.7103H76.9667V68.5653ZM69.1536 46.0149L70.8937 59.989H65.5698V48.5577H59.8771V64.8204L48.4802 61.6996V42.8363H42.7875V60.1392L34.2369 57.8044V48.5577H28.5442V58.3708L20.5467 63.1791L22.2407 46.1305C22.5173 43.368 24.1076 40.9176 26.5045 39.5422L39.2036 32.272C40.2983 33.0233 41.5083 33.5781 42.7875 33.9133V39.993H48.4802V33.9133C49.7593 33.5781 50.9693 33.0233 52.064 32.272L64.9129 39.6347C67.2407 40.9754 68.8195 43.3449 69.1536 46.0149ZM45.6338 28.5618C44.1242 28.5618 42.6722 27.9607 41.612 26.8858C40.5519 25.8109 39.9411 24.3661 39.9411 22.8519V17.1421H51.338V22.8519C51.338 24.3661 50.7388 25.8224 49.6671 26.8858C48.5954 27.9492 47.1549 28.5618 45.6453 28.5618H45.6338ZM39.9411 10.0915L45.5647 6.32346C46.7055 5.56061 48.169 5.49126 49.379 6.13853C50.589 6.7858 51.338 8.04566 51.338 9.4211V11.4091H39.9411V10.0799V10.0915ZM25.6978 28.5618H34.2023L23.6927 34.5837C19.694 36.8838 17.0435 40.9754 16.5826 45.5641L14.3124 68.2763C14.2318 69.1316 14.5314 69.9754 15.1306 70.5764L18.7951 74.252H5.72727V48.5577C5.72727 43.2524 7.83611 38.1668 11.5813 34.4218C15.315 30.6769 20.3854 28.5618 25.6748 28.5502L25.6978 28.5618ZM5.75032 80.0312H51.315V85.6948H5.75032V80.0312ZM15.6376 91.4624H40.8399L49.9437 114.302H24.7414L15.6376 91.4624ZM146.247 114.302H56.0858L46.9821 91.4624H155.362L146.259 114.302H146.247ZM165.25 85.6948H57.0077V80.0312H165.25V85.6948Z" fill="#A8692C"/>
</svg>
