<svg width="64" height="64" viewBox="0 0 64 64" fill="none" xmlns="http://www.w3.org/2000/svg">
<path d="M47.9984 24.0024V36.0036C47.9984 37.0653 47.575 38.0827 46.8293 38.8348C46.0772 39.5868 45.0597 40.0039 43.998 40.0039H39.9976V12.0012C39.9976 8.81604 38.7337 5.7636 36.4839 3.51377C34.234 1.26395 31.1816 0 27.9964 0H12.0012C8.81604 0 5.7636 1.26395 3.51377 3.51377C1.26395 5.7636 0 8.81604 0 12.0012V64H64V55.9992H39.9976V47.9984H43.998C47.1832 47.9984 50.2356 46.7345 52.4854 44.4846C54.7353 42.2348 55.9992 39.1824 55.9992 35.9972V23.996C55.9992 22.9343 56.4226 21.9169 57.1684 21.1648C57.9204 20.4128 58.9379 19.9957 59.9996 19.9957H64V11.9949H59.9996C56.8145 11.9949 53.762 13.2588 51.5122 15.5086C49.2624 17.7585 47.9984 20.8109 47.9984 23.996V24.0024ZM31.9968 56.0055H8.00079V32.0032H32.0032V56.0055H31.9968ZM31.9968 24.0024H23.996V16.0016H15.9953V24.0024H8.00079V12.0012C8.00079 10.9395 8.42421 9.92199 9.16994 9.16994C9.92199 8.41789 10.9395 8.00079 12.0012 8.00079H28.0028C29.0645 8.00079 30.082 8.42421 30.8277 9.16994C31.5797 9.92199 31.9968 10.9395 31.9968 12.0012V24.0024Z" fill="#A8692C"/>
</svg>
