<svg width="66" height="64" viewBox="0 0 66 64" fill="none" xmlns="http://www.w3.org/2000/svg">
<g clip-path="url(#clip0_6_236)">
<path d="M31.6953 0.0055885C28.0657 0.119899 24.8273 1.91541 21.6916 4.6979C17.7151 4.74251 14.5628 5.13005 12.0958 6.77501C9.63723 8.41439 8.13876 11.1941 6.93999 15.0806C4.07069 16.8371 1.97838 19.1484 1.27355 22.0787C0.596459 24.9058 1.25967 28.1148 3.00789 31.6166C1.42339 33.4596 -0.00292969 35.9939 -0.00292969 39.281C-0.00292969 41.5171 1.53439 43.1983 3.5712 44.9464C5.60524 46.6973 8.35521 48.4566 11.5075 50.0485C13.2696 50.9379 15.1677 51.7604 17.1213 52.5104H4.74778C3.94582 52.5857 3.26318 53.3412 3.26873 54.1526C3.26873 55.3849 3.96802 55.9425 4.59516 56.4611C5.22507 56.9797 6.01038 57.4481 6.94276 57.922C8.80752 58.8728 11.3022 59.8514 14.1632 60.7408C19.8851 62.5251 27.0028 63.9972 33.0744 63.9972C38.752 63.9972 45.6782 62.5251 51.2947 60.7408C54.103 59.8486 56.5643 58.87 58.4152 57.922C59.3393 57.4481 60.1107 56.9797 60.7379 56.4611C61.365 55.9425 62.0643 55.3877 62.0643 54.1526C62.0643 53.2938 61.2873 52.5104 60.4298 52.5104H48.2062C50.1598 51.7604 52.0606 50.9379 53.8199 50.0485C56.9723 48.4566 59.7222 46.6973 61.7563 44.9464C63.7903 43.1955 65.3304 41.5143 65.3304 39.281C65.3304 35.8043 63.6793 33.7467 62.1919 31.6417C63.6238 28.1873 64.3286 25.1456 63.646 22.3101C62.9384 19.3603 60.81 16.8789 57.6244 14.4143C56.4145 10.7926 54.8716 8.19134 52.4935 6.64676C50.1403 5.11611 47.1961 4.73972 43.5609 4.6979C39.2265 1.49441 35.386 -0.108722 31.6981 0.0055885H31.6953ZM31.798 3.28714C34.5868 3.20071 37.839 4.4163 42.032 7.5947C42.3094 7.80659 42.6535 7.92369 43.0004 7.92648C46.6939 7.92648 49.0664 8.34747 50.7064 9.41251C52.3492 10.4803 53.5674 12.3093 54.6885 15.8474C54.7939 16.1736 55.0021 16.4635 55.274 16.6671C58.4402 19.0313 59.9581 21.0136 60.4548 23.0768C60.9515 25.14 60.4853 27.6158 58.8981 31.1789C58.6594 31.6919 58.7094 32.3276 59.0257 32.7932C60.7906 35.3973 62.0615 36.5236 62.0615 39.2783C62.0615 39.518 61.3539 40.9594 59.6112 42.4566C57.8686 43.9566 55.3101 45.596 52.3381 47.096C49.4938 48.5346 46.261 49.8227 42.9976 50.7874C43.1725 50.0207 43.2779 49.2205 43.2779 48.4036C43.2779 42.5319 38.505 37.7114 32.661 37.7114C26.8169 37.7114 22.044 42.5319 22.044 48.4036C22.044 49.2205 22.1495 50.0234 22.3243 50.7874C19.0609 49.8227 15.8309 48.5318 12.9838 47.096C10.0119 45.596 7.45335 43.9538 5.71068 42.4566C3.96802 40.9567 3.26041 39.518 3.26041 39.2783C3.26041 36.5209 4.59516 34.4716 6.06865 33.0218C6.58479 32.5283 6.71521 31.6752 6.3739 31.0479C4.43143 27.5517 3.97079 24.8891 4.45918 22.8426C4.95035 20.799 6.39887 19.1206 9.05172 17.6122C9.41801 17.4031 9.70106 17.0462 9.8176 16.6392C10.9526 12.6773 12.1791 10.6588 13.8995 9.51288C15.6228 8.3642 18.209 7.92369 22.3215 7.92369C22.7239 7.92369 23.1235 7.76198 23.4176 7.48875C26.3951 4.74251 28.998 3.37078 31.7869 3.28435L31.798 3.28714ZM31.0321 24.6186V36.1054H34.2982V24.6186H31.0321ZM22.2272 26.9773L19.4189 28.6195L25.1353 38.5673L27.9436 36.9251L22.2272 26.9773ZM43.1031 26.9773L37.3867 36.9251L40.1949 38.5673L45.9113 28.6195L43.1031 26.9773ZM12.9644 35.0794L11.33 37.926L21.231 43.6694L22.8654 40.8228L12.9644 35.0794ZM52.3659 35.0794L42.4648 40.8228L44.0993 43.6694L54.0003 37.926L52.3659 35.0794ZM32.6637 41.0264C36.7429 41.0264 40.0118 44.3135 40.0118 48.4092C40.0118 52.5048 36.7401 55.7669 32.6637 55.7669C28.5873 55.7669 25.3157 52.5076 25.3157 48.4092C25.3157 44.3107 28.5873 41.0264 32.6637 41.0264ZM10.4891 55.7947H25.0354C26.9668 57.8077 29.6723 59.0763 32.6665 59.0763C35.6607 59.0763 38.3635 57.8077 40.2976 55.7947H54.9188C53.5175 56.3997 52.1688 57.0215 50.2985 57.6153C44.9345 59.3188 38.172 60.7185 33.0744 60.7185C27.5412 60.7185 20.601 59.2938 15.1344 57.5902C13.2419 57.002 11.9016 56.397 10.4891 55.7947Z" fill="#A8692C"/>
</g>
<defs>
<clipPath id="clip0_6_236">
<rect width="65.3333" height="64" fill="white"/>
</clipPath>
</defs>
</svg>
