<svg width="64" height="64" viewBox="0 0 64 64" fill="none" xmlns="http://www.w3.org/2000/svg">
<path d="M21.999 20.7475C21.999 22.9594 20.2105 24.7479 17.9986 24.7479C15.7867 24.7479 13.9982 22.9594 13.9982 20.7475C13.9982 18.5356 15.7867 16.7471 17.9986 16.7471C20.2105 16.7471 21.999 18.5356 21.999 20.7475Z" fill="#A8692C"/>
<path d="M54.4888 51.8282L50.0713 39.056C49.1297 36.3385 47.3664 33.9812 45.0218 32.3128C42.6772 30.6444 39.8776 29.747 37.0021 29.747H36.0036V15.9321C36.0036 13.2083 34.6195 10.674 32.3318 9.20154L17.9986 0L3.67177 9.20154C1.38402 10.674 0 13.2083 0 15.9321V63.7472H8.00079V53.7494H28.0028V63.7472H36.0036V37.7478H37.0021C38.2155 37.7478 39.3973 38.127 40.3831 38.8285C41.369 39.53 42.1147 40.5222 42.5129 41.666L46.9304 54.4382C47.872 57.1557 49.6352 59.513 51.9799 61.1814C54.3245 62.8498 57.1241 63.7472 59.9996 63.7472H64V55.7464H59.9996C58.7862 55.7464 57.6044 55.3672 56.6185 54.6657C55.6327 53.9643 54.8869 52.9721 54.4888 51.8282ZM27.9964 45.7486H8.00079V37.7478H28.0028V45.7486H27.9964ZM27.9964 29.747H8.00079V15.9257L17.9986 9.49857L27.9964 15.9257V29.747Z" fill="#A8692C"/>
</svg>
