<svg width="113" height="64" viewBox="0 0 113 64" fill="none" xmlns="http://www.w3.org/2000/svg">
<g clip-path="url(#clip0_6_280)">
<path d="M98.9696 39.8496C99.5762 39.9645 100.205 40.0306 100.851 40.0306C105.601 40.0306 109.466 36.7332 109.466 32.6825C109.466 28.6317 105.601 25.3344 100.851 25.3344C96.1003 25.3344 92.2354 28.6317 92.2354 32.6825C92.2354 35.2827 93.8327 37.5673 96.2299 38.876C95.1952 40.6519 93.3704 41.9116 91.2399 42.1685V20.9436C91.4698 20.9534 91.6973 20.9705 91.9272 20.9705C99.3389 20.9705 105.366 16.2666 105.366 10.4865C105.366 4.70631 99.3365 0 91.9272 0C86.4186 0 81.4848 2.64914 79.4667 6.56291C73.1362 6.02477 67.7474 9.95322 67.7474 14.8283C67.7474 19.4123 72.5027 23.1426 78.344 23.1426C79.1218 23.1426 79.885 23.0741 80.6262 22.9469C82.0963 25.8358 84.9803 27.8832 88.3632 28.1669V64H91.2399V45.0549C94.6179 44.7711 97.497 42.7286 98.9696 39.8471V39.8496ZM95.1096 32.6825C95.1096 30.2168 97.6854 28.2085 100.848 28.2085C104.011 28.2085 106.587 30.2143 106.587 32.6825C106.587 35.1506 104.013 37.1564 100.848 37.1564C100.516 37.1564 100.193 37.1295 99.8771 37.0879C99.9627 36.5718 100.019 36.0483 100.019 35.5077C100.019 35.2778 100.012 35.0479 99.9945 34.8228C99.9382 34.0303 99.2533 33.4261 98.4583 33.4897C97.6658 33.5459 97.0689 34.2333 97.1252 35.0258C97.1374 35.1848 97.1423 35.3438 97.1423 35.5053C97.1423 35.6961 97.1301 35.8844 97.113 36.0703C95.8899 35.2484 95.1096 34.0352 95.1096 32.68V32.6825ZM78.344 20.266C74.0878 20.266 70.6216 17.8272 70.6216 14.8283C70.6216 11.8294 74.0853 9.39061 78.344 9.39061C78.9213 9.39061 79.5157 9.44198 80.1125 9.54227C80.7999 9.65968 81.4701 9.26586 81.7049 8.6103C82.9158 5.23712 87.1182 2.87907 91.9248 2.87907C97.749 2.87907 102.49 6.29139 102.49 10.4889C102.49 14.6864 97.7514 18.0988 91.9248 18.0988C91.6948 18.0988 91.4674 18.0767 91.2374 18.067V12.6733C91.2374 11.8783 90.5916 11.235 89.7991 11.235C89.0066 11.235 88.3608 11.8808 88.3608 12.6733V17.6316C87.7884 17.4823 87.2282 17.3111 86.6974 17.091C86.1128 16.8488 85.4353 17.0176 85.0341 17.5092C84.403 18.2822 83.5224 18.9109 82.5024 19.3805C82.4755 19.131 82.4559 18.8791 82.4559 18.6222C82.4559 18.4608 82.4608 18.2993 82.473 18.1403C82.5293 17.3478 81.93 16.6604 81.1374 16.6066C80.3498 16.5504 79.6575 17.1497 79.6037 17.9422C79.5866 18.1673 79.5793 18.3947 79.5793 18.6247C79.5793 19.153 79.6331 19.6692 79.7163 20.1731C79.2662 20.2342 78.8087 20.2734 78.3415 20.2734L78.344 20.266ZM83.4466 22.1104C84.6207 21.604 85.6799 20.9338 86.5433 20.1021C87.1329 20.3003 87.7419 20.4544 88.3608 20.5865V25.2805C86.2792 25.0286 84.4935 23.8202 83.4466 22.1104Z" fill="#A8692C"/>
<path d="M81.4041 59.9517C64.7094 59.9517 51.8257 58.5868 43.1102 55.8912C35.7254 53.609 31.1585 50.314 29.5368 46.097C27.553 40.943 30.4051 35.8062 32.8219 32.6776C26.2003 35.0087 21.1344 41.6573 16.5797 47.6282C11.7511 53.9636 7.18911 59.9493 1.36982 59.9493C0.613973 59.9493 0 59.3353 0 58.5794C0 57.8236 0.613973 57.2096 1.36982 57.2096C5.83152 57.2096 9.9948 51.7475 14.4002 45.9673C20.1241 38.4578 26.6112 29.9453 36.3565 29.1332C36.3932 29.1307 36.4324 29.1283 36.4715 29.1283C42.2003 29.1283 47.7896 32.614 53.2493 37.1442C54.8149 35.816 58.2125 33.3405 61.7471 33.3405C64.3522 33.3405 66.473 35.1164 69.1588 37.3668C75.0344 42.2884 84.8702 50.5244 111.249 50.6369C112.005 50.6394 112.616 51.2558 112.614 52.0116C112.612 52.765 111.998 53.3766 111.244 53.3766H111.239C83.8722 53.2616 73.5618 44.6268 67.4001 39.468C65.0518 37.5013 63.3567 36.0801 61.7471 36.0801C59.3133 36.0801 56.762 37.8218 55.3652 38.9519C57.239 40.5932 59.0955 42.3226 60.9375 44.0373C68.2146 50.8106 75.0882 57.2096 81.4041 57.2096C82.1599 57.2096 82.7739 57.8236 82.7739 58.5794C82.7739 59.3353 82.1599 59.9493 81.4041 59.9493V59.9517ZM37.1809 31.8924C35.9554 33.0885 29.889 39.4044 32.0954 45.121C33.4041 48.5113 37.3863 51.2558 43.9297 53.2763C50.7812 55.3922 60.3626 56.6641 72.4855 57.0702C68.0874 54.4357 63.6551 50.3116 59.0735 46.048C51.8257 39.3017 44.3382 32.3327 37.1809 31.8948V31.8924Z" fill="#A8692C"/>
<path d="M20.7919 41.1778H2.4094C1.65355 41.1778 1.03958 40.5638 1.03958 39.8079C1.03958 39.0521 1.65355 38.4381 2.4094 38.4381H20.7919C21.5478 38.4381 22.1617 39.0521 22.1617 39.8079C22.1617 40.5638 21.5478 41.1778 20.7919 41.1778Z" fill="#A8692C"/>
<path d="M9.72817 47.1976H5.49885C4.743 47.1976 4.12903 46.5837 4.12903 45.8278C4.12903 45.072 4.743 44.458 5.49885 44.458H9.72817C10.484 44.458 11.098 45.072 11.098 45.8278C11.098 46.5837 10.484 47.1976 9.72817 47.1976Z" fill="#A8692C"/>
<path d="M88.6323 41.1778H70.2498C69.4939 41.1778 68.88 40.5638 68.88 39.8079C68.88 39.0521 69.4939 38.4381 70.2498 38.4381H88.6323C89.3882 38.4381 90.0021 39.0521 90.0021 39.8079C90.0021 40.5638 89.3882 41.1778 88.6323 41.1778Z" fill="#A8692C"/>
<path d="M110.432 46.0578H100.995C100.239 46.0578 99.6251 45.4438 99.6251 44.6879C99.6251 43.9321 100.239 43.3181 100.995 43.3181H110.432C111.188 43.3181 111.802 43.9321 111.802 44.6879C111.802 45.4438 111.188 46.0578 110.432 46.0578Z" fill="#A8692C"/>
</g>
<defs>
<clipPath id="clip0_6_280">
<rect width="112.616" height="64" fill="white"/>
</clipPath>
</defs>
</svg>
