<svg width="82" height="72" viewBox="0 0 82 72" fill="none" xmlns="http://www.w3.org/2000/svg">
<g clip-path="url(#clip0_6_246)">
<path d="M48.4851 68.4324L43.7324 65.7183C41.1258 64.2353 37.9327 64.2353 35.3261 65.7183L32.4462 67.3608C30.7085 68.3464 28.5808 68.3464 26.8431 67.3608L23.9632 65.7183C21.3566 64.2353 18.1635 64.2353 15.5569 65.7183L10.8042 68.4324C9.95064 68.9175 8.98352 69.1753 8.00104 69.1753H4.23694V72H8.01025C9.48396 72 10.9331 71.6131 12.2134 70.8824L16.9661 68.1683C18.7039 67.1828 20.8315 67.1828 22.5693 68.1683L25.4492 69.8109C28.0558 71.2938 31.2488 71.2938 33.8555 69.8109L36.7353 68.1683C38.4731 67.1797 40.6008 67.1797 42.3385 68.1683L47.0912 70.8824C48.3715 71.6131 49.8207 71.9969 51.2944 72H55.0677V69.1753H51.2944C50.3119 69.1753 49.3448 68.9175 48.4913 68.4324H48.4851Z" fill="#A8692C"/>
<path d="M74.7325 31.1598C74.5329 28.7405 73.397 26.4931 71.5702 24.8935C69.7434 23.2939 67.364 22.468 64.9385 22.5877C62.5038 22.468 60.1151 23.3031 58.2853 24.915C56.4554 26.5268 55.3286 28.7896 55.1414 31.2212C54.6471 31.1168 54.1466 31.0616 53.6431 31.0585C52.065 31.0738 50.5268 31.5681 49.2342 32.4708H43.76V28.2369H55.0554C55.5712 28.2369 56.0471 27.9545 56.2958 27.5001C56.5445 27.0457 56.523 26.493 56.2436 26.0601L43.539 6.294C43.2012 5.76592 42.5534 5.52644 41.9547 5.70451C41.3529 5.87952 40.9415 6.43216 40.9415 7.05849V12.2103L29.9563 25.9435C29.7045 26.2566 29.6001 26.665 29.6676 27.0641C29.7352 27.4602 29.9685 27.8102 30.3124 28.0251L37.4323 32.4739H24.0031C23.4535 32.4739 22.9561 32.7901 22.7228 33.2875C22.4894 33.7848 22.5662 34.3713 22.9162 34.7919L28.0466 40.9446H27.3711C26.3487 40.9446 25.3417 40.6652 24.4636 40.1402L22.7136 39.0902C21.3995 38.2981 19.892 37.8805 18.3569 37.8805C16.8218 37.8805 15.3143 38.2981 14.0003 39.0902L12.2472 40.1402C11.3691 40.6683 10.3651 40.9446 9.34272 40.9446H0V43.7692H9.33964C10.8748 43.7692 12.3792 43.3517 13.6963 42.5626L15.4494 41.5126C16.3275 40.9845 17.3315 40.7082 18.3569 40.7082C19.3824 40.7082 20.3863 40.9876 21.2644 41.5126L23.0145 42.5626C24.3316 43.3517 25.836 43.7692 27.3711 43.7692H49.2312V43.7631C50.5237 44.6688 52.0558 45.1631 53.6339 45.1815C54.0392 45.1908 57.3212 45.464 57.8186 50.8277H54.1957C53.1733 50.8277 52.1663 50.5483 51.2882 50.0233L49.5382 48.9733C48.2241 48.1812 46.7166 47.7636 45.1815 47.7636C43.6464 47.7636 42.1389 48.1812 40.8249 48.9733L39.0718 50.0233C38.1937 50.5514 37.1897 50.8277 36.1673 50.8277H29.6523V53.6523H36.1673C37.7024 53.6523 39.2069 53.2348 40.524 52.4457L42.2771 51.3957C43.1552 50.8676 44.1591 50.5913 45.1846 50.5913C46.2101 50.5913 47.214 50.8707 48.0921 51.3957L49.8421 52.4457C51.1593 53.2348 52.6637 53.6523 54.1988 53.6523H57.6559C57.4563 54.251 57.1155 54.7944 56.6673 55.2366C54.033 57.8585 48.2272 57.8892 48.0092 57.8892H29.6554V60.7138H64.9508C65.1196 60.7138 81.8923 60.5051 81.8923 42.36C81.8923 38.7249 80.3572 32.0717 74.7448 31.1659L74.7325 31.1598ZM43.7631 12.7046V11.8573L52.4703 25.4093H43.7631V12.7046ZM40.9385 16.7297V31.3409L33.1493 26.4716L40.9385 16.7297ZM31.7186 40.9385L27.0119 35.2923H47.0697C46.425 37.1191 46.425 39.1117 47.0697 40.9385H31.7186ZM68.632 57.3151C74.7172 52.3997 74.8215 43.8828 74.8215 43.7631H71.9969C71.9969 44.3403 71.782 57.8677 57.9015 57.88C58.1594 57.6805 58.4081 57.4655 58.6414 57.2353C59.9893 55.9243 60.7353 54.1129 60.7016 52.2308C60.7016 42.4613 53.7137 42.3477 53.6523 42.3477C52.5286 42.3477 51.4509 41.9056 50.6527 41.1135C49.8575 40.3214 49.4092 39.2437 49.4062 38.12C49.4031 36.9963 49.8514 35.9187 50.6435 35.1235C51.4387 34.3283 52.5132 33.88 53.64 33.88C54.7637 33.88 55.8414 34.3252 56.6366 35.1204C57.4318 35.9156 57.8769 36.9932 57.8769 38.1169H60.7016C60.8336 35.8358 59.7651 33.6498 57.8769 32.3572C57.9046 31.4453 58.3405 25.4123 64.9354 25.4123C71.5303 25.4123 71.9939 31.7524 71.9939 32.4708C71.9939 32.8454 72.1412 33.2046 72.4083 33.4686C72.6755 33.7327 73.0316 33.8831 73.4062 33.8831C78.9633 33.8831 79.0523 42.01 79.0523 42.3539C79.0523 52.7282 72.8167 56.1699 68.6289 57.3182L68.632 57.3151Z" fill="#A8692C"/>
<path d="M14.1169 57.8831H20.6412V60.7077H14.1169V57.8831Z" fill="#A8692C"/>
<path d="M0 50.8246H22.5877V53.6492H0V50.8246Z" fill="#A8692C"/>
<path d="M8.22517 23.9999H25.4123C26.9229 24.0429 28.3843 23.4627 29.4528 22.3942C30.5212 21.3258 31.1015 19.8643 31.0585 18.3538C31.1015 16.8432 30.5212 15.3818 29.4528 14.3134C28.3843 13.2449 26.9229 12.6646 25.4123 12.7076H21.0772C20.6657 9.70188 18.8942 5.64917 14.12 5.64917C9.3458 5.64917 7.51288 9.84618 7.14138 12.8673C5.88258 13.116 4.75888 13.8037 3.96676 14.8107C3.17464 15.8178 2.76937 17.0766 2.82463 18.3538C2.77551 19.8244 3.32201 21.2521 4.33826 22.3144C5.3545 23.3767 6.7576 23.9846 8.22824 23.9999H8.22517ZM8.47079 15.5292H9.88309V14.1169C9.88309 13.8866 9.93222 8.47071 14.1169 8.47071C18.3017 8.47071 18.3508 13.8897 18.3508 14.1169V15.5292H25.4093C26.1707 15.4801 26.9198 15.7625 27.4602 16.3029C28.0005 16.8432 28.283 17.5893 28.2339 18.3538C28.283 19.1152 28.0005 19.8643 27.4602 20.4047C26.9198 20.9451 26.1737 21.2275 25.4093 21.1784H12.7046V18.3538H9.88002V21.1784H8.46772C7.7063 21.2275 6.95716 20.9451 6.4168 20.4047C5.87644 19.8643 5.59398 19.1183 5.6431 18.3538C5.59398 17.5924 5.87644 16.8432 6.4168 16.3029C6.95716 15.7625 7.70323 15.4801 8.46772 15.5292H8.47079Z" fill="#A8692C"/>
<path d="M59.0498 18.3538H76.2369C77.7475 18.3968 79.2089 17.8165 80.2773 16.7481C81.3458 15.6797 81.9261 14.2182 81.8831 12.7077C81.9261 11.1971 81.3458 9.73569 80.2773 8.66724C79.2089 7.5988 77.7475 7.01853 76.2369 7.06151H71.9017C71.4903 4.05576 69.7188 0.00305176 64.9446 0.00305176C60.1704 0.00305176 58.3375 4.20006 57.966 7.22117C56.7072 7.46985 55.5835 8.15759 54.7913 9.16462C53.9992 10.1717 53.594 11.4305 53.6492 12.7077C53.6001 14.1783 54.1466 15.606 55.1628 16.6683C56.1791 17.7306 57.5822 18.3385 59.0528 18.3538H59.0498ZM59.2954 9.88306H60.7077V8.47075C60.7077 8.24048 60.7568 2.82459 64.9415 2.82459C69.1263 2.82459 69.1754 8.24355 69.1754 8.47075V9.88306H76.2338C76.9953 9.83393 77.7444 10.1164 78.2848 10.6568C78.8251 11.1971 79.1076 11.9432 79.0585 12.7077C79.1076 13.4691 78.8251 14.2182 78.2848 14.7586C77.7444 15.2989 76.9983 15.5814 76.2338 15.5323H63.5292V12.7077H60.7046V15.5323H59.2923C58.5309 15.5814 57.7817 15.2989 57.2414 14.7586C56.701 14.2182 56.4186 13.4722 56.4677 12.7077C56.4186 11.9463 56.701 11.1971 57.2414 10.6568C57.7817 10.1164 58.5278 9.83393 59.2923 9.88306H59.2954Z" fill="#A8692C"/>
<path d="M64.9415 69.1754H74.8246V72H64.9415V69.1754Z" fill="#A8692C"/>
</g>
<defs>
<clipPath id="clip0_6_246">
<rect width="81.8861" height="72" fill="white"/>
</clipPath>
</defs>
</svg>
