<svg width="64" height="60" viewBox="0 0 64 60" fill="none" xmlns="http://www.w3.org/2000/svg">
<g clip-path="url(#clip0_6_341)">
<path d="M32.0032 5.44762C28.9697 1.99072 24.5964 0.00631974 20.002 0H0V51.9988H20.002C22.1254 51.9988 24.1604 52.8393 25.6581 54.3434C27.1559 55.8412 28.0028 57.8762 28.0028 59.9996H36.0036C36.0036 57.8762 36.8441 55.8412 38.3482 54.3434C39.846 52.8457 41.8809 51.9988 44.0043 51.9988H64.0063V0H44.0043C39.4099 0.00631974 35.0366 1.99072 32.0032 5.44762ZM20.002 43.998H8.00079V8.00079H20.002C22.1254 8.00079 24.1604 8.84132 25.6581 10.3454C27.1559 11.8432 28.0028 13.8781 28.0028 16.0016V46.1531C25.5697 44.7438 22.8143 43.998 20.002 44.0043V43.998ZM55.9992 43.998H43.998C41.1857 43.998 38.4303 44.7374 35.9972 46.1467V16.0016C35.9972 13.8781 36.8378 11.8432 38.3419 10.3454C39.8396 8.84764 41.8746 8.00079 43.998 8.00079H55.9992V43.998Z" fill="#A8692C"/>
</g>
<defs>
<clipPath id="clip0_6_341">
<rect width="64" height="59.9996" fill="white"/>
</clipPath>
</defs>
</svg>
