<svg width="64" height="72" viewBox="0 0 64 72" fill="none" xmlns="http://www.w3.org/2000/svg">
<g clip-path="url(#clip0_6_331)">
<path d="M64 57.4773V24.3145C63.9856 21.939 62.801 19.7233 60.8437 18.3939L36.1278 1.38027C34.9216 0.573901 33.5059 0.138027 32.0614 0.138027C30.6169 0.138027 29.2012 0.566637 27.995 1.38027L13.7158 11.093V0H6.8543V15.7932L3.14908 18.3939C1.19896 19.7233 0.0144453 21.939 0 24.3145V57.4773H6.8543V24.3145C6.8543 24.2128 6.90486 24.1111 6.99154 24.053L31.7364 7.06843C31.8953 6.96673 32.1047 6.96673 32.2636 7.06843L57.0085 24.0457C57.0951 24.1039 57.1457 24.2056 57.1457 24.3073V57.47H64V57.4773Z" fill="#A8692C"/>
<path d="M35.4272 45.4542C38.9302 44.3428 41.6892 41.6113 42.8448 38.1098C44.0005 34.6082 43.4154 30.758 41.2631 27.7577C39.118 24.7647 35.6655 22.9922 31.9964 22.9922C28.3273 22.9922 24.8749 24.7647 22.7297 27.7577C20.5846 30.7508 19.9923 34.601 21.148 38.1098C22.3036 41.6113 25.0627 44.35 28.5656 45.4542V56.3293H35.42V45.4542H35.4272ZM31.9964 29.8863C33.2098 29.8863 34.3727 30.373 35.2322 31.2302C36.0917 32.0947 36.5684 33.2643 36.5684 34.4775C36.5684 35.6907 36.0844 36.8675 35.2322 37.732C34.3727 38.5965 33.2098 39.076 31.9964 39.076C30.783 39.076 29.6202 38.5892 28.7607 37.732C27.9012 36.8675 27.4245 35.6979 27.4245 34.4775C27.4245 33.257 27.9084 32.0874 28.7607 31.2302C29.6202 30.3657 30.783 29.8863 31.9964 29.8863Z" fill="#A8692C"/>
<path d="M18.2878 67.8223C18.2878 69.7256 16.7494 71.2729 14.857 71.2729C12.9647 71.2729 11.4263 69.7256 11.4263 67.8223C11.4263 65.9189 12.9647 64.3716 14.857 64.3716C16.7494 64.3716 18.2878 65.9189 18.2878 67.8223Z" fill="#A8692C"/>
<path d="M35.4271 67.8223C35.4271 69.7256 33.8887 71.2729 31.9964 71.2729C30.104 71.2729 28.5656 69.7256 28.5656 67.8223C28.5656 65.9189 30.104 64.3716 31.9964 64.3716C33.8887 64.3716 35.4271 65.9189 35.4271 67.8223Z" fill="#A8692C"/>
<path d="M52.5737 67.8223C52.5737 69.7256 51.0353 71.2729 49.143 71.2729C47.2506 71.2729 45.7122 69.7256 45.7122 67.8223C45.7122 65.9189 47.2506 64.3716 49.143 64.3716C51.0353 64.3716 52.5737 65.9189 52.5737 67.8223Z" fill="#A8692C"/>
</g>
<defs>
<clipPath id="clip0_6_331">
<rect width="64" height="71.2727" fill="white"/>
</clipPath>
</defs>
</svg>
