<svg width="64" height="69" viewBox="0 0 64 69" fill="none" xmlns="http://www.w3.org/2000/svg">
<g clip-path="url(#clip0_6_339)">
<path d="M64 38.3973V32C64 23.513 60.6294 15.3764 54.6299 9.37013C48.6236 3.37055 40.487 0 32 0C23.513 0 15.3764 3.37055 9.37013 9.37013C3.37055 15.3764 0 23.513 0 32V38.3973H27.7329V59.7329H0V68.2671H64V59.7329H36.2671V38.3973H64ZM25.778 29.8631C26.3847 22.5422 28.5014 15.4304 32 8.96566C35.4919 15.4304 37.6086 22.5422 38.222 29.8631H25.7847H25.778ZM55.3646 29.8631H46.7697C46.3114 23.3781 44.8283 17.0011 42.388 10.9745C49.7089 14.5877 54.6231 21.74 55.3714 29.8631H55.3646ZM21.5985 10.9745C19.1582 17.0011 17.6819 23.3781 17.2235 29.8631H8.62861C9.37687 21.74 14.2844 14.5877 21.5985 10.9745Z" fill="#A8692C"/>
</g>
<defs>
<clipPath id="clip0_6_339">
<rect width="64" height="68.2671" fill="white"/>
</clipPath>
</defs>
</svg>
