<svg width="64" height="63" viewBox="0 0 64 63" fill="none" xmlns="http://www.w3.org/2000/svg">
<path d="M8.99932 62.003H31.9969C35.2136 62.003 38.1839 60.284 39.7891 57.5034C41.3943 54.7164 41.3943 51.2911 39.7891 48.5041C38.1839 45.717 35.2073 44.0044 31.9969 44.0044H8.99932C5.78258 44.0044 2.8123 45.717 1.20708 48.5041C-0.39813 51.2911 -0.39813 54.7164 1.20708 57.5034C2.8123 60.2904 5.7889 62.003 8.99932 62.003ZM8.99932 50.0018H31.9969C33.0712 50.0018 34.0571 50.5706 34.5943 51.4996C35.1315 52.4286 35.1315 53.5725 34.5943 54.5015C34.0571 55.4305 33.0649 55.9993 31.9969 55.9993H8.99932C7.92497 55.9993 6.93909 55.4242 6.40191 54.5015C5.86473 53.5725 5.86473 52.4286 6.40191 51.4996C6.93909 50.5706 7.93129 50.0018 8.99932 50.0018Z" fill="#A8692C"/>
<path d="M54.0022 15.0032C54.0022 12.6144 53.0542 10.3266 51.3668 8.63924C49.6795 6.95187 47.3917 6.00391 45.0028 6.00391C42.614 6.00391 40.3262 6.95187 38.6389 8.63924C36.9515 10.3266 36.0035 12.6144 36.0035 15.0032C36.0035 17.3921 36.9515 19.6798 38.6389 21.3672C40.3262 23.0546 42.614 24.0025 45.0028 24.0025C47.3917 24.0025 49.6795 23.0546 51.3668 21.3672C53.0542 19.6798 54.0022 17.3921 54.0022 15.0032ZM45.0028 18.0051C44.2066 18.0051 43.4419 17.6891 42.8794 17.1266C42.317 16.5642 42.001 15.7995 42.001 15.0032C42.001 14.2069 42.317 13.4422 42.8794 12.8798C43.4419 12.3173 44.2066 12.0013 45.0028 12.0013C45.7991 12.0013 46.5638 12.3173 47.1263 12.8798C47.6887 13.4422 48.0047 14.2069 48.0047 15.0032C48.0047 15.7995 47.6887 16.5642 47.1263 17.1266C46.5638 17.6891 45.7991 18.0051 45.0028 18.0051Z" fill="#A8692C"/>
<path d="M55.0007 43.998C52.6119 43.998 50.3241 44.946 48.6367 46.6334C46.9494 48.3207 46.0014 50.6085 46.0014 52.9974C46.0014 55.3862 46.9494 57.674 48.6367 59.3613C50.3241 61.0487 52.6119 61.9967 55.0007 61.9967C57.3896 61.9967 59.6773 61.0487 61.3647 59.3613C63.0521 57.674 64 55.3862 64 52.9974C64 50.6085 63.0521 48.3207 61.3647 46.6334C59.6773 44.946 57.3896 43.998 55.0007 43.998ZM55.0007 55.9992C54.2044 55.9992 53.4397 55.6832 52.8773 55.1208C52.3148 54.5583 51.9988 53.7936 51.9988 52.9974C51.9988 52.2011 52.3148 51.4364 52.8773 50.8739C53.4397 50.3115 54.2044 49.9955 55.0007 49.9955C55.797 49.9955 56.5617 50.3115 57.1241 50.8739C57.6866 51.4364 58.0026 52.2011 58.0026 52.9974C58.0026 53.7936 57.6866 54.5583 57.1241 55.1208C56.5617 55.6832 55.797 55.9992 55.0007 55.9992Z" fill="#A8692C"/>
<path d="M34.1203 23.8824C33.5579 23.3199 32.7932 23.004 32.0032 23.004C26.6251 22.9913 21.5946 25.6772 18.6243 30.1642L13.3979 38.007H20.6087L23.6106 33.4947C25.2474 31.0363 27.8827 29.4185 30.8214 29.0772L37.8742 36.1301C38.443 36.6988 39.214 37.0148 40.0166 37.0085H51.0193V31.0111H41.2616L34.1393 23.8887L34.1203 23.8824Z" fill="#A8692C"/>
<path d="M8.99931 24.0024H14.9967V15.0031H23.9961V8.99931H14.9967V0H8.99931V8.99931H0V14.9967H8.99931V23.9961V24.0024Z" fill="#A8692C"/>
</svg>
