<svg width="64" height="64" viewBox="0 0 64 64" fill="none" xmlns="http://www.w3.org/2000/svg">
<g clip-path="url(#clip0_6_254)">
<path d="M32 64C49.6441 64 64 49.6441 64 32C64 14.3559 49.6441 0 32 0C14.3559 0 0 14.3559 0 32C0 49.6419 14.3559 64 32 64ZM32 3.40101C47.7711 3.40101 60.6012 16.2311 60.6012 32.0022C60.6012 47.7733 47.7711 60.6012 32 60.6012C27.0422 60.6012 22.3741 59.3319 18.3053 57.1007C20.5807 42.9129 36.0423 30.8037 36.1993 30.6798C36.9423 30.1049 37.0794 29.039 36.5045 28.2938C35.9317 27.5508 34.8637 27.4137 34.1229 27.9887C33.6541 28.3491 26.2152 34.1671 20.6604 42.6829C19.1788 40.1399 17.1311 34.7 21.1203 27.9267C23.6036 23.7053 27.4712 23.0331 31.9514 22.2569C35.2396 21.6864 38.8816 21.054 42.1544 18.8449C43.2092 23.8668 44.8212 35.1091 39.9983 41.7497C37.5946 45.0578 33.7757 46.818 28.6498 46.9795C27.7122 47.0082 26.9737 47.7932 27.0024 48.7308C27.0312 49.653 27.7874 50.3783 28.7007 50.3783C28.7184 50.3783 28.7361 50.3783 28.756 50.3783C34.9875 50.1837 39.6932 47.9525 42.747 43.7487C50.0333 33.7182 45.0247 16.0896 44.8057 15.3421C44.6377 14.7672 44.1799 14.3227 43.6006 14.1723C43.019 14.022 42.4043 14.1878 41.9775 14.6102C38.9612 17.5933 35.2728 18.2323 31.3653 18.9112C26.4982 19.7559 21.4697 20.6272 18.1881 26.2063C12.4497 35.9516 17.1598 43.7509 18.7321 45.9048C17.1709 48.7773 15.9082 51.8842 15.2117 55.1392C8.06026 49.936 3.3988 41.5065 3.3988 32.0044C3.3988 16.2333 16.2289 3.40322 31.9978 3.40322L32 3.40101Z" fill="#A8692C"/>
</g>
<defs>
<clipPath id="clip0_6_254">
<rect width="64" height="64" fill="white"/>
</clipPath>
</defs>
</svg>
