<svg width="220" height="118" viewBox="0 0 220 118" fill="none" xmlns="http://www.w3.org/2000/svg">
<g clip-path="url(#clip0_4_91)">
<path d="M12.3529 6.00354C11.6817 6.65925 10.8446 6.9871 9.84539 6.9871C8.84615 6.9871 8.0015 6.65925 7.31523 6.00354C6.62895 5.34783 6.28204 4.51501 6.28204 3.49753C6.28204 2.48005 6.62518 1.64722 7.31523 0.991513C8.00527 0.339573 8.8386 0.0117188 9.82277 0.0117188C10.2149 0.0117188 10.592 0.0607085 10.954 0.158688C11.316 0.256667 11.6403 0.411173 11.9382 0.625975C12.2323 0.840776 12.4849 1.08572 12.6998 1.36459C12.911 1.64345 13.0769 1.96377 13.19 2.32177C13.3032 2.68354 13.3635 3.07546 13.3635 3.50129C13.3635 4.51501 13.0279 5.3516 12.3567 6.00731L12.3529 6.00354Z" fill="#A8692C"/>
<path d="M190.931 81.6055H185.551H130.181H124.804H0V86.9717H124.804H130.181H185.551H190.931H212.236V81.6055H190.931Z" fill="#A8692C"/>
<path d="M158.959 112.1C144.521 112.1 132.617 101.05 131.263 86.9678H125.882C127.255 104.012 141.561 117.462 158.963 117.462C176.365 117.462 190.671 104.009 192.044 86.9678H186.663C185.309 101.05 173.405 112.1 158.967 112.1H158.959Z" fill="#A8692C"/>
<path d="M158.959 56.4738C173.397 56.4738 185.302 67.5229 186.655 81.6056H192.036C190.664 64.5609 176.357 51.1113 158.956 51.1113C141.554 51.1113 127.247 64.5647 125.875 81.6056H131.256C132.609 67.5229 144.514 56.4738 158.952 56.4738H158.959Z" fill="#A8692C"/>
<path d="M5.55052 41.1737H0.0452423V12.4883H5.59954L5.55052 41.1737Z" fill="#A8692C"/>
<path d="M22.1531 31.7939C19.0083 31.7939 16.5837 30.9007 14.8793 29.1183C13.175 27.332 12.3228 24.9504 12.3228 21.9695V12.4881H17.8771V21.8716C17.8771 22.8212 18.0392 23.6653 18.3673 24.4002C18.6953 25.1388 19.1855 25.7116 19.8416 26.1186C20.4977 26.5294 21.2519 26.7329 22.1041 26.7329C22.7602 26.7329 23.356 26.6085 23.8989 26.3635C24.4382 26.1186 24.8831 25.7907 25.2262 25.38C25.5694 24.9692 25.8409 24.4642 26.0369 23.8575C26.233 23.2508 26.3311 22.5876 26.3311 21.8678V12.4844H31.8854V22.0148C31.8854 24.9315 31.0407 27.2868 29.3552 29.0881C27.6659 30.8894 25.2677 31.7901 22.1531 31.7901V31.7939Z" fill="#A8692C"/>
<path d="M31.8854 4.23535H20.4827V8.41078H31.8854V4.23535Z" fill="#A8692C"/>
<path d="M41.8062 12.4885L43.0845 14.5498C44.8529 12.6166 47.4434 11.8667 50.8522 12.2887V17.2518C49.408 17.0558 48.19 17.1764 47.1908 17.6211C46.1916 18.062 45.4638 18.7252 45.0038 19.6108C44.5437 20.4964 44.3175 21.544 44.3175 22.7537V31.3495H38.7632V12.4885H41.81H41.8062Z" fill="#A8692C"/>
<path d="M71.7534 14.55L73.0317 12.4886H75.6863V31.3497H61.6252C61.6252 31.3497 61.6026 31.3497 61.5913 31.3422C61.0445 31.1462 60.5166 30.9012 60.0075 30.6111C58.4653 29.7255 57.2624 28.5234 56.3952 27.0009C55.5279 25.4785 55.0943 23.8015 55.0943 21.9663C55.0943 19.1512 56.052 16.7847 57.9713 14.8665C59.8869 12.9522 62.2888 11.9912 65.1735 11.9912C67.7941 11.9912 69.9887 12.8429 71.7609 14.5462L71.7534 14.55ZM61.8741 25.4785C62.8243 26.413 63.997 26.8766 65.3884 26.8766C66.7798 26.8766 67.9525 26.4093 68.9027 25.4785C69.8529 24.5439 70.3281 23.3757 70.3281 21.9663C70.3281 20.5569 69.8529 19.3962 68.9027 18.4805C67.9525 17.5647 66.7798 17.105 65.3884 17.105C63.997 17.105 62.8243 17.5647 61.8741 18.4805C60.9238 19.3962 60.4487 20.5606 60.4487 21.9663C60.4487 23.3719 60.9238 24.5439 61.8741 25.4785Z" fill="#A8692C"/>
<path d="M90.279 31.6435C87.3303 31.6774 84.3477 31.1686 81.3348 30.121L82.9563 25.8966C85.4148 26.8123 87.7715 27.257 90.0339 27.2231C92.0324 27.1892 93.0317 26.6653 93.0317 25.6516C93.0317 25.2258 92.8582 24.9055 92.5151 24.6945C92.1719 24.4834 91.5724 24.295 90.7202 24.1292L87.8695 23.5413C83.9706 22.7876 82.0211 20.9373 82.0211 17.9904C82.0211 16.1891 82.7074 14.7571 84.0837 13.6906C85.46 12.6279 87.3265 12.0777 89.687 12.0438C92.4057 12.0099 95.0452 12.4546 97.6018 13.3703L96.1765 17.5947C94.0121 16.939 92.0814 16.63 90.3771 16.6601C88.5106 16.6601 87.5754 17.135 87.5754 18.0846C87.5754 18.3785 87.6659 18.6235 87.8469 18.8232C88.0279 19.0192 88.3069 19.185 88.684 19.3131C89.0611 19.445 89.5777 19.5769 90.2338 19.705L92.5452 20.1949C94.6078 20.5869 96.1161 21.2199 97.0664 22.0867C98.0166 22.9534 98.4917 24.1405 98.4917 25.6479C98.4917 26.5636 98.3032 27.3927 97.9261 28.1275C97.549 28.8661 97.0098 29.4954 96.3047 30.0193C95.5995 30.5431 94.7398 30.9463 93.7255 31.2214C92.7112 31.5003 91.5611 31.6397 90.2866 31.6397L90.279 31.6435Z" fill="#A8692C"/>
<path d="M179.238 14.5383L180.517 12.4769H183.171V31.338H169.11C169.11 31.338 169.087 31.338 169.076 31.3304C168.529 31.1345 168.002 30.8895 167.492 30.5994C165.95 29.7138 164.747 28.5116 163.88 26.9892C163.013 25.4667 162.579 23.7898 162.579 21.9546C162.579 19.1395 163.537 16.7729 165.456 14.8548C167.372 12.9404 169.774 11.9795 172.658 11.9795C175.279 11.9795 177.474 12.8312 179.246 14.5345L179.238 14.5383ZM169.359 25.4667C170.309 26.4013 171.482 26.8648 172.873 26.8648C174.265 26.8648 175.437 26.3975 176.388 25.4667C177.338 24.5322 177.813 23.3639 177.813 21.9546C177.813 20.5452 177.338 19.3845 176.388 18.4687C175.437 17.553 174.265 17.0933 172.873 17.0933C171.482 17.0933 170.309 17.553 169.359 18.4687C168.409 19.3845 167.934 20.5489 167.934 21.9546C167.934 23.3602 168.409 24.5322 169.359 25.4667Z" fill="#A8692C"/>
<path d="M126.218 31.6327C123.269 31.6666 120.287 31.1579 117.274 30.1103L118.895 25.8858C121.354 26.8016 123.71 27.2462 125.973 27.2123C127.971 27.1784 128.971 26.6546 128.971 25.6409C128.971 25.2151 128.797 24.8947 128.454 24.6837C128.111 24.4727 127.511 24.2843 126.659 24.1184L123.808 23.5306C119.909 22.7769 117.96 20.9266 117.96 17.9797C117.96 16.1783 118.646 14.7463 120.023 13.6799C121.399 12.6172 123.265 12.067 125.626 12.0331C128.345 11.9991 130.984 12.4438 133.541 13.3595L132.115 17.584C129.951 16.9283 128.02 16.6192 126.316 16.6494C124.449 16.6494 123.514 17.1242 123.514 18.0739C123.514 18.3678 123.605 18.6128 123.786 18.8125C123.967 19.0084 124.246 19.1742 124.623 19.3024C125 19.4343 125.517 19.5662 126.173 19.6943L128.484 20.1842C130.547 20.5761 132.055 21.2092 133.005 22.0759C133.956 22.9427 134.431 24.1297 134.431 25.6371C134.431 26.5529 134.242 27.3819 133.865 28.1168C133.488 28.8554 132.949 29.4847 132.244 30.0085C131.538 30.5323 130.679 30.9356 129.664 31.2106C128.65 31.4895 127.5 31.6289 126.225 31.6289L126.218 31.6327Z" fill="#A8692C"/>
<path d="M151.146 21.6124L160.584 31.3387H153.409L145.592 22.8409V31.3387H140.087V6.33887H145.641L145.592 20.4856L153.111 12.4777H160.189L151.146 21.6161V21.6124Z" fill="#A8692C"/>
<path d="M196.512 25.6181C195.743 24.8154 195.358 23.3985 195.358 21.371V17.4406H200.814V12.4775H195.358V6.33496L189.804 7.46549V12.4775H187.523V17.4406H189.804V21.371C189.804 24.8757 190.679 27.4948 192.432 29.232C194.186 30.9693 196.995 31.7192 200.86 31.4931V26.6318C198.729 26.7637 197.278 26.4283 196.508 25.6256L196.512 25.6181Z" fill="#A8692C"/>
<path d="M218.993 5.99168C218.322 6.64739 217.485 6.97525 216.486 6.97525C215.486 6.97525 214.642 6.64739 213.955 5.99168C213.269 5.33597 212.922 4.50315 212.922 3.48567C212.922 2.46819 213.265 1.63537 213.955 0.979657C214.646 0.323948 215.479 -0.00390625 216.463 -0.00390625C216.855 -0.00390625 217.232 0.0450835 217.594 0.143063C217.956 0.241042 218.281 0.395548 218.578 0.61035C218.873 0.825151 219.125 1.0701 219.34 1.34896C219.551 1.62783 219.717 1.94815 219.83 2.30615C219.943 2.66792 220.004 3.05984 220.004 3.48567C220.004 4.49938 219.668 5.33597 218.997 5.99168H218.993Z" fill="#A8692C"/>
<path d="M212.206 31.3386H206.701V12.4775H212.255L212.206 31.3386Z" fill="#A8692C"/>
</g>
<defs>
<clipPath id="clip0_4_91">
<rect width="220" height="117.466" fill="white"/>
</clipPath>
</defs>
</svg>
