<svg width="66" height="57" viewBox="0 0 66 57" fill="none" xmlns="http://www.w3.org/2000/svg">
<path d="M65 49H60V40C60 33.3589 57.5518 26.9518 53.1232 22.0018C48.6964 17.0518 42.6 13.9089 36 13.1696V7H44V1H22V7H30V13.1696C23.4 13.9071 17.3036 17.0518 12.8768 22.0018C8.44822 26.9518 6.00179 33.3589 6 40V49H1V55.0018H65V49.0018V49ZM12 40C12 32.4982 16.0018 25.5643 22.5 21.8143C28.9982 18.0625 37.0018 18.0625 43.5 21.8143C49.9982 25.5661 54 32.4982 54 40V49H12V40Z" fill="#A8692C" stroke="#A8692C" stroke-width="2"/>
</svg>
