<svg width="60" height="40" viewBox="0 0 60 40" fill="none" xmlns="http://www.w3.org/2000/svg">
<rect y="-0.000976562" width="60" height="40" rx="2" fill="white"/>
<path d="M17.6898 34.9332V32.9422C17.6898 32.1806 17.2259 31.6819 16.4295 31.6819C16.0313 31.6819 15.5983 31.8133 15.3006 32.2463C15.0687 31.8829 14.7362 31.6819 14.2375 31.6819C13.905 31.6819 13.5725 31.7824 13.3096 32.1458V31.7476H12.6138V34.9332H13.3096V33.1742C13.3096 32.6097 13.6073 32.343 14.0712 32.343C14.5352 32.343 14.7671 32.6407 14.7671 33.1742V34.9332H15.463V33.1742C15.463 32.6097 15.7955 32.343 16.2246 32.343C16.6885 32.343 16.9205 32.6407 16.9205 33.1742V34.9332H17.6898ZM28.012 31.7476H26.8831V30.785H26.1872V31.7476H25.5571V32.3778H26.1872V33.8391C26.1872 34.5698 26.4849 34.9989 27.2813 34.9989C27.579 34.9989 27.9115 34.8984 28.1434 34.7669L27.9424 34.1677C27.7414 34.2992 27.5094 34.334 27.3432 34.334C27.0107 34.334 26.8792 34.1329 26.8792 33.8043V32.3778H28.0081V31.7476H28.012ZM33.9192 31.678C33.521 31.678 33.2543 31.8791 33.088 32.1419V31.7437H32.3921V34.9293H33.088V33.1355C33.088 32.6059 33.32 32.3043 33.753 32.3043C33.8844 32.3043 34.0506 32.3391 34.186 32.37L34.387 31.7051C34.2478 31.678 34.0506 31.678 33.9192 31.678ZM24.9926 32.0105C24.6602 31.7785 24.1963 31.678 23.6975 31.678C22.9012 31.678 22.3715 32.0762 22.3715 32.7064C22.3715 33.236 22.7697 33.5376 23.4656 33.6342L23.7981 33.669C24.1615 33.7347 24.3625 33.8352 24.3625 34.0015C24.3625 34.2334 24.0957 34.3997 23.6318 34.3997C23.1679 34.3997 22.8006 34.2334 22.5687 34.0672L22.2362 34.5968C22.5996 34.8636 23.0983 34.995 23.597 34.995C24.5249 34.995 25.0584 34.5621 25.0584 33.9667C25.0584 33.4023 24.6254 33.1046 23.9643 33.0041L23.6318 32.9693C23.3341 32.9345 23.1022 32.8688 23.1022 32.6716C23.1022 32.4396 23.3341 32.3082 23.7014 32.3082C24.0996 32.3082 24.4978 32.4744 24.6988 32.5749L24.9926 32.0105ZM43.5068 31.678C43.1086 31.678 42.8419 31.8791 42.6757 32.1419V31.7437H41.9798V34.9293H42.6757V33.1355C42.6757 32.6059 42.9076 32.3043 43.3406 32.3043C43.472 32.3043 43.6383 32.3391 43.7736 32.37L43.9746 31.7128C43.8393 31.678 43.6422 31.678 43.5068 31.678ZM34.6151 33.3404C34.6151 34.303 35.28 34.9989 36.3084 34.9989C36.7723 34.9989 37.1048 34.8984 37.4372 34.6355L37.1048 34.0711C36.838 34.2721 36.5751 34.3688 36.2736 34.3688C35.7092 34.3688 35.311 33.9706 35.311 33.3404C35.311 32.7412 35.7092 32.343 36.2736 32.312C36.5713 32.312 36.838 32.4126 37.1048 32.6097L37.4372 32.0453C37.1048 31.7785 36.7723 31.6819 36.3084 31.6819C35.28 31.678 34.6151 32.3778 34.6151 33.3404ZM41.0519 33.3404V31.7476H40.3561V32.1458C40.1241 31.8481 39.7916 31.6819 39.3586 31.6819C38.4617 31.6819 37.7659 32.3778 37.7659 33.3404C37.7659 34.303 38.4617 34.9989 39.3586 34.9989C39.8226 34.9989 40.155 34.8327 40.3561 34.535V34.9332H41.0519V33.3404ZM38.4965 33.3404C38.4965 32.776 38.8599 32.312 39.4592 32.312C40.0236 32.312 40.4218 32.745 40.4218 33.3404C40.4218 33.9048 40.0236 34.3688 39.4592 34.3688C38.8638 34.334 38.4965 33.901 38.4965 33.3404ZM30.1692 31.678C29.2414 31.678 28.5764 32.343 28.5764 33.3365C28.5764 34.334 29.2414 34.995 30.204 34.995C30.6679 34.995 31.1318 34.8636 31.4991 34.5621L31.1666 34.0633C30.8999 34.2644 30.5674 34.3958 30.2388 34.3958C29.8058 34.3958 29.3767 34.1948 29.2762 33.6342H31.6305C31.6305 33.5337 31.6305 33.468 31.6305 33.3675C31.6615 32.343 31.0622 31.678 30.1692 31.678ZM30.1692 32.2773C30.6022 32.2773 30.8999 32.544 30.9656 33.0389H29.3071C29.3728 32.6097 29.6705 32.2773 30.1692 32.2773ZM47.4579 33.3404V30.4873H46.762V32.1458C46.53 31.8481 46.1976 31.6819 45.7646 31.6819C44.8677 31.6819 44.1718 32.3778 44.1718 33.3404C44.1718 34.303 44.8677 34.9989 45.7646 34.9989C46.2285 34.9989 46.561 34.8327 46.762 34.535V34.9332H47.4579V33.3404ZM44.9025 33.3404C44.9025 32.776 45.2659 32.312 45.8651 32.312C46.4295 32.312 46.8277 32.745 46.8277 33.3404C46.8277 33.9048 46.4295 34.3688 45.8651 34.3688C45.2659 34.334 44.9025 33.901 44.9025 33.3404ZM21.606 33.3404V31.7476H20.9102V32.1458C20.6782 31.8481 20.3457 31.6819 19.9127 31.6819C19.0158 31.6819 18.32 32.3778 18.32 33.3404C18.32 34.303 19.0158 34.9989 19.9127 34.9989C20.3767 34.9989 20.7091 34.8327 20.9102 34.535V34.9332H21.606V33.3404ZM19.0197 33.3404C19.0197 32.776 19.3831 32.312 19.9823 32.312C20.5468 32.312 20.945 32.745 20.945 33.3404C20.945 33.9048 20.5468 34.3688 19.9823 34.3688C19.3831 34.334 19.0197 33.901 19.0197 33.3404Z" fill="black"/>
<path d="M35.2095 7.55273H24.7559V26.3337H35.2095V7.55273Z" fill="#FF5A00"/>
<path d="M25.4543 16.9449C25.4543 13.1292 27.2481 9.74258 30.0007 7.55444C27.975 5.96165 25.4195 4.99902 22.6322 4.99902C16.0291 4.99902 10.6863 10.3418 10.6863 16.9449C10.6863 23.548 16.0291 28.8908 22.6322 28.8908C25.4195 28.8908 27.975 27.9282 30.0007 26.3354C27.2443 24.1782 25.4543 20.7606 25.4543 16.9449Z" fill="#EB001B"/>
<path d="M49.3135 16.9449C49.3135 23.548 43.9707 28.8908 37.3676 28.8908C34.5802 28.8908 32.0248 27.9282 29.999 26.3354C32.7864 24.1434 34.5454 20.7606 34.5454 16.9449C34.5454 13.1292 32.7516 9.74258 29.999 7.55444C32.0209 5.96165 34.5763 4.99902 37.3637 4.99902C43.9707 4.99902 49.3135 10.3766 49.3135 16.9449Z" fill="#F79E1B"/>
</svg>
