<svg width="24" height="33" viewBox="0 0 24 33" fill="none" xmlns="http://www.w3.org/2000/svg">
<path d="M1.89497 17.2484H3.69708C4.45404 17.2484 5.26913 17.6211 5.23541 18.5577C5.20585 19.3994 4.69692 19.9062 3.69708 19.9062H1.89497V17.2484ZM0 15.6812V24.7328H1.89497V21.4467H3.99523C5.69872 21.4467 6.8981 20.2419 6.8981 18.6109C6.8981 16.9078 5.60841 15.6814 3.99523 15.6814L0 15.6812Z" fill="#A8692C"/>
<path d="M10.1274 17.2485H11.5289C13.366 17.2485 14.0481 18.4425 14.0539 20.1109C14.0558 21.8115 13.2963 23.1924 11.6949 23.1924H10.1273L10.1274 17.2485ZM8.28516 15.6812V24.7329H12.0758C14.6721 24.7329 16.0289 22.4491 15.9884 20.1112C15.9434 17.5649 14.1972 15.6809 11.7908 15.6809L8.28516 15.6812Z" fill="#A8692C"/>
<path d="M17.5508 15.6816V24.7333H19.4464V20.917H23.4263V19.3202H19.4464V17.2623H23.9994V15.6819L17.5508 15.6816Z" fill="#A8692C"/>
<path fill-rule="evenodd" clip-rule="evenodd" d="M7.09126 0.000246616L0.00390625 8.16171V14.3617H1.74145V9.35854H9.6259V3.52649H7.88482V7.61812H2.77821L7.88482 1.74042H22.2523V14.3618H23.9928V0L7.09126 0.000246616Z" fill="#A8692C"/>
<path fill-rule="evenodd" clip-rule="evenodd" d="M0.00390625 26.0634V32.4124L23.9931 32.4359V22.9927H22.2527V30.6937L1.74104 30.6748V26.0636L0.00390625 26.0634Z" fill="#A8692C"/>
</svg>
