<svg width="64" height="77" viewBox="0 0 64 77" fill="none" xmlns="http://www.w3.org/2000/svg">
<path d="M24.3248 42.8909C24.3248 45.3655 22.319 47.3715 19.8443 47.3715C17.3695 47.3715 15.3628 45.3657 15.3628 42.8909C15.3628 40.4154 17.3695 38.4094 19.8443 38.4094C22.319 38.4094 24.3248 40.4152 24.3248 42.8909Z" fill="#A8692C"/>
<path d="M48.65 42.8909C48.65 45.3655 46.6433 47.3715 44.1685 47.3715C41.6938 47.3715 39.688 45.3657 39.688 42.8909C39.688 40.4154 41.6938 38.4094 44.1685 38.4094C46.6433 38.4094 48.65 40.4152 48.65 42.8909Z" fill="#A8692C"/>
<path d="M10.8564 60.2891L5.33812 76.8179H13.4426L18.5633 61.4546H45.4494L50.5701 76.8179H58.6613L53.1565 60.2891C56.6824 58.9192 59.6499 56.4124 61.5907 53.1661C63.5313 49.9199 64.3351 46.119 63.8724 42.3655L59.4303 6.73456L58.598 0H5.4156L4.57077 6.73456L0.127708 42.3129C0.0428677 43.014 0 43.7195 0 44.4259C0.00357224 47.8553 1.04131 51.2041 2.97827 54.0343C4.91524 56.8644 7.6614 59.0443 10.8569 60.2883L10.8564 60.2891ZM47.0109 53.7724H16.9995C14.524 53.7689 12.152 52.7829 10.4033 51.0299C8.65556 49.2768 7.6758 46.9021 7.67945 44.4265C7.68124 44.0416 7.70714 43.6567 7.75626 43.2745L9.31821 30.727H54.6908L56.2653 43.2736L56.2662 43.2745C56.3162 43.6647 56.3421 44.0586 56.343 44.4524C56.3394 46.9252 55.3544 49.2956 53.6047 51.0432C51.8544 52.7909 49.4824 53.7725 47.0094 53.7725L47.0109 53.7724ZM51.812 7.68197L53.7705 23.0461H10.2406L12.1607 7.68289L51.812 7.68197Z" fill="#A8692C"/>
</svg>
