<svg width="64" height="26" viewBox="0 0 64 26" fill="none" xmlns="http://www.w3.org/2000/svg">
<path fill-rule="evenodd" clip-rule="evenodd" d="M64 14.0804V24.3198C64 25.0269 63.4268 25.6001 62.7196 25.6001H52.4803C51.7732 25.6001 51.1999 25.0269 51.1999 24.3198V14.0804C51.1999 13.3733 50.6267 12.8001 49.9196 12.8001H39.675C38.9706 12.8001 38.3982 13.3706 38.3955 14.0751L38.3563 24.3251C38.3536 25.0296 37.7813 25.6001 37.0759 25.6001H26.8805C26.1733 25.6001 25.6001 25.0269 25.6001 24.3198V14.0804C25.6001 13.3733 25.0269 12.8001 24.3197 12.8001H14.0804C13.3733 12.8001 12.8 13.3733 12.8 14.0804V24.3198C12.8 25.0269 12.2268 25.6001 11.5197 25.6001H1.28037C0.573213 25.6001 0 25.0269 0 24.3198V14.1554C0 13.4518 0.567863 12.8804 1.27143 12.8759L11.5286 12.8081C12.2321 12.8036 12.8 12.2322 12.8 11.5286V1.28037C12.8 0.573217 13.3732 6.97545e-06 14.0804 6.97545e-06H24.3197C25.0268 6.97545e-06 25.6 0.573217 25.6 1.28037V11.5197C25.6 12.2268 26.1733 12.8001 26.8804 12.8001H37.1152C37.8223 12.8001 38.3955 12.2268 38.3955 11.5197V11.5152L38.3562 1.28482C38.3536 0.577667 38.9241 0.00267429 39.6312 0H39.6357H49.9196C50.6267 0 51.1999 0.57321 51.1999 1.28036V11.5197C51.1999 12.2268 51.7732 12.8 52.4803 12.8H62.7196C63.4268 12.8 64 13.3733 64 14.0804L64 14.0804Z" fill="#A8692C"/>
</svg>
