<svg width="64" height="72" viewBox="0 0 64 72" fill="none" xmlns="http://www.w3.org/2000/svg">
<path d="M64 57.4773V24.3145C63.9856 21.939 62.801 19.7233 60.8437 18.3939L36.1278 1.38027C34.9216 0.573901 33.5059 0.138027 32.0614 0.138027C30.6169 0.138027 29.2012 0.566637 27.995 1.38027L13.7158 11.093V0H6.8543V15.7932L3.14908 18.3939C1.19896 19.7233 0.0144453 21.939 0 24.3145V57.4773H6.8543V24.3145C6.8543 24.2128 6.90486 24.1111 6.99154 24.053L31.7364 7.06843C31.8953 6.96673 32.1047 6.96673 32.2636 7.06843L57.0085 24.0457C57.0951 24.1039 57.1457 24.2056 57.1457 24.3073V57.47H64V57.4773Z" fill="#A8692C"/>
<path d="M35.8595 44.4621C39.3625 43.3506 42.1215 40.6191 43.2772 37.1176C44.4328 33.6161 43.8477 29.7658 41.6954 26.7656C39.5503 23.7726 36.0978 22 32.4287 22C28.7596 22 25.3072 23.7726 23.162 26.7656C21.0169 29.7586 20.4247 33.6088 21.5803 37.1176C22.7359 40.6191 25.495 43.3578 28.998 44.4621V55.3371H35.8523V44.4621H35.8595ZM32.4287 28.8941C33.6421 28.8941 34.805 29.3808 35.6645 30.238C36.524 31.1025 37.0007 32.2721 37.0007 33.4853C37.0007 34.6985 36.5167 35.8753 35.6645 36.7398C34.805 37.6043 33.6421 38.0838 32.4287 38.0838C31.2153 38.0838 30.0525 37.597 29.193 36.7398C28.3335 35.8753 27.8568 34.7057 27.8568 33.4853C27.8568 32.2648 28.3407 31.0952 29.193 30.238C30.0525 29.3735 31.2153 28.8941 32.4287 28.8941Z" fill="#A8692C"/>
<path d="M17.8615 67.8221C17.8615 69.7254 16.3231 71.2727 14.4308 71.2727C12.5384 71.2727 11 69.7254 11 67.8221C11 65.9188 12.5384 64.3714 14.4308 64.3714C16.3231 64.3714 17.8615 65.9188 17.8615 67.8221Z" fill="#A8692C"/>
<path d="M35.0009 67.8221C35.0009 69.7254 33.4625 71.2727 31.5702 71.2727C29.6778 71.2727 28.1394 69.7254 28.1394 67.8221C28.1394 65.9188 29.6778 64.3714 31.5702 64.3714C33.4625 64.3714 35.0009 65.9188 35.0009 67.8221Z" fill="#A8692C"/>
<path d="M52.1475 67.8221C52.1475 69.7254 50.6091 71.2727 48.7168 71.2727C46.8244 71.2727 45.286 69.7254 45.286 67.8221C45.286 65.9188 46.8244 64.3714 48.7168 64.3714C50.6091 64.3714 52.1475 65.9188 52.1475 67.8221Z" fill="#A8692C"/>
</svg>
