<svg width="64" height="67" viewBox="0 0 64 67" fill="none" xmlns="http://www.w3.org/2000/svg">
<path d="M57.6027 0H39.4691C38.6197 0 37.8041 0.337055 37.2041 0.937013C36.6041 1.53697 36.2671 2.35264 36.2671 3.20202V21.3356H42.6644V11.534C49.5538 15.2753 54.2321 22.0973 55.2433 29.8698H61.6406C60.6496 20.102 55.068 11.3857 46.6079 6.40404H57.5959V0H57.6027Z" fill="#A8692C"/>
<path d="M3.20202 25.6026H21.3356V19.2053H11.534C15.2753 12.3159 22.0973 7.63762 29.8698 6.62646V0.222412C20.0952 1.21335 11.3857 6.79498 6.3973 15.2551V4.26707H0V22.4006C0 23.25 0.337055 24.0657 0.937013 24.6656C1.53697 25.2656 2.35264 25.6026 3.20202 25.6026Z" fill="#A8692C"/>
<path d="M4.26707 61.8698H22.4006C23.25 61.8698 24.0657 61.5328 24.6656 60.9328C25.2656 60.3328 25.6026 59.5172 25.6026 58.6678V40.5342H19.2053V50.3358C12.3159 46.5945 7.63762 39.7725 6.62646 32H0.222412C1.21335 41.7679 6.79498 50.4841 15.2483 55.4658H4.26707V61.8631V61.8698Z" fill="#A8692C"/>
<path d="M32 66.1369H64V44.1542L47.9967 33.4897L31.9933 44.1542V66.1369H32ZM38.3973 47.5854L47.9967 41.1881L57.596 47.5854V59.7328H51.1987V52.2637H44.8014V59.7328H38.4041V47.5854H38.3973Z" fill="#A8692C"/>
</svg>
