<svg width="60" height="40" viewBox="0 0 60 40" fill="none" xmlns="http://www.w3.org/2000/svg">
<rect y="-0.000976562" width="60" height="40" rx="2" fill="white"/>
<path d="M36.5392 12.999C33.4713 12.999 30.7297 14.5894 30.7297 17.527C30.7297 20.8963 35.592 21.129 35.592 22.8218C35.592 23.5346 34.7754 24.1726 33.3801 24.1726C31.4005 24.1726 29.9209 23.2811 29.9209 23.2811L29.2877 26.246C29.2877 26.246 30.9922 26.999 33.2551 26.999C36.6092 26.999 39.2489 25.3308 39.2489 22.3426C39.2489 18.7821 34.3662 18.5564 34.3662 16.9855C34.3662 16.4271 35.0366 15.8155 36.4276 15.8155C37.9972 15.8155 39.2774 16.4639 39.2774 16.4639L39.8972 13.6006C39.8972 13.6006 38.5036 12.999 36.5387 12.999H36.5392ZM8.47039 13.2153L8.396 13.6474C8.396 13.6474 9.68661 13.8835 10.8492 14.355C12.3461 14.8952 12.4525 15.21 12.7047 16.1866L15.4516 26.7758H19.134L24.8068 13.2153H21.1331L17.4878 22.4352L16.0004 14.6196C15.8642 13.7252 15.173 13.2148 14.3275 13.2148H8.47082L8.47039 13.2153ZM26.2843 13.2153L23.4025 26.7758H26.9058L29.7773 13.2153H26.2843ZM45.8235 13.2153C44.9788 13.2153 44.5311 13.6677 44.2029 14.4579L39.0702 26.7758H42.744L43.4546 24.7227H47.9302L48.3623 26.7758H51.604L48.7762 13.2153H45.8235ZM46.3014 16.8791L47.3905 21.9676H44.4732L46.3018 16.8791H46.3014Z" fill="#1434CB"/>
</svg>
