<svg width="36" height="36" viewBox="0 0 36 36" fill="none" xmlns="http://www.w3.org/2000/svg">
<path d="M29.409 10.4925C29.295 10.0455 28.971 9.708 28.6005 9.6045C27.945 9.42 24.75 9 18 9C11.25 9 8.058 9.42 7.3965 9.6045C7.0305 9.7065 6.7065 10.044 6.591 10.4925C6.4275 11.1285 6 13.794 6 18C6 22.206 6.4275 24.87 6.591 25.509C6.705 25.9545 7.029 26.292 7.398 26.394C8.058 26.58 11.25 27 18 27C24.75 27 27.9435 26.58 28.6035 26.3955C28.9695 26.2935 29.2935 25.956 29.409 25.5075C29.5725 24.8715 30 22.2 30 18C30 13.8 29.5725 11.13 29.409 10.4925ZM32.3145 9.747C33 12.42 33 18 33 18C33 18 33 23.58 32.3145 26.253C31.9335 27.7305 30.819 28.893 29.4075 29.286C26.844 30 18 30 18 30C18 30 9.1605 30 6.5925 29.286C5.175 28.887 4.062 27.726 3.6855 26.253C3 23.58 3 18 3 18C3 18 3 12.42 3.6855 9.747C4.0665 8.2695 5.181 7.107 6.5925 6.714C9.1605 6 18 6 18 6C18 6 26.844 6 29.4075 6.714C30.825 7.113 31.938 8.274 32.3145 9.747V9.747ZM15 23.25V12.75L24 18L15 23.25Z" fill="#A8692C"/>
</svg>
