<?xml version="1.0" standalone="no"?>
<!DOCTYPE svg PUBLIC "-//W3C//DTD SVG 20010904//EN"
 "http://www.w3.org/TR/2001/REC-SVG-20010904/DTD/svg10.dtd">
<svg version="1.0" xmlns="http://www.w3.org/2000/svg"
 width="1200.000000pt" height="1200.000000pt" viewBox="0 0 1200.000000 1200.000000"
 preserveAspectRatio="xMidYMid meet">
<metadata>
Created by potrace 1.14, written by Peter Selinger 2001-2017
</metadata>
<g transform="translate(0.000000,1200.000000) scale(0.100000,-0.100000)"
fill="#000000" stroke="none">
<path d="M4667 11574 c-1 -1 -40 -4 -87 -7 -327 -23 -641 -250 -767 -557 -54
-132 -63 -176 -68 -355 -9 -289 73 -504 265 -695 188 -189 403 -274 685 -273
141 0 250 21 366 68 234 95 446 325 514 558 35 121 44 199 40 342 -5 189 -22
268 -89 410 -147 308 -439 495 -794 508 -35 1 -64 1 -65 1z"/>
<path d="M7477 8315 c-1 -2 -54 -5 -117 -9 -63 -3 -126 -8 -140 -10 -14 -3
-65 -10 -115 -16 -349 -47 -699 -178 -955 -358 -159 -112 -341 -307 -427 -457
-95 -167 -160 -369 -180 -565 -9 -85 -9 -297 0 -380 7 -62 10 -83 22 -140 3
-14 7 -34 9 -45 15 -79 104 -291 154 -366 48 -72 59 -88 101 -139 187 -224
467 -398 836 -519 148 -49 216 -66 520 -131 132 -28 281 -59 330 -70 159 -34
389 -82 415 -86 47 -9 205 -54 259 -74 136 -53 200 -102 242 -187 35 -72 33
-197 -4 -276 -71 -154 -272 -249 -577 -274 -164 -13 -580 -6 -692 12 -13 2
-50 6 -83 10 -33 3 -67 8 -75 10 -8 2 -37 7 -65 10 -27 4 -63 8 -80 10 -16 3
-75 14 -130 25 -55 11 -113 23 -128 26 -40 7 -284 70 -348 89 -151 47 -224 71
-328 107 -62 22 -119 42 -126 44 -8 3 -20 -16 -35 -53 -12 -32 -26 -67 -31
-78 -15 -36 -368 -980 -371 -994 -7 -32 643 -226 952 -285 14 -3 71 -14 127
-25 56 -11 122 -23 145 -26 66 -10 102 -15 118 -20 8 -2 42 -6 75 -10 33 -3
71 -8 85 -10 29 -5 94 -13 177 -20 32 -3 77 -8 101 -10 221 -24 867 -24 1012
-1 14 2 52 8 85 12 33 4 62 8 65 9 3 1 30 5 60 9 194 28 471 114 653 203 48
24 92 43 97 43 4 0 10 3 12 8 2 4 20 16 40 27 88 47 230 157 323 250 118 118
195 224 260 355 26 52 52 103 57 114 29 55 82 265 95 377 9 80 9 292 1 379
-44 440 -268 775 -665 993 -161 89 -388 176 -603 233 -92 24 -650 148 -770
170 -13 3 -61 14 -106 24 -45 11 -97 22 -116 25 -64 11 -233 56 -308 82 -154
52 -248 118 -292 203 -19 38 -23 60 -23 140 0 81 4 102 24 139 70 133 246 213
515 237 149 13 507 7 646 -11 19 -2 55 -7 80 -10 91 -11 106 -13 155 -20 28
-4 57 -9 65 -10 39 -8 327 -66 342 -70 47 -10 331 -87 385 -104 35 -11 65 -16
67 -13 2 4 86 257 186 562 101 305 185 560 187 567 5 12 -292 114 -442 153
-258 67 -419 104 -545 124 -19 3 -46 8 -60 11 -14 3 -43 7 -65 10 -22 3 -47 7
-55 10 -8 2 -43 7 -77 10 -34 3 -70 7 -80 9 -10 2 -49 7 -88 10 -38 4 -88 9
-110 11 -127 13 -656 29 -668 20z"/>
<path d="M2097 8190 c-10 -4 -13 -792 -12 -3885 l0 -3880 731 -3 731 -2 2
2117 c2 1165 4 2913 6 3886 l2 1767 -21 1 c-98 4 -1430 3 -1439 -1z"/>
</g>
</svg>
