<svg width="75" height="75" viewBox="0 0 75 75" fill="none" xmlns="http://www.w3.org/2000/svg">
<g clip-path="url(#clip0_323_116183)">
<path d="M36.3 30.76L12.48 37.42L36.23 44L60.12 37.41L36.3 30.76ZM20.68 37.42L35.21 33.42V41.42L20.68 37.42ZM37.39 41.42V33.42L51.93 37.42L37.39 41.42Z" fill="#979797"/>
<path d="M37.38 33.38L37.39 41.43L51.92 37.39L37.38 33.38Z" fill="#A6692C"/>
<path d="M74.26 35V40.14H73.38L71.06 37V40.14H70V35H70.87L73.18 38.12V35H74.26Z" fill="#979797"/>
<path d="M0.829998 40.1509C0.528575 40.0614 0.246908 39.9155 0 39.7209L0.369999 38.8209C0.581609 38.992 0.822036 39.1241 1.08 39.2109C1.34209 39.3098 1.61987 39.3606 1.9 39.3609C2.1363 39.3763 2.37212 39.3243 2.58 39.2109C2.64514 39.1666 2.69838 39.1069 2.735 39.0371C2.77162 38.9674 2.79051 38.8897 2.79 38.8109C2.79212 38.7529 2.78159 38.6951 2.75914 38.6416C2.73669 38.588 2.70286 38.54 2.66 38.5009C2.56538 38.414 2.45268 38.3491 2.33 38.3109C2.15284 38.2484 1.9726 38.195 1.79 38.1509C1.49505 38.0737 1.2046 37.9802 0.919998 37.8709C0.688277 37.7783 0.487285 37.6223 0.339996 37.4209C0.162611 37.1856 0.0740668 36.8951 0.0899963 36.6009C0.0889607 36.316 0.164978 36.0361 0.309998 35.7909C0.467173 35.536 0.697037 35.334 0.969997 35.2109C1.31033 35.0628 1.67898 34.9911 2.05 35.0009C2.34418 35.0001 2.63702 35.0404 2.92 35.1209C3.18371 35.1878 3.43401 35.2994 3.66 35.4509L3.33 36.3609C2.94775 36.1043 2.50024 35.9621 2.04 35.9509C1.80885 35.9359 1.57863 35.9917 1.38 36.1109C1.30999 36.1581 1.2531 36.2224 1.21463 36.2975C1.17616 36.3727 1.15737 36.4564 1.16 36.5409C1.15749 36.6235 1.18003 36.705 1.22464 36.7746C1.26925 36.8442 1.33387 36.8986 1.41 36.9309C1.65352 37.0439 1.90825 37.1311 2.17 37.1909C2.46507 37.2636 2.75557 37.3538 3.04 37.4609C3.26716 37.5566 3.46662 37.7079 3.62 37.9009C3.78939 38.1397 3.87389 38.4284 3.86 38.7209C3.86446 39.0131 3.78233 39.3 3.62394 39.5456C3.46556 39.7912 3.23802 39.9844 2.97 40.1009C2.63026 40.2509 2.26118 40.3226 1.89 40.3109C1.53043 40.3139 1.17265 40.2599 0.829998 40.1509Z" fill="#979797"/>
<path d="M40.43 1L38.91 6.16H37.75L36.75 2.69L35.67 6.16H34.53L33 1H34.11L35.16 4.61L36.26 1H37.26L38.33 4.64L39.4 1H40.43Z" fill="#979797"/>
<path d="M38.6 73.16V74.16H35V69H38.51V69.95H36.07V71.07H38.23V71.99H36.07V73.16H38.6Z" fill="#979797"/>
</g>
<defs>
<clipPath id="clip0_323_116183">
<rect width="74.44" height="74.72" fill="white"/>
</clipPath>
</defs>
</svg>
