<svg xmlns="http://www.w3.org/2000/svg" viewBox="0 0 112.61 64"><defs><style>.cls-1{fill:#979797;}</style></defs><g id="Layer_2" data-name="Layer 2"><g id="Junā_karte_gaisha" data-name="Junā karte_gaisha"><path class="cls-1" d="M99,39.85a10.6,10.6,0,0,0,1.88.18c4.75,0,8.62-3.3,8.62-7.35s-3.87-7.35-8.62-7.35-8.61,3.3-8.61,7.35a7.18,7.18,0,0,0,4,6.2,6.73,6.73,0,0,1-5,3.29V20.94l.69,0c7.41,0,13.44-4.7,13.44-10.48S99.34,0,91.93,0C86.42,0,81.48,2.65,79.47,6.56,73.14,6,67.75,10,67.75,14.83c0,4.58,4.75,8.31,10.59,8.31A14.34,14.34,0,0,0,80.63,23a9.6,9.6,0,0,0,7.73,5.22V64h2.88v-19A9.58,9.58,0,0,0,99,39.85Zm-3.86-7.17c0-2.46,2.58-4.47,5.74-4.47s5.74,2,5.74,4.47-2.58,4.48-5.74,4.48a7.63,7.63,0,0,1-1-.07,10.31,10.31,0,0,0,.14-1.58q0-.34,0-.69a1.43,1.43,0,1,0-2.86.21c0,.15,0,.31,0,.48a5.25,5.25,0,0,1,0,.56,4.14,4.14,0,0,1-2-3.39ZM78.34,20.27c-4.25,0-7.72-2.44-7.72-5.44s3.47-5.44,7.72-5.44a10.66,10.66,0,0,1,1.77.15,1.42,1.42,0,0,0,1.59-.93c1.22-3.37,5.42-5.73,10.22-5.73,5.83,0,10.57,3.41,10.57,7.61S97.75,18.1,91.92,18.1c-.23,0-.45,0-.68,0v-5.4a1.44,1.44,0,0,0-2.88,0v5a12.88,12.88,0,0,1-1.66-.54,1.46,1.46,0,0,0-1.67.42,7.06,7.06,0,0,1-2.53,1.87c0-.25,0-.5,0-.76s0-.32,0-.48a1.43,1.43,0,0,0-1.33-1.53,1.44,1.44,0,0,0-1.54,1.33c0,.23,0,.45,0,.68a8.76,8.76,0,0,0,.14,1.55,10.42,10.42,0,0,1-1.38.1Zm5.11,1.84a10.44,10.44,0,0,0,3.09-2,18,18,0,0,0,1.82.49v4.69A6.69,6.69,0,0,1,83.45,22.11Z"/><path class="cls-1" d="M81.4,60c-16.69,0-29.57-1.36-38.29-4.06-7.38-2.28-11.95-5.58-13.57-9.79-2-5.16.87-10.29,3.28-13.42-6.62,2.33-11.69,9-16.24,15C11.75,54,7.19,60,1.37,60a1.37,1.37,0,0,1,0-2.74c4.46,0,8.62-5.46,13-11.24,5.72-7.51,12.21-16,22-16.84h.11c5.73,0,11.32,3.48,16.78,8,1.56-1.32,5-3.8,8.5-3.8,2.6,0,4.72,1.78,7.41,4C75,42.29,84.87,50.52,111.25,50.64a1.37,1.37,0,0,1,0,2.74h0c-27.37-.12-37.68-8.75-43.84-13.91-2.35-2-4-3.39-5.65-3.39-2.44,0-5,1.74-6.38,2.87,1.87,1.64,3.73,3.37,5.57,5.09,7.27,6.77,14.15,13.17,20.46,13.17a1.37,1.37,0,0,1,0,2.74ZM37.18,31.89C36,33.09,29.89,39.4,32.1,45.12c1.3,3.39,5.29,6.14,11.83,8.16,6.85,2.11,16.43,3.38,28.56,3.79-4.4-2.63-8.83-6.76-13.42-11C51.83,39.3,44.34,32.33,37.18,31.89Z"/><path class="cls-1" d="M20.79,41.18H2.41a1.37,1.37,0,0,1,0-2.74H20.79a1.37,1.37,0,0,1,0,2.74Z"/><path class="cls-1" d="M9.73,47.2H5.5a1.37,1.37,0,0,1,0-2.74H9.73a1.37,1.37,0,1,1,0,2.74Z"/><path class="cls-1" d="M88.63,41.18H70.25a1.37,1.37,0,0,1,0-2.74H88.63a1.37,1.37,0,0,1,0,2.74Z"/><path class="cls-1" d="M110.43,46.06H101a1.37,1.37,0,1,1,0-2.74h9.43a1.37,1.37,0,0,1,0,2.74Z"/></g></g></svg>