<svg xmlns="http://www.w3.org/2000/svg" viewBox="0 0 74.44 74.72"><defs><style>.cls-1{fill:#979797;}.cls-2{fill:#a6692c;}</style></defs><g id="Layer_2" data-name="Layer 2"><g id="Layer_1-2" data-name="Layer 1"><path class="cls-1" d="M36.3,30.76h0L12.48,37.42,36.23,44l23.89-6.59ZM20.68,37.42h0l14.53-4v8Zm16.71,4v-8l14.54,4Z"/><polygon class="cls-2" points="37.38 33.38 37.39 41.43 51.92 37.39 37.38 33.38"/><path class="cls-1" d="M38.39,0V5.14h-.88L35.19,2V5.14H34.13V0H35l2.31,3.12V0Z"/><path class="cls-1" d="M35.16,74.56a2.48,2.48,0,0,1-.83-.43l.37-.9a2.29,2.29,0,0,0,.71.39,2.33,2.33,0,0,0,.82.15,1.25,1.25,0,0,0,.68-.15.48.48,0,0,0,.21-.4.4.4,0,0,0-.13-.31.87.87,0,0,0-.33-.19,5.52,5.52,0,0,0-.54-.16,8.25,8.25,0,0,1-.87-.28,1.33,1.33,0,0,1-.58-.45,1.25,1.25,0,0,1-.25-.82,1.58,1.58,0,0,1,.22-.81,1.5,1.5,0,0,1,.66-.58,2.54,2.54,0,0,1,1.08-.21,3.15,3.15,0,0,1,.87.12,2.38,2.38,0,0,1,.74.33l-.33.91a2.42,2.42,0,0,0-1.29-.41,1.14,1.14,0,0,0-.66.16.5.5,0,0,0-.22.43.41.41,0,0,0,.25.39,3.83,3.83,0,0,0,.76.26,7.71,7.71,0,0,1,.87.27,1.47,1.47,0,0,1,.58.44,1.31,1.31,0,0,1,.24.82,1.48,1.48,0,0,1-.89,1.38,2.48,2.48,0,0,1-1.08.21A3.4,3.4,0,0,1,35.16,74.56Z"/><path class="cls-1" d="M7.43,34.84,5.91,40H4.75l-1-3.47L2.67,40H1.53L0,34.84H1.11l1.05,3.61,1.1-3.61h1l1.07,3.64L6.4,34.84Z"/><path class="cls-1" d="M74.44,39V40h-3.6V34.84h3.51v.95H71.91v1.12h2.16v.92H71.91V39Z"/></g></g></svg>