<svg xmlns="http://www.w3.org/2000/svg" viewBox="0 0 97.36 101.78"><defs><style>.cls-1{fill:#a6692c;}</style></defs><g id="Layer_2" data-name="Layer 2"><g id="Junā_karte_gaisha" data-name="Junā karte_gaisha"><path class="cls-1" d="M10.1,4.92A2.83,2.83,0,0,1,8,5.73,2.87,2.87,0,0,1,6,4.92a2.7,2.7,0,0,1-.85-2.06A2.68,2.68,0,0,1,6,.81,2.85,2.85,0,0,1,8,0,3.48,3.48,0,0,1,9,.12,2.51,2.51,0,0,1,9.76.5a3,3,0,0,1,.62.61,2.58,2.58,0,0,1,.41.79,3.22,3.22,0,0,1,.14,1A2.76,2.76,0,0,1,10.1,4.92Z"/><path class="cls-1" d="M4.52,33.8H0V10.25H4.56Z"/><path class="cls-1" d="M18.14,26.1a7.89,7.89,0,0,1-6-2.2A8.14,8.14,0,0,1,10.08,18V10.25h4.55V18A5.08,5.08,0,0,0,15,20a3.14,3.14,0,0,0,1.21,1.41,3.35,3.35,0,0,0,1.85.5,3.51,3.51,0,0,0,1.47-.3,2.91,2.91,0,0,0,1.09-.81,3.47,3.47,0,0,0,.67-1.25A5.26,5.26,0,0,0,21.57,18v-7.7h4.56v7.82a8.14,8.14,0,0,1-2.08,5.81A7.68,7.68,0,0,1,18.14,26.1Z"/><rect class="cls-1" x="16.77" y="3.47" width="9.36" height="3.43"/><path class="cls-1" d="M34.27,10.25l1,1.69c1.45-1.59,3.58-2.21,6.37-1.86v4.08a5.55,5.55,0,0,0-3,.3,3.6,3.6,0,0,0-1.8,1.63,5.65,5.65,0,0,0-.56,2.59v7.05H31.77V10.25Z"/><path class="cls-1" d="M58.85,11.94l1-1.69h2.18V25.73H50.51a8,8,0,0,1-1.3-.6,7.91,7.91,0,0,1-3-3A8.19,8.19,0,0,1,45.18,18a7.89,7.89,0,0,1,2.36-5.83,8,8,0,0,1,5.9-2.36A7.48,7.48,0,0,1,58.85,11.94Zm-8.11,9a4.19,4.19,0,0,0,5.77,0A3.85,3.85,0,0,0,57.68,18a3.79,3.79,0,0,0-1.17-2.86,4.25,4.25,0,0,0-5.77,0A3.79,3.79,0,0,0,49.57,18,3.85,3.85,0,0,0,50.74,20.91Z"/><path class="cls-1" d="M74.05,26a21.66,21.66,0,0,1-7.34-1.25L68,21.26a16.13,16.13,0,0,0,5.81,1.09q2.46,0,2.46-1.29a.87.87,0,0,0-.42-.79,4.82,4.82,0,0,0-1.48-.47l-2.34-.48q-4.8-.93-4.8-4.56A4.24,4.24,0,0,1,69,11.23a7.55,7.55,0,0,1,4.6-1.35A18.63,18.63,0,0,1,80.06,11l-1.17,3.47a15.71,15.71,0,0,0-4.76-.77c-1.53,0-2.3.39-2.3,1.17a.89.89,0,0,0,.22.61,1.72,1.72,0,0,0,.69.4,8.55,8.55,0,0,0,1.27.32l1.9.41a7.6,7.6,0,0,1,3.71,1.55,3.77,3.77,0,0,1,1.17,2.93A4.36,4.36,0,0,1,79,24.65a6.11,6.11,0,0,1-2.12,1A10.56,10.56,0,0,1,74.05,26Z"/><path class="cls-1" d="M63.91,40.54l1-1.69h2.17V54.34H55.57a7.66,7.66,0,0,1-1.3-.6,7.75,7.75,0,0,1-3-3,8.24,8.24,0,0,1-1.07-4.14,8,8,0,0,1,2.36-5.83,8.05,8.05,0,0,1,5.91-2.36A7.51,7.51,0,0,1,63.91,40.54Zm-8.11,9a4.19,4.19,0,0,0,5.77,0,3.89,3.89,0,0,0,1.17-2.89,3.81,3.81,0,0,0-1.17-2.86,4.25,4.25,0,0,0-5.77,0,3.81,3.81,0,0,0-1.17,2.86A3.89,3.89,0,0,0,55.8,49.52Z"/><path class="cls-1" d="M20.39,54.58a21.46,21.46,0,0,1-7.34-1.25l1.33-3.47A16,16,0,0,0,20.19,51q2.46,0,2.46-1.29a.88.88,0,0,0-.42-.79,4.69,4.69,0,0,0-1.47-.46l-2.34-.49q-4.8-.91-4.8-4.55a4.22,4.22,0,0,1,1.69-3.53,7.42,7.42,0,0,1,4.6-1.35,18.36,18.36,0,0,1,6.49,1.08L25.23,43a15.67,15.67,0,0,0-4.76-.76c-1.53,0-2.3.39-2.3,1.17a.85.85,0,0,0,.23.6,1.61,1.61,0,0,0,.68.41,12.1,12.1,0,0,0,1.27.32l1.9.4A7.6,7.6,0,0,1,26,46.73a3.78,3.78,0,0,1,1.17,2.93,4.56,4.56,0,0,1-.46,2,4.49,4.49,0,0,1-1.34,1.55,6.25,6.25,0,0,1-2.11,1A11.14,11.14,0,0,1,20.39,54.58Z"/><path class="cls-1" d="M40.85,46.35l7.75,8H42.71l-6.42-7v7H31.78V33.81h4.55l0,11.61,6.17-6.57h5.81Z"/><path class="cls-1" d="M70.7,42.92V38.85H81.61v4.07Z"/><path class="cls-1" d="M77.13,42.92v3.23a5,5,0,0,0,1,3.49c.63.66,1.82.93,3.57.83v4q-4.75.28-6.92-1.86t-2.16-6.45V34.73l4.56-.92v5h4.48v4.07Z"/><path class="cls-1" d="M96.53,33.52a2.83,2.83,0,0,1-2.06.81,2.87,2.87,0,0,1-2.07-.81,2.91,2.91,0,0,1,0-4.11,2.85,2.85,0,0,1,2-.81,3.54,3.54,0,0,1,.93.12,2.53,2.53,0,0,1,.81.39,2.72,2.72,0,0,1,.62.6,2.58,2.58,0,0,1,.41.79,3.34,3.34,0,0,1,.14,1A2.73,2.73,0,0,1,96.53,33.52Z"/><polygon class="cls-1" points="90.96 54.34 86.44 54.34 86.44 38.85 91 38.85 90.96 54.34"/><rect class="cls-1" y="83.61" width="90.98" height="4.58"/><path class="cls-1" d="M68.19,101.78A15.89,15.89,0,1,1,84.08,85.9,15.89,15.89,0,0,1,68.19,101.78Zm0-27.19A11.31,11.31,0,1,0,79.5,85.9,11.32,11.32,0,0,0,68.19,74.59Z"/></g></g></svg>